<mxfile host="Electron" modified="2024-03-19T11:17:04.949Z" agent="Mozilla/5.0 (Windows NT 10.0; Win64; x64) AppleWebKit/537.36 (KHTML, like Gecko) draw.io/24.0.4 Chrome/120.0.6099.109 Electron/28.1.0 Safari/537.36" etag="TkTZ9lpqJoV74qeV6QMl" version="24.0.4" type="device" pages="4">
  <diagram name="Compact for biz" id="wN0mwDO_pFNNNWkEys0n">
    <mxGraphModel dx="1434" dy="884" grid="1" gridSize="10" guides="1" tooltips="1" connect="1" arrows="1" fold="1" page="1" pageScale="1" pageWidth="1169" pageHeight="827" background="#F7F7F7" math="0" shadow="0">
      <root>
        <mxCell id="nTN8sJjoOhgb6UXOudAq-0" />
        <mxCell id="nTN8sJjoOhgb6UXOudAq-1" style="" parent="nTN8sJjoOhgb6UXOudAq-0" />
        <mxCell id="nTN8sJjoOhgb6UXOudAq-2" value="" style="rounded=0;whiteSpace=wrap;html=1;align=right;fillColor=none;strokeColor=#4277BB;fontColor=#000000;fontStyle=1;startSize=0;shadow=0;labelBackgroundColor=#007FFF;gradientColor=none;strokeWidth=3;glass=0;movable=1;resizable=1;rotatable=1;deletable=1;editable=1;locked=0;connectable=1;" parent="nTN8sJjoOhgb6UXOudAq-1" vertex="1">
          <mxGeometry x="30" y="31" width="790" height="770" as="geometry" />
        </mxCell>
        <mxCell id="nTN8sJjoOhgb6UXOudAq-3" value="NEWS SYSTEM" style="text;html=1;align=left;verticalAlign=middle;resizable=0;points=[];autosize=1;strokeColor=none;fillColor=none;fontSize=30;fontColor=#4277BB;shadow=0;dashed=1;labelBackgroundColor=#f7f7f7;fontStyle=1;spacingLeft=5;startSize=0;strokeWidth=1;rounded=0;labelBorderColor=none;" parent="nTN8sJjoOhgb6UXOudAq-1" vertex="1">
          <mxGeometry x="340" width="250" height="50" as="geometry" />
        </mxCell>
        <mxCell id="rxHLFNSxN-ANhz3IYRMf-60" value="" style="rounded=0;whiteSpace=wrap;html=1;align=right;fillColor=none;strokeColor=#4277BB;fontColor=#000000;fontStyle=1;startSize=0;shadow=0;labelBackgroundColor=#007FFF;gradientColor=none;strokeWidth=3;glass=0;movable=1;resizable=1;rotatable=1;deletable=1;editable=1;locked=0;connectable=1;" parent="nTN8sJjoOhgb6UXOudAq-1" vertex="1">
          <mxGeometry x="820" y="31" width="320" height="770" as="geometry" />
        </mxCell>
        <object label="area" id="nTN8sJjoOhgb6UXOudAq-4">
          <mxCell style="" parent="nTN8sJjoOhgb6UXOudAq-0" />
        </object>
        <mxCell id="rxHLFNSxN-ANhz3IYRMf-2" value="" style="swimlane;shadow=0;labelBackgroundColor=#007FFF;strokeColor=#4277BB;fillColor=none;gradientColor=none;fontColor=#000000;align=right;collapsible=0;startSize=0;strokeWidth=2;swimlaneFillColor=none;dashed=1;opacity=50;" parent="nTN8sJjoOhgb6UXOudAq-4" vertex="1">
          <mxGeometry x="235" y="50" width="370" height="720" as="geometry" />
        </mxCell>
        <mxCell id="nTN8sJjoOhgb6UXOudAq-11" value="flow" style="" parent="nTN8sJjoOhgb6UXOudAq-0" />
        <mxCell id="rxHLFNSxN-ANhz3IYRMf-48" style="edgeStyle=orthogonalEdgeStyle;rounded=1;orthogonalLoop=1;jettySize=auto;html=1;labelBackgroundColor=#ffffff;endArrow=classicThin;strokeColor=#cd23c7;fontColor=#000000;strokeWidth=2;endSize=4;startSize=4;startArrow=classicThin;startFill=1;endFill=1;" parent="nTN8sJjoOhgb6UXOudAq-11" edge="1">
          <mxGeometry relative="1" as="geometry">
            <mxPoint x="300" y="610" as="sourcePoint" />
            <mxPoint x="120" y="440" as="targetPoint" />
            <Array as="points">
              <mxPoint x="300" y="550" />
              <mxPoint x="120" y="550" />
            </Array>
          </mxGeometry>
        </mxCell>
        <mxCell id="rxHLFNSxN-ANhz3IYRMf-49" style="edgeStyle=orthogonalEdgeStyle;rounded=1;orthogonalLoop=1;jettySize=auto;html=1;labelBackgroundColor=#ffffff;endArrow=classicThin;strokeColor=#4277BB;fontColor=#000000;strokeWidth=2;endSize=4;startSize=4;startArrow=none;startFill=0;endFill=1;" parent="nTN8sJjoOhgb6UXOudAq-11" edge="1">
          <mxGeometry relative="1" as="geometry">
            <mxPoint x="470" y="650" as="sourcePoint" />
            <mxPoint x="340" y="650" as="targetPoint" />
            <Array as="points">
              <mxPoint x="520" y="650" />
              <mxPoint x="520" y="650" />
            </Array>
          </mxGeometry>
        </mxCell>
        <mxCell id="rxHLFNSxN-ANhz3IYRMf-50" style="edgeStyle=orthogonalEdgeStyle;rounded=1;orthogonalLoop=1;jettySize=auto;html=1;entryX=0.5;entryY=0;entryDx=0;entryDy=0;labelBackgroundColor=#ffffff;endArrow=classicThin;strokeColor=#4277BB;fontColor=#000000;strokeWidth=2;endSize=4;startSize=4;startArrow=none;startFill=0;endFill=1;" parent="nTN8sJjoOhgb6UXOudAq-11" edge="1">
          <mxGeometry relative="1" as="geometry">
            <mxPoint x="510" y="320" as="sourcePoint" />
            <mxPoint x="510" y="610" as="targetPoint" />
          </mxGeometry>
        </mxCell>
        <mxCell id="rxHLFNSxN-ANhz3IYRMf-51" style="edgeStyle=orthogonalEdgeStyle;rounded=1;orthogonalLoop=1;jettySize=auto;html=1;entryX=0.5;entryY=1;entryDx=0;entryDy=0;labelBackgroundColor=#ffffff;endArrow=classicThin;strokeColor=#4277BB;fontColor=#000000;strokeWidth=2;endSize=4;startSize=4;startArrow=none;startFill=0;endFill=1;" parent="nTN8sJjoOhgb6UXOudAq-11" edge="1">
          <mxGeometry relative="1" as="geometry">
            <mxPoint x="300" y="420" as="sourcePoint" />
            <mxPoint x="300" y="320" as="targetPoint" />
          </mxGeometry>
        </mxCell>
        <mxCell id="rxHLFNSxN-ANhz3IYRMf-52" style="edgeStyle=orthogonalEdgeStyle;rounded=1;orthogonalLoop=1;jettySize=auto;html=1;labelBackgroundColor=#ffffff;endArrow=classicThin;strokeColor=#4277BB;fontColor=#000000;strokeWidth=2;endSize=4;startSize=4;startArrow=none;startFill=0;endFill=1;" parent="nTN8sJjoOhgb6UXOudAq-11" edge="1">
          <mxGeometry relative="1" as="geometry">
            <mxPoint x="340" y="280" as="sourcePoint" />
            <mxPoint x="470" y="280" as="targetPoint" />
          </mxGeometry>
        </mxCell>
        <mxCell id="rxHLFNSxN-ANhz3IYRMf-53" style="edgeStyle=orthogonalEdgeStyle;rounded=1;orthogonalLoop=1;jettySize=auto;html=1;entryX=0.5;entryY=0;entryDx=0;entryDy=0;labelBackgroundColor=#ffffff;endArrow=classicThin;strokeColor=#4277BB;fontColor=#000000;strokeWidth=2;endSize=4;startSize=4;startArrow=none;startFill=0;endFill=1;" parent="nTN8sJjoOhgb6UXOudAq-11" edge="1">
          <mxGeometry relative="1" as="geometry">
            <mxPoint x="300" y="140" as="sourcePoint" />
            <mxPoint x="300" y="240" as="targetPoint" />
          </mxGeometry>
        </mxCell>
        <mxCell id="rxHLFNSxN-ANhz3IYRMf-54" style="edgeStyle=orthogonalEdgeStyle;rounded=1;orthogonalLoop=1;jettySize=auto;html=1;entryX=0.5;entryY=0;entryDx=0;entryDy=0;labelBackgroundColor=#ffffff;endArrow=classicThin;strokeColor=#4277BB;fontColor=#000000;strokeWidth=2;endSize=4;startSize=4;startArrow=none;startFill=0;endFill=1;" parent="nTN8sJjoOhgb6UXOudAq-11" edge="1">
          <mxGeometry relative="1" as="geometry">
            <mxPoint x="120" y="190" as="sourcePoint" />
            <mxPoint x="120" y="360" as="targetPoint" />
          </mxGeometry>
        </mxCell>
        <mxCell id="rxHLFNSxN-ANhz3IYRMf-55" style="edgeStyle=orthogonalEdgeStyle;rounded=1;orthogonalLoop=1;jettySize=auto;html=1;labelBackgroundColor=#ffffff;endArrow=classicThin;strokeColor=#cd23c7;fontColor=#000000;strokeWidth=2;endSize=4;startSize=4;startArrow=classicThin;startFill=1;endFill=1;" parent="nTN8sJjoOhgb6UXOudAq-11" edge="1">
          <mxGeometry relative="1" as="geometry">
            <mxPoint x="160" y="400" as="sourcePoint" />
            <mxPoint x="260" y="460" as="targetPoint" />
            <Array as="points">
              <mxPoint x="220" y="400" />
              <mxPoint x="220" y="460" />
            </Array>
          </mxGeometry>
        </mxCell>
        <mxCell id="rxHLFNSxN-ANhz3IYRMf-56" style="edgeStyle=orthogonalEdgeStyle;rounded=1;orthogonalLoop=1;jettySize=auto;html=1;labelBackgroundColor=#ffffff;endArrow=classicThin;strokeColor=#cd23c7;fontColor=#000000;strokeWidth=2;endSize=4;startSize=4;startArrow=classicThin;startFill=1;endFill=1;" parent="nTN8sJjoOhgb6UXOudAq-11" edge="1">
          <mxGeometry relative="1" as="geometry">
            <mxPoint x="160" y="400" as="sourcePoint" />
            <mxPoint x="260" y="100" as="targetPoint" />
            <Array as="points">
              <mxPoint x="220" y="400" />
              <mxPoint x="220" y="100" />
            </Array>
          </mxGeometry>
        </mxCell>
        <mxCell id="rxHLFNSxN-ANhz3IYRMf-57" style="edgeStyle=orthogonalEdgeStyle;rounded=1;orthogonalLoop=1;jettySize=auto;html=1;labelBackgroundColor=#ffffff;endArrow=classicThin;strokeColor=#cd23c7;fontColor=#000000;strokeWidth=2;endSize=4;startSize=4;startArrow=classicThin;startFill=1;endFill=1;" parent="nTN8sJjoOhgb6UXOudAq-11" edge="1">
          <mxGeometry relative="1" as="geometry">
            <mxPoint x="160" y="400" as="sourcePoint" />
            <mxPoint x="260" y="280" as="targetPoint" />
            <Array as="points">
              <mxPoint x="220" y="400" />
              <mxPoint x="220" y="280" />
            </Array>
          </mxGeometry>
        </mxCell>
        <mxCell id="rxHLFNSxN-ANhz3IYRMf-194" style="edgeStyle=orthogonalEdgeStyle;rounded=1;orthogonalLoop=1;jettySize=auto;html=1;entryX=0;entryY=0.5;entryDx=0;entryDy=0;exitX=1;exitY=0.5;exitDx=0;exitDy=0;labelBackgroundColor=#ffffff;endArrow=classicThin;strokeColor=#4277BB;fontColor=#000000;strokeWidth=2;endSize=4;startSize=4;startArrow=none;startFill=0;endFill=1;" parent="nTN8sJjoOhgb6UXOudAq-11" edge="1">
          <mxGeometry relative="1" as="geometry">
            <mxPoint x="540" y="280" as="sourcePoint" />
            <mxPoint x="670" y="280" as="targetPoint" />
          </mxGeometry>
        </mxCell>
        <mxCell id="rxHLFNSxN-ANhz3IYRMf-222" style="edgeStyle=orthogonalEdgeStyle;rounded=1;orthogonalLoop=1;jettySize=auto;html=1;labelBackgroundColor=#ffffff;endArrow=classicThin;strokeColor=#4277BB;fontColor=#000000;strokeWidth=2;endSize=4;startSize=4;startArrow=none;startFill=0;endFill=1;" parent="nTN8sJjoOhgb6UXOudAq-11" edge="1">
          <mxGeometry relative="1" as="geometry">
            <mxPoint x="710" y="320" as="sourcePoint" />
            <mxPoint x="710" y="420" as="targetPoint" />
          </mxGeometry>
        </mxCell>
        <mxCell id="rxHLFNSxN-ANhz3IYRMf-61" value="Legend" style="" parent="nTN8sJjoOhgb6UXOudAq-0" />
        <mxCell id="rxHLFNSxN-ANhz3IYRMf-151" value="&lt;p style=&quot;line-height: 100%;&quot;&gt;&lt;font style=&quot;font-weight: normal; font-size: 9px;&quot; color=&quot;#4277bb&quot;&gt;&amp;nbsp; &amp;nbsp;Build a system to crawl news from sources following the requirements.&lt;/font&gt;&lt;br&gt;&lt;/p&gt;" style="rounded=1;whiteSpace=wrap;html=1;align=left;spacingLeft=10;labelBorderColor=none;labelBackgroundColor=none;fillColor=none;dashed=1;strokeColor=#4277BB;fontColor=#000000;fontStyle=1;startSize=0;shadow=0;gradientColor=none;strokeWidth=1;swimlaneFillColor=none;opacity=50;spacing=0;" parent="rxHLFNSxN-ANhz3IYRMf-61" vertex="1">
          <mxGeometry x="835" y="65" width="295" height="30" as="geometry" />
        </mxCell>
        <mxCell id="rxHLFNSxN-ANhz3IYRMf-152" value="&lt;p style=&quot;line-height: 100%; font-size: 9px;&quot;&gt;&lt;font style=&quot;font-size: 9px; font-weight: normal;&quot; color=&quot;#4277bb&quot;&gt;&amp;nbsp; &amp;nbsp;Build a database system to store crawled news, customer taste, news summary, news labels, news recommendation, log system.&lt;/font&gt;&lt;br style=&quot;font-size: 9px;&quot;&gt;&lt;/p&gt;" style="rounded=1;whiteSpace=wrap;html=1;align=left;spacingLeft=10;labelBorderColor=none;labelBackgroundColor=none;fillColor=none;dashed=1;strokeColor=#4277BB;fontColor=#000000;fontStyle=1;startSize=0;shadow=0;gradientColor=none;strokeWidth=1;swimlaneFillColor=none;opacity=50;spacing=0;fontSize=9;" parent="rxHLFNSxN-ANhz3IYRMf-61" vertex="1">
          <mxGeometry x="835" y="105" width="295" height="30" as="geometry" />
        </mxCell>
        <mxCell id="rxHLFNSxN-ANhz3IYRMf-153" value="&lt;p style=&quot;line-height: 100%; font-size: 9px;&quot;&gt;&lt;font style=&quot;font-weight: normal; font-size: 9px;&quot; color=&quot;#4277bb&quot;&gt;&amp;nbsp; &amp;nbsp;Build an AI model that summarizes crawled news, following the requirements for accuracy and summary text length.&lt;/font&gt;&lt;br style=&quot;font-size: 9px;&quot;&gt;&lt;/p&gt;" style="rounded=1;whiteSpace=wrap;html=1;align=left;spacingLeft=10;labelBorderColor=none;labelBackgroundColor=none;fillColor=none;dashed=1;strokeColor=#4277BB;fontColor=#000000;fontStyle=1;startSize=0;shadow=0;gradientColor=none;strokeWidth=1;swimlaneFillColor=none;opacity=50;spacing=0;fontSize=9;" parent="rxHLFNSxN-ANhz3IYRMf-61" vertex="1">
          <mxGeometry x="835" y="145" width="295" height="30" as="geometry" />
        </mxCell>
        <mxCell id="rxHLFNSxN-ANhz3IYRMf-154" value="&lt;p style=&quot;line-height: 100%; font-size: 9px;&quot;&gt;&lt;font style=&quot;font-weight: normal; font-size: 9px;&quot; color=&quot;#4277bb&quot;&gt;&amp;nbsp; &amp;nbsp;Build an AI model to classify news into different groups of labels according to requirements and pre-existing labels.&lt;/font&gt;&lt;br style=&quot;font-size: 9px;&quot;&gt;&lt;/p&gt;" style="rounded=1;whiteSpace=wrap;html=1;align=left;spacingLeft=10;labelBorderColor=none;labelBackgroundColor=none;fillColor=none;dashed=1;strokeColor=#4277BB;fontColor=#000000;fontStyle=1;startSize=0;shadow=0;gradientColor=none;strokeWidth=1;swimlaneFillColor=none;opacity=50;spacing=0;fontSize=9;" parent="rxHLFNSxN-ANhz3IYRMf-61" vertex="1">
          <mxGeometry x="835" y="185" width="295" height="30" as="geometry" />
        </mxCell>
        <mxCell id="rxHLFNSxN-ANhz3IYRMf-157" value="&lt;p style=&quot;line-height: 100%; font-size: 9px;&quot;&gt;&lt;font style=&quot;font-weight: normal; font-size: 9px;&quot; color=&quot;#4277bb&quot;&gt;&amp;nbsp; &amp;nbsp;Build a model to determine customer taste profile based on usage behavior and habits.&lt;/font&gt;&lt;br style=&quot;font-size: 9px;&quot;&gt;&lt;/p&gt;" style="rounded=1;whiteSpace=wrap;html=1;align=left;spacingLeft=10;labelBorderColor=none;labelBackgroundColor=none;fillColor=none;dashed=1;strokeColor=#4277BB;fontColor=#000000;fontStyle=1;startSize=0;shadow=0;gradientColor=none;strokeWidth=1;swimlaneFillColor=none;opacity=50;spacing=0;fontSize=9;" parent="rxHLFNSxN-ANhz3IYRMf-61" vertex="1">
          <mxGeometry x="835" y="255" width="295" height="30" as="geometry" />
        </mxCell>
        <mxCell id="rxHLFNSxN-ANhz3IYRMf-158" value="&lt;p style=&quot;line-height: 100%; font-size: 9px;&quot;&gt;&lt;font style=&quot;font-weight: normal; font-size: 9px;&quot; color=&quot;#4277bb&quot;&gt;&amp;nbsp; &amp;nbsp;Build a system to record customer feedback from news reading behavior and habits.&lt;/font&gt;&lt;br style=&quot;font-size: 9px;&quot;&gt;&lt;/p&gt;" style="rounded=1;whiteSpace=wrap;html=1;align=left;spacingLeft=10;labelBorderColor=none;labelBackgroundColor=none;fillColor=none;dashed=1;strokeColor=#4277BB;fontColor=#000000;fontStyle=1;startSize=0;shadow=0;gradientColor=none;strokeWidth=1;swimlaneFillColor=none;opacity=50;spacing=0;fontSize=9;" parent="rxHLFNSxN-ANhz3IYRMf-61" vertex="1">
          <mxGeometry x="835" y="295" width="295" height="30" as="geometry" />
        </mxCell>
        <mxCell id="rxHLFNSxN-ANhz3IYRMf-159" value="&lt;p style=&quot;line-height: 100%; font-size: 9px;&quot;&gt;&lt;font style=&quot;font-size: 9px;&quot; color=&quot;#4277bb&quot;&gt;&amp;nbsp; &amp;nbsp;&lt;span style=&quot;font-weight: normal; font-size: 9px;&quot;&gt;Build ML model that scoring the r&lt;span style=&quot;font-size: 9px;&quot;&gt;elevance of news to each customer&lt;/span&gt;&lt;span style=&quot;font-size: 9px;&quot;&gt;.&lt;/span&gt;&lt;/span&gt;&lt;/font&gt;&lt;br style=&quot;font-size: 9px;&quot;&gt;&lt;/p&gt;" style="rounded=1;whiteSpace=wrap;html=1;align=left;spacingLeft=10;labelBorderColor=none;labelBackgroundColor=none;fillColor=none;dashed=1;strokeColor=#4277BB;fontColor=#000000;fontStyle=1;startSize=0;shadow=0;gradientColor=none;strokeWidth=1;swimlaneFillColor=none;opacity=50;spacing=0;fontSize=9;" parent="rxHLFNSxN-ANhz3IYRMf-61" vertex="1">
          <mxGeometry x="835" y="225" width="295" height="20" as="geometry" />
        </mxCell>
        <mxCell id="rxHLFNSxN-ANhz3IYRMf-160" value="&lt;p style=&quot;line-height: 100%; font-size: 9px;&quot;&gt;&lt;font style=&quot;font-weight: normal; font-size: 9px;&quot; color=&quot;#4277bb&quot;&gt;&amp;nbsp; &amp;nbsp;Build a news recommendation system that base on news scoring.&lt;/font&gt;&lt;br style=&quot;font-size: 9px;&quot;&gt;&lt;/p&gt;" style="rounded=1;whiteSpace=wrap;html=1;align=left;spacingLeft=10;labelBorderColor=none;labelBackgroundColor=none;fillColor=none;dashed=1;strokeColor=#4277BB;fontColor=#000000;fontStyle=1;startSize=0;shadow=0;gradientColor=none;strokeWidth=1;swimlaneFillColor=none;opacity=50;spacing=0;fontSize=9;" parent="rxHLFNSxN-ANhz3IYRMf-61" vertex="1">
          <mxGeometry x="835" y="335" width="295" height="20" as="geometry" />
        </mxCell>
        <mxCell id="rxHLFNSxN-ANhz3IYRMf-162" value="&lt;p style=&quot;line-height: 100%; font-size: 9px;&quot;&gt;&lt;font style=&quot;font-weight: normal; font-size: 9px;&quot; color=&quot;#4277bb&quot;&gt;&amp;nbsp; &amp;nbsp;Provide a requirement for the news crawl system: frequency, operating time, number of data sources, data information, list of news scources,...&lt;/font&gt;&lt;br style=&quot;font-size: 9px;&quot;&gt;&lt;/p&gt;" style="rounded=1;whiteSpace=wrap;html=1;align=left;spacingLeft=10;labelBorderColor=none;labelBackgroundColor=none;fillColor=none;dashed=1;strokeColor=#4277BB;fontColor=#000000;fontStyle=1;startSize=0;shadow=0;gradientColor=none;strokeWidth=1;swimlaneFillColor=none;opacity=50;spacing=0;fontSize=9;" parent="rxHLFNSxN-ANhz3IYRMf-61" vertex="1">
          <mxGeometry x="835" y="390" width="295" height="45" as="geometry" />
        </mxCell>
        <mxCell id="rxHLFNSxN-ANhz3IYRMf-163" value="&lt;p style=&quot;line-height: 100%; font-size: 9px;&quot;&gt;&lt;font style=&quot;font-size: 9px;&quot; color=&quot;#4277bb&quot;&gt;&lt;font style=&quot;font-size: 9px;&quot;&gt;&amp;nbsp; &amp;nbsp;&lt;span style=&quot;font-weight: 400; font-size: 9px;&quot;&gt;Research your competitors&#39; news systems and make requests to the news systems, the delivery channels for customers, frequency of AI system operations and news recommendation.&lt;/span&gt;&lt;span style=&quot;font-weight: normal; font-size: 9px;&quot;&gt;&amp;nbsp;&lt;/span&gt;&lt;/font&gt;&lt;/font&gt;&lt;br style=&quot;font-size: 9px;&quot;&gt;&lt;/p&gt;" style="rounded=1;whiteSpace=wrap;html=1;align=left;spacingLeft=10;labelBorderColor=none;labelBackgroundColor=none;fillColor=none;dashed=1;strokeColor=#4277BB;fontColor=#000000;fontStyle=1;startSize=0;shadow=0;gradientColor=none;strokeWidth=1;swimlaneFillColor=none;opacity=50;spacing=0;fontSize=9;" parent="rxHLFNSxN-ANhz3IYRMf-61" vertex="1">
          <mxGeometry x="835" y="445" width="295" height="45" as="geometry" />
        </mxCell>
        <mxCell id="rxHLFNSxN-ANhz3IYRMf-165" value="&lt;p style=&quot;line-height: 100%;&quot;&gt;&lt;font style=&quot;font-weight: normal;&quot; color=&quot;#4277bb&quot;&gt;&amp;nbsp; &amp;nbsp;Make a requirement of how to display news content on the app according to regulations, what information from the news is allowed to be used and delivered to customers&lt;/font&gt;&lt;br style=&quot;font-size: 9px;&quot;&gt;&lt;/p&gt;" style="rounded=1;whiteSpace=wrap;html=1;align=left;spacingLeft=10;labelBorderColor=none;labelBackgroundColor=none;fillColor=none;dashed=1;strokeColor=#4277BB;fontColor=#000000;fontStyle=1;startSize=0;shadow=0;gradientColor=none;strokeWidth=1;swimlaneFillColor=none;opacity=50;spacing=0;fontSize=9;" parent="rxHLFNSxN-ANhz3IYRMf-61" vertex="1">
          <mxGeometry x="835" y="520" width="295" height="45" as="geometry" />
        </mxCell>
        <mxCell id="rxHLFNSxN-ANhz3IYRMf-168" value="&lt;p style=&quot;line-height: 100%; font-size: 9px;&quot;&gt;&lt;font style=&quot;font-weight: normal;&quot; color=&quot;#4277bb&quot;&gt;&amp;nbsp; &amp;nbsp;Label for the training data and re-correct labels for fine-tune model: by categories, by sectors, by sentiments, by impact&lt;/font&gt;&lt;span style=&quot;font-weight: normal; color: rgb(66, 119, 187); background-color: initial;&quot;&gt;&amp;nbsp;levels,&lt;/span&gt;&lt;/p&gt;" style="rounded=1;whiteSpace=wrap;html=1;align=left;spacingLeft=10;labelBorderColor=none;labelBackgroundColor=none;fillColor=none;dashed=1;strokeColor=#4277BB;fontColor=#000000;fontStyle=1;startSize=0;shadow=0;gradientColor=none;strokeWidth=1;swimlaneFillColor=none;opacity=50;spacing=0;fontSize=9;" parent="rxHLFNSxN-ANhz3IYRMf-61" vertex="1">
          <mxGeometry x="835" y="600" width="295" height="30" as="geometry" />
        </mxCell>
        <mxCell id="rxHLFNSxN-ANhz3IYRMf-174" value="&lt;p style=&quot;line-height: 100%; font-size: 9px;&quot;&gt;&lt;font color=&quot;#4277bb&quot;&gt;&lt;span style=&quot;font-weight: 400;&quot;&gt;&amp;nbsp; &amp;nbsp;Build feaure to get feedback from read news behaviors and tracking statistics of reading news.&amp;nbsp;&lt;/span&gt;&lt;/font&gt;&lt;/p&gt;" style="rounded=1;whiteSpace=wrap;html=1;align=left;spacingLeft=10;labelBorderColor=none;labelBackgroundColor=none;fillColor=none;dashed=1;strokeColor=#4277BB;fontColor=#000000;fontStyle=1;startSize=0;shadow=0;gradientColor=none;strokeWidth=1;swimlaneFillColor=none;opacity=50;spacing=0;fontSize=9;" parent="rxHLFNSxN-ANhz3IYRMf-61" vertex="1">
          <mxGeometry x="835" y="756" width="295" height="30" as="geometry" />
        </mxCell>
        <mxCell id="rxHLFNSxN-ANhz3IYRMf-191" value="&lt;p style=&quot;line-height: 100%; font-size: 9px;&quot;&gt;&lt;font style=&quot;font-weight: normal;&quot; color=&quot;#4277bb&quot;&gt;&amp;nbsp; &amp;nbsp;Re-correct outputs of summary model to fine-tune model.&lt;/font&gt;&lt;/p&gt;" style="rounded=1;whiteSpace=wrap;html=1;align=left;spacingLeft=10;labelBorderColor=none;labelBackgroundColor=none;fillColor=none;dashed=1;strokeColor=#4277BB;fontColor=#000000;fontStyle=1;startSize=0;shadow=0;gradientColor=none;strokeWidth=1;swimlaneFillColor=none;opacity=50;spacing=0;fontSize=9;" parent="rxHLFNSxN-ANhz3IYRMf-61" vertex="1">
          <mxGeometry x="835" y="640" width="295" height="20" as="geometry" />
        </mxCell>
        <mxCell id="nTN8sJjoOhgb6UXOudAq-50" value="component" style="" parent="nTN8sJjoOhgb6UXOudAq-0" />
        <mxCell id="nTN8sJjoOhgb6UXOudAq-55" value="NEWS RECOMMENDATION ENGINE" style="image;aspect=fixed;perimeter=ellipsePerimeter;html=1;align=center;shadow=0;dashed=0;fontColor=#4277BB;labelBackgroundColor=#f7f7f7;fontSize=12;spacingTop=3;image=img/lib/ibm/devops/build_test.svg;fillColor=#FFFF66;strokeColor=#FF0000;gradientColor=none;container=0;" parent="nTN8sJjoOhgb6UXOudAq-50" vertex="1">
          <mxGeometry x="468" y="240" width="80" height="80" as="geometry" />
        </mxCell>
        <UserObject label="CLASSIFIER" tooltip="The Machine Learning Classification Module leverages machine learning algorithms to categorize news articles into predefined topics or classes based on their content, enabling personalized content recommendations and targeted user engagement. &#xa;&#xa;Label &amp; tags news:&#xa;- By categories: `Stock market`, `International`, `Macro`, `Life style`,  `Events `, `Others` &#xa;- By sector: 19 sectors&#xa;- By sentiments: `Positive`, `Negative`, `Neutral" id="nTN8sJjoOhgb6UXOudAq-61">
          <mxCell style="image;aspect=fixed;perimeter=ellipsePerimeter;html=1;align=center;shadow=0;dashed=0;fontColor=#4277BB;labelBackgroundColor=#f7f7f7;fontSize=12;spacingTop=3;image=img/lib/ibm/vpc/LoadBalancer.svg;fillColor=#FFFF66;strokeColor=#FF0000;gradientColor=none;container=0;" parent="nTN8sJjoOhgb6UXOudAq-50" vertex="1">
            <mxGeometry x="260" y="420" width="80" height="80" as="geometry" />
          </mxCell>
        </UserObject>
        <UserObject label="&lt;span style=&quot;color: rgb(66, 119, 187); font-family: Helvetica; font-size: 12px; font-style: normal; font-variant-ligatures: normal; font-variant-caps: normal; font-weight: 400; letter-spacing: normal; orphans: 2; text-align: center; text-indent: 0px; text-transform: none; widows: 2; word-spacing: 0px; -webkit-text-stroke-width: 0px; background-color: rgb(251, 251, 251); text-decoration-thickness: initial; text-decoration-style: initial; text-decoration-color: initial; float: none; display: inline !important;&quot;&gt;NEWS SCORING&lt;/span&gt;" tooltip="Estimate the interest of input news for each customer, thereby providing a list of news that is likely to be of interest to customers." id="nTN8sJjoOhgb6UXOudAq-62">
          <mxCell style="image;aspect=fixed;perimeter=ellipsePerimeter;html=1;align=center;shadow=0;dashed=0;fontColor=#4277BB;labelBackgroundColor=#f7f7f7;fontSize=12;spacingTop=3;image=img/lib/ibm/vpc/Rules.svg;fillColor=#FFFF66;strokeColor=#FF0000;gradientColor=none;container=0;" parent="nTN8sJjoOhgb6UXOudAq-50" vertex="1">
            <mxGeometry x="260" y="240" width="80" height="80" as="geometry" />
          </mxCell>
        </UserObject>
        <UserObject label="" tooltip="The AI Summarization Module employs natural language processing (NLP) techniques and machine learning algorithms to condense lengthy news articles into concise summaries while preserving key information and main points. It aims to provide users with quick and informative overviews of news content, facilitating efficient consumption and decision-making." id="nTN8sJjoOhgb6UXOudAq-63">
          <mxCell style="image;aspect=fixed;perimeter=ellipsePerimeter;html=1;align=left;shadow=0;dashed=0;fontColor=#4277BB;labelBackgroundColor=#f7f7f7;fontSize=12;spacingTop=3;image=img/lib/ibm/vpc/ObjectStorage.svg;fillColor=#FFFF66;strokeColor=#FF0000;gradientColor=none;container=0;labelPosition=right;verticalLabelPosition=middle;verticalAlign=middle;" parent="nTN8sJjoOhgb6UXOudAq-50" vertex="1">
            <mxGeometry x="830" y="635" width="20" height="20" as="geometry" />
          </mxCell>
        </UserObject>
        <mxCell id="nTN8sJjoOhgb6UXOudAq-64" value="NEWS CRAWLER" style="image;aspect=fixed;perimeter=ellipsePerimeter;html=1;align=center;shadow=0;dashed=0;fontColor=#4277BB;labelBackgroundColor=#f7f7f7;fontSize=12;spacingTop=3;image=img/lib/ibm/applications/saas_applications.svg;fillColor=#FFFF66;strokeColor=#FF0000;gradientColor=none;container=0;" parent="nTN8sJjoOhgb6UXOudAq-50" vertex="1">
          <mxGeometry x="80" y="110" width="80" height="80" as="geometry" />
        </mxCell>
        <UserObject label="CUSTOMER PREFERENCES" tooltip="Analyze historical data and user interactions to create individual taste profiles for each customer." id="nTN8sJjoOhgb6UXOudAq-67">
          <mxCell style="image;aspect=fixed;perimeter=ellipsePerimeter;html=1;align=center;shadow=0;dashed=0;fontColor=#4277BB;labelBackgroundColor=#f7f7f7;fontSize=12;spacingTop=3;image=img/lib/ibm/social/networking.svg;fillColor=#FFFF66;strokeColor=#FF0000;gradientColor=none;container=0;" parent="nTN8sJjoOhgb6UXOudAq-50" vertex="1">
            <mxGeometry x="260" y="610" width="80" height="80" as="geometry" />
          </mxCell>
        </UserObject>
        <UserObject label="SYSTEM &lt;br&gt;REQUIREMENT" tooltip=" Crawling sources: &#xa;&#x9;- How many sources need to be configured to perform the crawl?&#xa;&#x9;- Which sources are allowed to crawl news?&#xa;&#x9;- Which sources are allowed to use the news article&#39;s URL link to display on the app?&#xa;&#x9;- Which sources are allowed to embed URL links on the app?&#xa;- Crawling SLA includes:&#xa;&#x9;- Crawl time frequency &#xa;&#x9;- Crawl performance&#xa;&#x9;- Maximum error occurrence frequency requirement&#xa;- SLA for a customer API request to receive a list of suggested news." id="nTN8sJjoOhgb6UXOudAq-69">
          <mxCell style="aspect=fixed;perimeter=ellipsePerimeter;align=center;shadow=0;dashed=0;image;image=img/lib/ibm/management/information_governance.svg;strokeColor=#FF0000;fillColor=#FFFF66;gradientColor=none;fontColor=#4277BB;labelBackgroundColor=#f7f7f7;spacingTop=3;html=1;container=0;" parent="nTN8sJjoOhgb6UXOudAq-50" vertex="1">
            <mxGeometry x="80" y="610" width="80" height="80" as="geometry" />
          </mxCell>
        </UserObject>
        <UserObject label="DATA SYSTEM" tooltip="Stores the crawled news articles along their meta data, such as: title, content, tags, categories, publication date, source information, ingestion time and relevant attributes&#xa;&#xa;Backup and Recovery:&#xa;- Set up regular backups and disaster recovery mechanisms to ensure data integrity and availability.&#xa;- Test backup and recovery procedures periodically to validate their effectiveness." id="nTN8sJjoOhgb6UXOudAq-78">
          <mxCell style="image;aspect=fixed;perimeter=ellipsePerimeter;html=1;align=center;shadow=0;dashed=0;fontColor=#4277BB;labelBackgroundColor=#f7f7f7;fontSize=12;spacingTop=3;image=img/lib/ibm/data/data_services.svg;fillColor=#FFFF66;strokeColor=#FF0000;gradientColor=none;" parent="nTN8sJjoOhgb6UXOudAq-50" vertex="1">
            <mxGeometry x="80" y="360" width="80" height="80" as="geometry" />
          </mxCell>
        </UserObject>
        <UserObject label="FEEDBACK LOOP" tooltip="Get infomation of feedback interaction of customer with news that they read, then fine-tunning news score model" id="nTN8sJjoOhgb6UXOudAq-79">
          <mxCell style="image;aspect=fixed;perimeter=ellipsePerimeter;html=1;align=center;shadow=0;dashed=0;fontColor=#4277BB;labelBackgroundColor=#f7f7f7;fontSize=12;spacingTop=3;image=img/lib/ibm/social/live_collaboration.svg;fillColor=#FFFF66;strokeColor=#FF0000;gradientColor=none;verticalAlign=top;labelPosition=center;verticalLabelPosition=bottom;container=0;" parent="nTN8sJjoOhgb6UXOudAq-50" vertex="1">
            <mxGeometry x="468" y="610" width="80" height="80" as="geometry" />
          </mxCell>
        </UserObject>
        <mxCell id="rxHLFNSxN-ANhz3IYRMf-155" style="edgeStyle=orthogonalEdgeStyle;rounded=0;orthogonalLoop=1;jettySize=auto;html=1;endArrow=none;endFill=0;strokeColor=#3977b7;strokeWidth=2;opacity=80;" parent="nTN8sJjoOhgb6UXOudAq-50" source="rxHLFNSxN-ANhz3IYRMf-131" edge="1">
          <mxGeometry relative="1" as="geometry">
            <mxPoint x="1130" y="47" as="targetPoint" />
            <Array as="points">
              <mxPoint x="970" y="47" />
              <mxPoint x="1055" y="47" />
            </Array>
          </mxGeometry>
        </mxCell>
        <mxCell id="rxHLFNSxN-ANhz3IYRMf-131" value="DA" style="rounded=1;whiteSpace=wrap;html=1;strokeWidth=2;strokeColor=#d79b00;fillColor=#ffe6cc;fontStyle=1;fontSize=12;labelBorderColor=none;" parent="nTN8sJjoOhgb6UXOudAq-50" vertex="1">
          <mxGeometry x="835" y="40" width="30" height="15" as="geometry" />
        </mxCell>
        <mxCell id="rxHLFNSxN-ANhz3IYRMf-161" style="edgeStyle=orthogonalEdgeStyle;rounded=0;orthogonalLoop=1;jettySize=auto;html=1;endArrow=none;strokeColor=#3977b7;endFill=0;strokeWidth=2;opacity=80;" parent="nTN8sJjoOhgb6UXOudAq-50" edge="1">
          <mxGeometry relative="1" as="geometry">
            <mxPoint x="1130" y="375" as="targetPoint" />
            <mxPoint x="865" y="373.48571428571427" as="sourcePoint" />
            <Array as="points">
              <mxPoint x="960" y="373" />
              <mxPoint x="1055" y="373" />
            </Array>
          </mxGeometry>
        </mxCell>
        <mxCell id="rxHLFNSxN-ANhz3IYRMf-132" value="SPD" style="rounded=1;whiteSpace=wrap;html=1;strokeWidth=2;strokeColor=#9673a6;fillColor=#e1d5e7;fontStyle=1;fontSize=12;labelBorderColor=none;" parent="nTN8sJjoOhgb6UXOudAq-50" vertex="1">
          <mxGeometry x="835" y="365" width="30" height="15" as="geometry" />
        </mxCell>
        <mxCell id="rxHLFNSxN-ANhz3IYRMf-164" style="edgeStyle=orthogonalEdgeStyle;rounded=0;orthogonalLoop=1;jettySize=auto;html=1;endArrow=none;strokeColor=#3977b7;endFill=0;strokeWidth=2;opacity=80;" parent="nTN8sJjoOhgb6UXOudAq-50" source="rxHLFNSxN-ANhz3IYRMf-133" edge="1">
          <mxGeometry relative="1" as="geometry">
            <mxPoint x="1130" y="503" as="targetPoint" />
            <Array as="points">
              <mxPoint x="970" y="503" />
              <mxPoint x="1055" y="503" />
            </Array>
          </mxGeometry>
        </mxCell>
        <mxCell id="rxHLFNSxN-ANhz3IYRMf-133" value="LEGAL" style="rounded=1;whiteSpace=wrap;html=1;strokeWidth=2;strokeColor=#b85450;fillColor=#f8cecc;fontStyle=1;fontSize=12;labelBorderColor=none;" parent="nTN8sJjoOhgb6UXOudAq-50" vertex="1">
          <mxGeometry x="835" y="495" width="50" height="15" as="geometry" />
        </mxCell>
        <UserObject label="" tooltip="Get infomation of feedback interaction of customer with news that they read, then fine-tunning news score model" id="rxHLFNSxN-ANhz3IYRMf-137">
          <mxCell style="image;aspect=fixed;perimeter=ellipsePerimeter;html=1;align=left;shadow=0;dashed=0;fontColor=#4277BB;labelBackgroundColor=#f7f7f7;fontSize=12;spacingTop=3;image=img/lib/ibm/social/live_collaboration.svg;fillColor=#FFFF66;strokeColor=#FF0000;gradientColor=none;verticalAlign=middle;labelPosition=right;verticalLabelPosition=middle;container=0;" parent="nTN8sJjoOhgb6UXOudAq-50" vertex="1">
            <mxGeometry x="830" y="751" width="20" height="20" as="geometry" />
          </mxCell>
        </UserObject>
        <mxCell id="rxHLFNSxN-ANhz3IYRMf-138" value="" style="image;aspect=fixed;perimeter=ellipsePerimeter;html=1;align=left;shadow=0;dashed=0;fontColor=#4277BB;labelBackgroundColor=#f7f7f7;fontSize=12;spacingTop=3;image=img/lib/ibm/applications/saas_applications.svg;fillColor=#FFFF66;strokeColor=#FF0000;gradientColor=none;container=0;labelPosition=right;verticalLabelPosition=middle;verticalAlign=top;" parent="nTN8sJjoOhgb6UXOudAq-50" vertex="1">
          <mxGeometry x="830" y="59" width="20" height="20" as="geometry" />
        </mxCell>
        <mxCell id="rxHLFNSxN-ANhz3IYRMf-167" style="edgeStyle=orthogonalEdgeStyle;rounded=0;orthogonalLoop=1;jettySize=auto;html=1;endArrow=none;strokeColor=#3977b7;endFill=0;strokeWidth=2;opacity=80;" parent="nTN8sJjoOhgb6UXOudAq-50" source="rxHLFNSxN-ANhz3IYRMf-139" edge="1">
          <mxGeometry relative="1" as="geometry">
            <mxPoint x="1130" y="585" as="targetPoint" />
            <Array as="points">
              <mxPoint x="960" y="583" />
              <mxPoint x="1055" y="583" />
            </Array>
          </mxGeometry>
        </mxCell>
        <mxCell id="rxHLFNSxN-ANhz3IYRMf-139" value="BIZ" style="rounded=1;whiteSpace=wrap;html=1;strokeWidth=2;strokeColor=#6c8ebf;fillColor=#dae8fc;fontStyle=1;fontSize=12;labelBorderColor=none;" parent="nTN8sJjoOhgb6UXOudAq-50" vertex="1">
          <mxGeometry x="835" y="575" width="30" height="15" as="geometry" />
        </mxCell>
        <UserObject label="" tooltip="Stores the crawled news articles along their meta data, such as: title, content, tags, categories, publication date, source information, ingestion time and relevant attributes&#xa;&#xa;Backup and Recovery:&#xa;- Set up regular backups and disaster recovery mechanisms to ensure data integrity and availability.&#xa;- Test backup and recovery procedures periodically to validate their effectiveness." id="rxHLFNSxN-ANhz3IYRMf-140">
          <mxCell style="image;aspect=fixed;perimeter=ellipsePerimeter;html=1;align=left;shadow=0;dashed=0;fontColor=#4277BB;labelBackgroundColor=#f7f7f7;fontSize=12;spacingTop=0;image=img/lib/ibm/data/data_services.svg;fillColor=#FFFF66;strokeColor=#FF0000;gradientColor=none;labelPosition=right;verticalLabelPosition=bottom;verticalAlign=middle;horizontal=1;spacing=0;" parent="nTN8sJjoOhgb6UXOudAq-50" vertex="1">
            <mxGeometry x="830" y="100" width="20" height="20" as="geometry" />
          </mxCell>
        </UserObject>
        <UserObject label="" tooltip=" Crawling sources: &#xa;&#x9;- How many sources need to be configured to perform the crawl?&#xa;&#x9;- Which sources are allowed to crawl news?&#xa;&#x9;- Which sources are allowed to use the news article&#39;s URL link to display on the app?&#xa;&#x9;- Which sources are allowed to embed URL links on the app?&#xa;- Crawling SLA includes:&#xa;&#x9;- Crawl time frequency &#xa;&#x9;- Crawl performance&#xa;&#x9;- Maximum error occurrence frequency requirement&#xa;- SLA for a customer API request to receive a list of suggested news." id="rxHLFNSxN-ANhz3IYRMf-141">
          <mxCell style="aspect=fixed;perimeter=ellipsePerimeter;align=left;shadow=0;dashed=0;image;image=img/lib/ibm/management/information_governance.svg;strokeColor=#FF0000;fillColor=#FFFF66;gradientColor=none;fontColor=#4277BB;labelBackgroundColor=#f7f7f7;spacingTop=3;html=1;container=0;labelPosition=right;verticalLabelPosition=middle;verticalAlign=middle;" parent="nTN8sJjoOhgb6UXOudAq-50" vertex="1">
            <mxGeometry x="830" y="440" width="20" height="20" as="geometry" />
          </mxCell>
        </UserObject>
        <UserObject label="" tooltip="The Machine Learning Classification Module leverages machine learning algorithms to categorize news articles into predefined topics or classes based on their content, enabling personalized content recommendations and targeted user engagement. &#xa;&#xa;Label &amp; tags news:&#xa;- By categories: `Stock market`, `International`, `Macro`, `Life style`,  `Events `, `Others` &#xa;- By sector: 19 sectors&#xa;- By sentiments: `Positive`, `Negative`, `Neutral" id="rxHLFNSxN-ANhz3IYRMf-142">
          <mxCell style="image;aspect=fixed;perimeter=ellipsePerimeter;html=1;align=left;shadow=0;dashed=0;fontColor=#4277BB;labelBackgroundColor=#f7f7f7;fontSize=12;spacingTop=3;image=img/lib/ibm/vpc/LoadBalancer.svg;fillColor=#FFFF66;strokeColor=#FF0000;gradientColor=none;container=0;labelPosition=right;verticalLabelPosition=middle;verticalAlign=middle;" parent="nTN8sJjoOhgb6UXOudAq-50" vertex="1">
            <mxGeometry x="830" y="595" width="20" height="20" as="geometry" />
          </mxCell>
        </UserObject>
        <UserObject label="" tooltip="The AI Summarization Module employs natural language processing (NLP) techniques and machine learning algorithms to condense lengthy news articles into concise summaries while preserving key information and main points. It aims to provide users with quick and informative overviews of news content, facilitating efficient consumption and decision-making." id="rxHLFNSxN-ANhz3IYRMf-143">
          <mxCell style="image;aspect=fixed;perimeter=ellipsePerimeter;html=1;align=left;shadow=0;dashed=0;fontColor=#4277BB;labelBackgroundColor=#f7f7f7;fontSize=12;spacingTop=3;image=img/lib/ibm/vpc/ObjectStorage.svg;fillColor=#FFFF66;strokeColor=#FF0000;gradientColor=none;container=0;labelPosition=right;verticalLabelPosition=middle;verticalAlign=middle;" parent="nTN8sJjoOhgb6UXOudAq-50" vertex="1">
            <mxGeometry x="830" y="140" width="20" height="20" as="geometry" />
          </mxCell>
        </UserObject>
        <UserObject label="" tooltip="Estimate the interest of input news for each customer, thereby providing a list of news that is likely to be of interest to customers." id="rxHLFNSxN-ANhz3IYRMf-144">
          <mxCell style="image;aspect=fixed;perimeter=ellipsePerimeter;html=1;align=left;shadow=0;dashed=0;fontColor=#4277BB;labelBackgroundColor=#f7f7f7;fontSize=12;spacingTop=3;image=img/lib/ibm/vpc/Rules.svg;fillColor=#FFFF66;strokeColor=#FF0000;gradientColor=none;container=0;labelPosition=right;verticalLabelPosition=middle;verticalAlign=middle;" parent="nTN8sJjoOhgb6UXOudAq-50" vertex="1">
            <mxGeometry x="830" y="220" width="20" height="20" as="geometry" />
          </mxCell>
        </UserObject>
        <UserObject label="" tooltip="The Machine Learning Classification Module leverages machine learning algorithms to categorize news articles into predefined topics or classes based on their content, enabling personalized content recommendations and targeted user engagement. &#xa;&#xa;Label &amp; tags news:&#xa;- By categories: `Stock market`, `International`, `Macro`, `Life style`,  `Events `, `Others` &#xa;- By sector: 19 sectors&#xa;- By sentiments: `Positive`, `Negative`, `Neutral" id="rxHLFNSxN-ANhz3IYRMf-145">
          <mxCell style="image;aspect=fixed;perimeter=ellipsePerimeter;html=1;align=left;shadow=0;dashed=0;fontColor=#4277BB;labelBackgroundColor=#f7f7f7;fontSize=12;spacingTop=3;image=img/lib/ibm/vpc/LoadBalancer.svg;fillColor=#FFFF66;strokeColor=#FF0000;gradientColor=none;container=0;labelPosition=right;verticalLabelPosition=middle;verticalAlign=middle;" parent="nTN8sJjoOhgb6UXOudAq-50" vertex="1">
            <mxGeometry x="830" y="180" width="20" height="20" as="geometry" />
          </mxCell>
        </UserObject>
        <UserObject label="" tooltip="Analyze historical data and user interactions to create individual taste profiles for each customer." id="rxHLFNSxN-ANhz3IYRMf-146">
          <mxCell style="image;aspect=fixed;perimeter=ellipsePerimeter;html=1;align=left;shadow=0;dashed=0;fontColor=#4277BB;labelBackgroundColor=#f7f7f7;fontSize=12;spacingTop=3;image=img/lib/ibm/social/networking.svg;fillColor=#FFFF66;strokeColor=#FF0000;gradientColor=none;container=0;labelPosition=right;verticalLabelPosition=middle;verticalAlign=middle;" parent="nTN8sJjoOhgb6UXOudAq-50" vertex="1">
            <mxGeometry x="830" y="250" width="20" height="20" as="geometry" />
          </mxCell>
        </UserObject>
        <UserObject label="" tooltip="Get infomation of feedback interaction of customer with news that they read, then fine-tunning news score model" id="rxHLFNSxN-ANhz3IYRMf-147">
          <mxCell style="image;aspect=fixed;perimeter=ellipsePerimeter;html=1;align=left;shadow=0;dashed=0;fontColor=#4277BB;labelBackgroundColor=#f7f7f7;fontSize=12;spacingTop=3;image=img/lib/ibm/social/live_collaboration.svg;fillColor=#FFFF66;strokeColor=#FF0000;gradientColor=none;verticalAlign=middle;labelPosition=right;verticalLabelPosition=middle;container=0;" parent="nTN8sJjoOhgb6UXOudAq-50" vertex="1">
            <mxGeometry x="830" y="290" width="20" height="20" as="geometry" />
          </mxCell>
        </UserObject>
        <mxCell id="rxHLFNSxN-ANhz3IYRMf-148" value="" style="image;aspect=fixed;perimeter=ellipsePerimeter;html=1;align=left;shadow=0;dashed=0;fontColor=#4277BB;labelBackgroundColor=#f7f7f7;fontSize=12;spacingTop=3;image=img/lib/ibm/devops/build_test.svg;fillColor=#FFFF66;strokeColor=#FF0000;gradientColor=none;container=0;labelPosition=right;verticalLabelPosition=middle;verticalAlign=middle;" parent="nTN8sJjoOhgb6UXOudAq-50" vertex="1">
          <mxGeometry x="830" y="330" width="20" height="20" as="geometry" />
        </mxCell>
        <mxCell id="rxHLFNSxN-ANhz3IYRMf-149" value="" style="image;aspect=fixed;perimeter=ellipsePerimeter;html=1;align=left;shadow=0;dashed=0;fontColor=#4277BB;labelBackgroundColor=#f7f7f7;fontSize=12;spacingTop=3;image=img/lib/ibm/applications/saas_applications.svg;fillColor=#FFFF66;strokeColor=#FF0000;gradientColor=none;container=0;labelPosition=right;verticalLabelPosition=middle;verticalAlign=middle;" parent="nTN8sJjoOhgb6UXOudAq-50" vertex="1">
          <mxGeometry x="830" y="385" width="20" height="20" as="geometry" />
        </mxCell>
        <mxCell id="rxHLFNSxN-ANhz3IYRMf-198" value="Core" style="rounded=1;whiteSpace=wrap;html=1;strokeWidth=2;strokeColor=#d6b656;fillColor=#fff2cc;fontStyle=1;fontSize=14;labelBorderColor=none;" parent="nTN8sJjoOhgb6UXOudAq-50" vertex="1">
          <mxGeometry x="538" y="640" width="50" height="20" as="geometry" />
        </mxCell>
        <mxCell id="rxHLFNSxN-ANhz3IYRMf-199" value="DP" style="rounded=1;whiteSpace=wrap;html=1;strokeWidth=2;strokeColor=#82b366;fillColor=#d5e8d4;fontStyle=1;fontSize=14;labelBorderColor=none;" parent="nTN8sJjoOhgb6UXOudAq-50" vertex="1">
          <mxGeometry x="538" y="660" width="50" height="20" as="geometry" />
        </mxCell>
        <mxCell id="rxHLFNSxN-ANhz3IYRMf-200" value="DA" style="rounded=1;whiteSpace=wrap;html=1;strokeWidth=2;strokeColor=#d79b00;fillColor=#ffe6cc;fontStyle=1;fontSize=14;labelBorderColor=none;" parent="nTN8sJjoOhgb6UXOudAq-50" vertex="1">
          <mxGeometry x="538" y="620" width="50" height="20" as="geometry" />
        </mxCell>
        <mxCell id="rxHLFNSxN-ANhz3IYRMf-201" value="DA" style="rounded=1;whiteSpace=wrap;html=1;strokeWidth=2;strokeColor=#d79b00;fillColor=#ffe6cc;fontStyle=1;fontSize=14;labelBorderColor=none;" parent="nTN8sJjoOhgb6UXOudAq-50" vertex="1">
          <mxGeometry x="330" y="620" width="50" height="20" as="geometry" />
        </mxCell>
        <mxCell id="rxHLFNSxN-ANhz3IYRMf-202" value="DA" style="rounded=1;whiteSpace=wrap;html=1;strokeWidth=2;strokeColor=#d79b00;fillColor=#ffe6cc;fontStyle=1;fontSize=14;labelBorderColor=none;" parent="nTN8sJjoOhgb6UXOudAq-50" vertex="1">
          <mxGeometry x="330" y="430" width="50" height="20" as="geometry" />
        </mxCell>
        <mxCell id="rxHLFNSxN-ANhz3IYRMf-203" value="DA" style="rounded=1;whiteSpace=wrap;html=1;strokeWidth=2;strokeColor=#d79b00;fillColor=#ffe6cc;fontStyle=1;fontSize=14;labelBorderColor=none;" parent="nTN8sJjoOhgb6UXOudAq-50" vertex="1">
          <mxGeometry x="330" y="250" width="50" height="20" as="geometry" />
        </mxCell>
        <mxCell id="rxHLFNSxN-ANhz3IYRMf-205" value="DA" style="rounded=1;whiteSpace=wrap;html=1;strokeWidth=2;strokeColor=#d79b00;fillColor=#ffe6cc;fontStyle=1;fontSize=14;labelBorderColor=none;" parent="nTN8sJjoOhgb6UXOudAq-50" vertex="1">
          <mxGeometry x="538" y="250" width="50" height="20" as="geometry" />
        </mxCell>
        <mxCell id="rxHLFNSxN-ANhz3IYRMf-207" value="DA" style="rounded=1;whiteSpace=wrap;html=1;strokeWidth=2;strokeColor=#d79b00;fillColor=#ffe6cc;fontStyle=1;fontSize=14;labelBorderColor=none;" parent="nTN8sJjoOhgb6UXOudAq-50" vertex="1">
          <mxGeometry x="150" y="370" width="50" height="20" as="geometry" />
        </mxCell>
        <mxCell id="rxHLFNSxN-ANhz3IYRMf-208" value="DA" style="rounded=1;whiteSpace=wrap;html=1;strokeWidth=2;strokeColor=#d79b00;fillColor=#ffe6cc;fontStyle=1;fontSize=14;labelBorderColor=none;" parent="nTN8sJjoOhgb6UXOudAq-50" vertex="1">
          <mxGeometry x="150" y="120" width="50" height="20" as="geometry" />
        </mxCell>
        <mxCell id="rxHLFNSxN-ANhz3IYRMf-209" value="SPD" style="rounded=1;whiteSpace=wrap;html=1;strokeWidth=2;strokeColor=#9673a6;fillColor=#e1d5e7;fontStyle=1;fontSize=14;labelBorderColor=none;" parent="nTN8sJjoOhgb6UXOudAq-50" vertex="1">
          <mxGeometry x="150" y="140" width="50" height="20" as="geometry" />
        </mxCell>
        <mxCell id="rxHLFNSxN-ANhz3IYRMf-210" value="SPD" style="rounded=1;whiteSpace=wrap;html=1;strokeWidth=2;strokeColor=#9673a6;fillColor=#e1d5e7;fontStyle=1;fontSize=14;labelBorderColor=none;" parent="nTN8sJjoOhgb6UXOudAq-50" vertex="1">
          <mxGeometry x="150" y="620" width="50" height="20" as="geometry" />
        </mxCell>
        <mxCell id="rxHLFNSxN-ANhz3IYRMf-211" value="LEGAL" style="rounded=1;whiteSpace=wrap;html=1;strokeWidth=2;strokeColor=#b85450;fillColor=#f8cecc;fontStyle=1;fontSize=14;labelBorderColor=none;" parent="nTN8sJjoOhgb6UXOudAq-50" vertex="1">
          <mxGeometry x="150" y="160" width="50" height="20" as="geometry" />
        </mxCell>
        <mxCell id="rxHLFNSxN-ANhz3IYRMf-212" value="BIZ" style="rounded=1;whiteSpace=wrap;html=1;strokeWidth=2;strokeColor=#6c8ebf;fillColor=#dae8fc;fontStyle=1;fontSize=14;labelBorderColor=none;" parent="nTN8sJjoOhgb6UXOudAq-50" vertex="1">
          <mxGeometry x="330" y="450" width="50" height="20" as="geometry" />
        </mxCell>
        <mxCell id="rxHLFNSxN-ANhz3IYRMf-213" value="" style="image;aspect=fixed;perimeter=ellipsePerimeter;html=1;align=left;shadow=0;dashed=0;fontColor=#4277BB;labelBackgroundColor=#f7f7f7;fontSize=12;spacingTop=3;image=img/lib/ibm/applications/saas_applications.svg;fillColor=#FFFF66;strokeColor=#FF0000;gradientColor=none;container=0;labelPosition=right;verticalLabelPosition=middle;verticalAlign=middle;" parent="nTN8sJjoOhgb6UXOudAq-50" vertex="1">
          <mxGeometry x="830" y="515" width="20" height="20" as="geometry" />
        </mxCell>
        <mxCell id="rxHLFNSxN-ANhz3IYRMf-214" value="DEPLOYMENT" style="image;aspect=fixed;perimeter=ellipsePerimeter;html=1;align=center;shadow=0;dashed=0;fontColor=#4277BB;labelBackgroundColor=#f7f7f7;fontSize=12;spacingTop=3;image=img/lib/ibm/devops/continuous_deploy.svg;fillColor=#FFFF66;strokeColor=#FF0000;gradientColor=none;" parent="nTN8sJjoOhgb6UXOudAq-50" vertex="1">
          <mxGeometry x="669" y="240" width="80" height="80" as="geometry" />
        </mxCell>
        <UserObject label="SUMMARIZER" tooltip="The AI Summarization Module employs natural language processing (NLP) techniques and machine learning algorithms to condense lengthy news articles into concise summaries while preserving key information and main points. It aims to provide users with quick and informative overviews of news content, facilitating efficient consumption and decision-making." id="rxHLFNSxN-ANhz3IYRMf-218">
          <mxCell style="image;aspect=fixed;perimeter=ellipsePerimeter;html=1;align=center;shadow=0;dashed=0;fontColor=#4277BB;labelBackgroundColor=#f7f7f7;fontSize=12;spacingTop=3;image=img/lib/ibm/vpc/ObjectStorage.svg;fillColor=#FFFF66;strokeColor=#FF0000;gradientColor=none;container=0;" parent="nTN8sJjoOhgb6UXOudAq-50" vertex="1">
            <mxGeometry x="260" y="60" width="80" height="80" as="geometry" />
          </mxCell>
        </UserObject>
        <mxCell id="rxHLFNSxN-ANhz3IYRMf-196" value="BIZ" style="rounded=1;whiteSpace=wrap;html=1;strokeWidth=2;strokeColor=#6c8ebf;fillColor=#dae8fc;fontStyle=1;fontSize=14;labelBorderColor=none;" parent="nTN8sJjoOhgb6UXOudAq-50" vertex="1">
          <mxGeometry x="330" y="90" width="50" height="20" as="geometry" />
        </mxCell>
        <mxCell id="rxHLFNSxN-ANhz3IYRMf-204" value="DA" style="rounded=1;whiteSpace=wrap;html=1;strokeWidth=2;strokeColor=#d79b00;fillColor=#ffe6cc;fontStyle=1;fontSize=14;labelBorderColor=none;" parent="nTN8sJjoOhgb6UXOudAq-50" vertex="1">
          <mxGeometry x="330" y="70" width="50" height="20" as="geometry" />
        </mxCell>
        <mxCell id="rxHLFNSxN-ANhz3IYRMf-220" value="DELIVERY" style="image;aspect=fixed;perimeter=ellipsePerimeter;html=1;align=center;shadow=0;dashed=0;fontColor=#4277BB;labelBackgroundColor=#f7f7f7;fontSize=12;spacingTop=3;image=img/lib/ibm/users/integrated_digital_experiences.svg;fillColor=#FFFF66;strokeColor=#FF0000;gradientColor=none;" parent="nTN8sJjoOhgb6UXOudAq-50" vertex="1">
          <mxGeometry x="669" y="420" width="80" height="80" as="geometry" />
        </mxCell>
        <mxCell id="rxHLFNSxN-ANhz3IYRMf-197" value="Core" style="rounded=1;whiteSpace=wrap;html=1;strokeWidth=2;strokeColor=#d6b656;fillColor=#fff2cc;fontStyle=1;fontSize=14;labelBorderColor=none;" parent="nTN8sJjoOhgb6UXOudAq-50" vertex="1">
          <mxGeometry x="739" y="420" width="50" height="20" as="geometry" />
        </mxCell>
        <mxCell id="rxHLFNSxN-ANhz3IYRMf-206" value="DP" style="rounded=1;whiteSpace=wrap;html=1;strokeWidth=2;strokeColor=#82b366;fillColor=#d5e8d4;fontStyle=1;fontSize=14;labelBorderColor=none;" parent="nTN8sJjoOhgb6UXOudAq-50" vertex="1">
          <mxGeometry x="739" y="440" width="50" height="20" as="geometry" />
        </mxCell>
        <mxCell id="rxHLFNSxN-ANhz3IYRMf-224" value="DP" style="rounded=1;whiteSpace=wrap;html=1;strokeWidth=2;strokeColor=#82b366;fillColor=#d5e8d4;fontStyle=1;fontSize=14;labelBorderColor=none;" parent="nTN8sJjoOhgb6UXOudAq-50" vertex="1">
          <mxGeometry x="739" y="250" width="50" height="20" as="geometry" />
        </mxCell>
        <mxCell id="rxHLFNSxN-ANhz3IYRMf-226" value="&lt;p style=&quot;line-height: 100%; font-size: 9px;&quot;&gt;&amp;nbsp; &amp;nbsp;Build feature to display news onto Apps and WTS.&lt;br&gt;&lt;/p&gt;" style="rounded=1;whiteSpace=wrap;html=1;align=left;spacingLeft=10;labelBorderColor=none;labelBackgroundColor=none;fillColor=none;dashed=1;strokeColor=#4277BB;fontColor=#3977b7;fontStyle=0;startSize=0;shadow=0;gradientColor=none;strokeWidth=1;swimlaneFillColor=none;opacity=50;spacing=0;fontSize=9;" parent="nTN8sJjoOhgb6UXOudAq-50" vertex="1">
          <mxGeometry x="835" y="725" width="295" height="20" as="geometry" />
        </mxCell>
        <mxCell id="rxHLFNSxN-ANhz3IYRMf-227" value="&lt;p style=&quot;line-height: 100%;&quot;&gt;&lt;font style=&quot;font-weight: normal; font-size: 9px;&quot; color=&quot;#3977b7&quot;&gt;&amp;nbsp; &amp;nbsp;Deploy AI model.&amp;nbsp;&lt;/font&gt;&lt;br&gt;&lt;/p&gt;" style="rounded=1;whiteSpace=wrap;html=1;align=left;spacingLeft=10;labelBorderColor=none;labelBackgroundColor=none;fillColor=none;dashed=1;strokeColor=#4277BB;fontColor=#000000;fontStyle=1;startSize=0;shadow=0;gradientColor=none;strokeWidth=1;swimlaneFillColor=none;opacity=50;spacing=0;fontSize=9;" parent="nTN8sJjoOhgb6UXOudAq-50" vertex="1">
          <mxGeometry x="835" y="695" width="295" height="20" as="geometry" />
        </mxCell>
        <mxCell id="rxHLFNSxN-ANhz3IYRMf-229" value="" style="image;aspect=fixed;perimeter=ellipsePerimeter;html=1;align=left;shadow=0;dashed=0;fontColor=#4277BB;labelBackgroundColor=#f7f7f7;fontSize=12;spacingTop=3;image=img/lib/ibm/devops/continuous_deploy.svg;fillColor=#FFFF66;strokeColor=#FF0000;gradientColor=none;labelPosition=right;verticalLabelPosition=middle;verticalAlign=middle;" parent="nTN8sJjoOhgb6UXOudAq-50" vertex="1">
          <mxGeometry x="830" y="690" width="20" height="20" as="geometry" />
        </mxCell>
        <mxCell id="rxHLFNSxN-ANhz3IYRMf-233" value="" style="edgeStyle=orthogonalEdgeStyle;rounded=0;orthogonalLoop=1;jettySize=auto;html=1;endArrow=none;strokeColor=#3977b7;endFill=0;strokeWidth=2;opacity=50;exitX=1;exitY=0.5;exitDx=0;exitDy=0;" parent="nTN8sJjoOhgb6UXOudAq-50" source="rxHLFNSxN-ANhz3IYRMf-232" target="rxHLFNSxN-ANhz3IYRMf-215" edge="1">
          <mxGeometry relative="1" as="geometry">
            <mxPoint x="1130" y="674" as="targetPoint" />
            <mxPoint x="865" y="674" as="sourcePoint" />
          </mxGeometry>
        </mxCell>
        <mxCell id="rxHLFNSxN-ANhz3IYRMf-234" style="edgeStyle=orthogonalEdgeStyle;rounded=0;orthogonalLoop=1;jettySize=auto;html=1;endArrow=none;strokeColor=#3977b7;endFill=0;strokeWidth=2;opacity=80;" parent="nTN8sJjoOhgb6UXOudAq-50" edge="1">
          <mxGeometry relative="1" as="geometry">
            <mxPoint x="1130" y="680" as="targetPoint" />
            <mxPoint x="907" y="679.4957142857143" as="sourcePoint" />
            <Array as="points">
              <mxPoint x="1019" y="679" />
              <mxPoint x="1130" y="680" />
            </Array>
          </mxGeometry>
        </mxCell>
        <mxCell id="rxHLFNSxN-ANhz3IYRMf-215" value="Core" style="rounded=1;whiteSpace=wrap;html=1;strokeWidth=2;strokeColor=#d6b656;fillColor=#fff2cc;fontStyle=1;fontSize=12;labelBorderColor=none;" parent="nTN8sJjoOhgb6UXOudAq-50" vertex="1">
          <mxGeometry x="867" y="670" width="40" height="15" as="geometry" />
        </mxCell>
        <mxCell id="rxHLFNSxN-ANhz3IYRMf-232" value="DP" style="rounded=1;whiteSpace=wrap;html=1;strokeWidth=2;strokeColor=#82b366;fillColor=#d5e8d4;fontStyle=1;fontSize=12;labelBorderColor=none;" parent="nTN8sJjoOhgb6UXOudAq-50" vertex="1">
          <mxGeometry x="835" y="670" width="30" height="15" as="geometry" />
        </mxCell>
        <mxCell id="rxHLFNSxN-ANhz3IYRMf-235" value="" style="image;aspect=fixed;perimeter=ellipsePerimeter;html=1;align=left;shadow=0;dashed=0;fontColor=#4277BB;labelBackgroundColor=#f7f7f7;fontSize=12;spacingTop=3;image=img/lib/ibm/users/integrated_digital_experiences.svg;fillColor=#FFFF66;strokeColor=#FF0000;gradientColor=none;labelPosition=right;verticalLabelPosition=middle;verticalAlign=middle;" parent="nTN8sJjoOhgb6UXOudAq-50" vertex="1">
          <mxGeometry x="830" y="720" width="20" height="20" as="geometry" />
        </mxCell>
      </root>
    </mxGraphModel>
  </diagram>
  <diagram name="Low level" id="O8yVE4UCmN2Se5vYoVNW">
    <mxGraphModel dx="1434" dy="884" grid="1" gridSize="10" guides="1" tooltips="1" connect="1" arrows="1" fold="1" page="1" pageScale="1" pageWidth="1169" pageHeight="827" background="#F7F7F7" math="0" shadow="0">
      <root>
        <mxCell id="v5Rui9X0-NF0V5qtTh8S-0" />
        <mxCell id="v5Rui9X0-NF0V5qtTh8S-1" style="locked=1;" parent="v5Rui9X0-NF0V5qtTh8S-0" />
        <mxCell id="v5Rui9X0-NF0V5qtTh8S-2" value="" style="rounded=0;whiteSpace=wrap;html=1;align=right;fillColor=none;strokeColor=#4277BB;fontColor=#000000;fontStyle=1;startSize=0;shadow=0;labelBackgroundColor=#007FFF;gradientColor=none;strokeWidth=3;glass=0;movable=1;resizable=1;rotatable=1;deletable=1;editable=1;locked=0;connectable=1;" parent="v5Rui9X0-NF0V5qtTh8S-1" vertex="1">
          <mxGeometry x="30" y="31" width="1110" height="770" as="geometry" />
        </mxCell>
        <mxCell id="v5Rui9X0-NF0V5qtTh8S-3" value="NEWS SYSTEM" style="text;html=1;align=left;verticalAlign=middle;resizable=0;points=[];autosize=1;strokeColor=none;fillColor=none;fontSize=30;fontColor=#4277BB;shadow=0;dashed=1;labelBackgroundColor=#f7f7f7;fontStyle=1;spacingLeft=5;startSize=0;strokeWidth=1;rounded=0;labelBorderColor=none;" parent="v5Rui9X0-NF0V5qtTh8S-1" vertex="1">
          <mxGeometry x="460" width="250" height="50" as="geometry" />
        </mxCell>
        <object label="area" id="v5Rui9X0-NF0V5qtTh8S-4">
          <mxCell style="locked=1;" parent="v5Rui9X0-NF0V5qtTh8S-0" />
        </object>
        <mxCell id="v5Rui9X0-NF0V5qtTh8S-5" value="" style="swimlane;shadow=0;labelBackgroundColor=#007FFF;strokeColor=#4277BB;fillColor=none;gradientColor=none;fontColor=#000000;align=right;collapsible=0;startSize=0;strokeWidth=2;swimlaneLine=1;swimlaneFillColor=none;dashed=1;opacity=50;" parent="v5Rui9X0-NF0V5qtTh8S-4" vertex="1">
          <mxGeometry x="80" y="661" width="960" height="141" as="geometry" />
        </mxCell>
        <mxCell id="v5Rui9X0-NF0V5qtTh8S-6" value="" style="swimlane;shadow=0;labelBackgroundColor=#007FFF;strokeColor=#4277BB;fillColor=none;gradientColor=none;fontColor=#000000;align=right;collapsible=0;startSize=0;strokeWidth=2;swimlaneFillColor=none;dashed=1;opacity=50;" parent="v5Rui9X0-NF0V5qtTh8S-4" vertex="1">
          <mxGeometry x="310" y="254" width="490" height="176" as="geometry" />
        </mxCell>
        <mxCell id="v5Rui9X0-NF0V5qtTh8S-7" value="" style="swimlane;shadow=0;labelBackgroundColor=#007FFF;strokeColor=#4277BB;fillColor=none;gradientColor=none;fontColor=#000000;align=right;collapsible=0;startSize=0;strokeWidth=2;swimlaneFillColor=none;dashed=1;opacity=50;" parent="v5Rui9X0-NF0V5qtTh8S-4" vertex="1">
          <mxGeometry x="860" y="57" width="260" height="563" as="geometry" />
        </mxCell>
        <mxCell id="v5Rui9X0-NF0V5qtTh8S-8" value="" style="swimlane;shadow=0;labelBackgroundColor=#007FFF;strokeColor=#4277BB;fillColor=none;gradientColor=none;fontColor=#000000;align=right;collapsible=0;startSize=0;strokeWidth=2;swimlaneFillColor=none;dashed=1;opacity=50;" parent="v5Rui9X0-NF0V5qtTh8S-4" vertex="1">
          <mxGeometry x="310" y="457" width="490" height="163" as="geometry" />
        </mxCell>
        <mxCell id="v5Rui9X0-NF0V5qtTh8S-9" value="" style="swimlane;shadow=0;labelBackgroundColor=#007FFF;strokeColor=#4277BB;fillColor=none;gradientColor=none;fontColor=#000000;align=right;collapsible=0;startSize=0;strokeWidth=2;swimlaneFillColor=none;dashed=1;opacity=50;" parent="v5Rui9X0-NF0V5qtTh8S-4" vertex="1">
          <mxGeometry x="310" y="57" width="490" height="133" as="geometry" />
        </mxCell>
        <mxCell id="v5Rui9X0-NF0V5qtTh8S-10" value="" style="swimlane;shadow=0;labelBackgroundColor=#007FFF;strokeColor=#4277BB;fillColor=none;gradientColor=none;fontColor=#000000;align=right;collapsible=0;startSize=0;strokeWidth=2;swimlaneFillColor=none;perimeterSpacing=1;dashed=1;opacity=50;" parent="v5Rui9X0-NF0V5qtTh8S-4" vertex="1">
          <mxGeometry x="50" y="57" width="180" height="723" as="geometry" />
        </mxCell>
        <mxCell id="v5Rui9X0-NF0V5qtTh8S-11" value="flow" style="locked=1;" parent="v5Rui9X0-NF0V5qtTh8S-0" />
        <mxCell id="v5Rui9X0-NF0V5qtTh8S-12" style="edgeStyle=orthogonalEdgeStyle;rounded=1;orthogonalLoop=1;jettySize=auto;html=1;labelBackgroundColor=#ffffff;endArrow=classicThin;strokeColor=#4277BB;fontColor=#000000;strokeWidth=2;endSize=4;startSize=4;startArrow=none;startFill=0;endFill=1;" parent="v5Rui9X0-NF0V5qtTh8S-11" edge="1">
          <mxGeometry relative="1" as="geometry">
            <mxPoint x="940" y="550" as="sourcePoint" />
            <mxPoint x="470" y="550" as="targetPoint" />
            <Array as="points">
              <mxPoint x="940" y="600" />
              <mxPoint x="470" y="600" />
            </Array>
          </mxGeometry>
        </mxCell>
        <mxCell id="v5Rui9X0-NF0V5qtTh8S-13" value="Tracking customer interaction" style="edgeLabel;html=1;align=center;verticalAlign=middle;resizable=0;points=[];fontSize=11;fontFamily=Helvetica;fontColor=#000000;labelBackgroundColor=#f7f7f7;endArrow=classicThin;rounded=1;strokeColor=#4277BB;strokeWidth=2;endSize=4;startSize=4;startArrow=none;startFill=0;endFill=1;" parent="v5Rui9X0-NF0V5qtTh8S-12" vertex="1" connectable="0">
          <mxGeometry x="0.0807" y="-1" relative="1" as="geometry">
            <mxPoint as="offset" />
          </mxGeometry>
        </mxCell>
        <mxCell id="v5Rui9X0-NF0V5qtTh8S-14" style="edgeStyle=orthogonalEdgeStyle;rounded=1;orthogonalLoop=1;jettySize=auto;html=1;entryX=0.5;entryY=0;entryDx=0;entryDy=0;labelBackgroundColor=#ffffff;strokeColor=#4277BB;fontColor=#000000;strokeWidth=2;endSize=4;startSize=4;startArrow=none;startFill=0;endArrow=classicThin;endFill=1;" parent="v5Rui9X0-NF0V5qtTh8S-11" edge="1">
          <mxGeometry relative="1" as="geometry">
            <mxPoint x="140" y="170" as="sourcePoint" />
            <mxPoint x="720" y="295.5" as="targetPoint" />
            <Array as="points">
              <mxPoint x="140" y="230" />
              <mxPoint x="720" y="230" />
            </Array>
          </mxGeometry>
        </mxCell>
        <mxCell id="v5Rui9X0-NF0V5qtTh8S-15" style="edgeStyle=orthogonalEdgeStyle;rounded=1;orthogonalLoop=1;jettySize=auto;html=1;exitX=0.5;exitY=0;exitDx=0;exitDy=0;labelBackgroundColor=#ffffff;endArrow=classicThin;strokeColor=#4277BB;fontColor=#000000;strokeWidth=2;endSize=4;startSize=4;startArrow=none;startFill=0;endFill=1;entryX=0.5;entryY=1;entryDx=0;entryDy=0;" parent="v5Rui9X0-NF0V5qtTh8S-11" edge="1">
          <mxGeometry relative="1" as="geometry">
            <mxPoint x="720" y="355.5" as="targetPoint" />
            <mxPoint x="720" y="490" as="sourcePoint" />
            <Array as="points" />
          </mxGeometry>
        </mxCell>
        <mxCell id="v5Rui9X0-NF0V5qtTh8S-16" style="edgeStyle=orthogonalEdgeStyle;rounded=1;orthogonalLoop=1;jettySize=auto;html=1;entryX=0.5;entryY=0;entryDx=0;entryDy=0;labelBackgroundColor=#ffffff;strokeColor=#4277BB;fontColor=#000000;strokeWidth=2;endSize=4;startSize=4;startArrow=none;startFill=0;endArrow=classicThin;endFill=1;" parent="v5Rui9X0-NF0V5qtTh8S-11" edge="1">
          <mxGeometry relative="1" as="geometry">
            <mxPoint x="140" y="170" as="sourcePoint" />
            <mxPoint x="555" y="295.5" as="targetPoint" />
            <Array as="points">
              <mxPoint x="140" y="230" />
              <mxPoint x="555" y="230" />
            </Array>
          </mxGeometry>
        </mxCell>
        <mxCell id="v5Rui9X0-NF0V5qtTh8S-17" style="edgeStyle=orthogonalEdgeStyle;rounded=1;orthogonalLoop=1;jettySize=auto;html=1;entryX=1;entryY=0.5;entryDx=0;entryDy=0;labelBackgroundColor=#ffffff;strokeColor=#4277BB;fontColor=#000000;strokeWidth=2;endSize=4;startSize=4;startArrow=none;startFill=0;endArrow=classicThin;endFill=1;" parent="v5Rui9X0-NF0V5qtTh8S-11" edge="1">
          <mxGeometry relative="1" as="geometry">
            <mxPoint x="524.5" y="122" as="sourcePoint" />
            <mxPoint x="410" y="122" as="targetPoint" />
          </mxGeometry>
        </mxCell>
        <mxCell id="v5Rui9X0-NF0V5qtTh8S-18" value="Get data" style="edgeLabel;html=1;align=center;verticalAlign=middle;resizable=0;points=[];fontSize=11;fontFamily=Helvetica;fontColor=#000000;labelBackgroundColor=#f7f7f7;endArrow=classicThin;rounded=1;strokeColor=#4277BB;strokeWidth=2;endSize=4;startSize=4;startArrow=none;startFill=0;endFill=1;" parent="v5Rui9X0-NF0V5qtTh8S-17" vertex="1" connectable="0">
          <mxGeometry x="-0.0306" y="-1" relative="1" as="geometry">
            <mxPoint as="offset" />
          </mxGeometry>
        </mxCell>
        <mxCell id="v5Rui9X0-NF0V5qtTh8S-19" style="edgeStyle=orthogonalEdgeStyle;rounded=1;orthogonalLoop=1;jettySize=auto;html=1;entryX=1;entryY=0.5;entryDx=0;entryDy=0;entryPerimeter=0;labelBackgroundColor=#ffffff;strokeColor=#4277BB;fontColor=#000000;strokeWidth=2;endSize=4;startSize=4;startArrow=none;startFill=0;endArrow=classicThin;endFill=1;" parent="v5Rui9X0-NF0V5qtTh8S-11" edge="1">
          <mxGeometry relative="1" as="geometry">
            <mxPoint x="584.5" y="122" as="targetPoint" />
            <mxPoint x="690" y="122" as="sourcePoint" />
          </mxGeometry>
        </mxCell>
        <mxCell id="v5Rui9X0-NF0V5qtTh8S-20" value="Walk" style="edgeLabel;html=1;align=center;verticalAlign=middle;resizable=0;points=[];fontSize=11;fontFamily=Helvetica;fontColor=#000000;labelBackgroundColor=#f7f7f7;endArrow=classicThin;rounded=1;strokeColor=#4277BB;strokeWidth=2;endSize=4;startSize=4;startArrow=none;startFill=0;endFill=1;" parent="v5Rui9X0-NF0V5qtTh8S-19" vertex="1" connectable="0">
          <mxGeometry x="0.0616" y="2" relative="1" as="geometry">
            <mxPoint x="4" y="-3" as="offset" />
          </mxGeometry>
        </mxCell>
        <mxCell id="v5Rui9X0-NF0V5qtTh8S-21" style="edgeStyle=orthogonalEdgeStyle;rounded=1;orthogonalLoop=1;jettySize=auto;html=1;entryX=0;entryY=0.5;entryDx=0;entryDy=0;labelBackgroundColor=#ffffff;endArrow=classicThin;strokeColor=#4277BB;fontColor=#000000;strokeWidth=2;endSize=4;startSize=4;startArrow=none;startFill=0;endFill=1;" parent="v5Rui9X0-NF0V5qtTh8S-11" edge="1">
          <mxGeometry relative="1" as="geometry">
            <mxPoint x="750" y="325.5" as="sourcePoint" />
            <mxPoint x="910" y="325.5" as="targetPoint" />
          </mxGeometry>
        </mxCell>
        <mxCell id="v5Rui9X0-NF0V5qtTh8S-22" value="Scoring news each customer" style="edgeLabel;html=1;align=center;verticalAlign=middle;resizable=0;points=[];fontSize=11;fontFamily=Helvetica;fontColor=#000000;labelBackgroundColor=#f7f7f7;endArrow=classicThin;rounded=1;strokeColor=#4277BB;strokeWidth=2;endSize=4;startSize=4;startArrow=none;startFill=0;endFill=1;" parent="v5Rui9X0-NF0V5qtTh8S-21" vertex="1" connectable="0">
          <mxGeometry x="-0.0625" relative="1" as="geometry">
            <mxPoint y="-1" as="offset" />
          </mxGeometry>
        </mxCell>
        <mxCell id="v5Rui9X0-NF0V5qtTh8S-23" style="edgeStyle=orthogonalEdgeStyle;rounded=1;orthogonalLoop=1;jettySize=auto;html=1;entryX=0;entryY=0.5;entryDx=0;entryDy=0;labelBackgroundColor=#ffffff;endArrow=classicThin;strokeColor=#4277BB;fontColor=#000000;strokeWidth=2;endSize=4;startSize=4;startArrow=none;startFill=0;endFill=1;curved=0;" parent="v5Rui9X0-NF0V5qtTh8S-11" edge="1">
          <mxGeometry relative="1" as="geometry">
            <mxPoint x="150" y="300" as="sourcePoint" />
            <mxPoint x="910" y="120.00000000000011" as="targetPoint" />
            <Array as="points">
              <mxPoint x="150" y="298" />
              <mxPoint x="150" y="210" />
              <mxPoint x="820" y="210" />
              <mxPoint x="820" y="120" />
            </Array>
          </mxGeometry>
        </mxCell>
        <mxCell id="v5Rui9X0-NF0V5qtTh8S-24" style="edgeStyle=orthogonalEdgeStyle;rounded=1;orthogonalLoop=1;jettySize=auto;html=1;entryX=0;entryY=0.5;entryDx=0;entryDy=0;labelBackgroundColor=#ffffff;endArrow=classicThin;strokeColor=#4277BB;fontColor=#000000;strokeWidth=2;endSize=4;startSize=4;startArrow=none;startFill=0;endFill=1;" parent="v5Rui9X0-NF0V5qtTh8S-11" edge="1">
          <mxGeometry relative="1" as="geometry">
            <mxPoint x="140" y="497" as="sourcePoint" />
            <mxPoint x="690" y="520" as="targetPoint" />
            <Array as="points">
              <mxPoint x="140" y="440" />
              <mxPoint x="610" y="440" />
              <mxPoint x="610" y="520" />
            </Array>
          </mxGeometry>
        </mxCell>
        <mxCell id="v5Rui9X0-NF0V5qtTh8S-25" value="Analysis trading preference &amp;amp; recent behaviors" style="edgeLabel;html=1;align=center;verticalAlign=middle;resizable=0;points=[];fontSize=11;fontFamily=Helvetica;fontColor=#000000;labelBackgroundColor=#f7f7f7;endArrow=classicThin;rounded=1;strokeColor=#4277BB;strokeWidth=2;endSize=4;startSize=4;startArrow=none;startFill=0;endFill=1;" parent="v5Rui9X0-NF0V5qtTh8S-24" vertex="1" connectable="0">
          <mxGeometry x="-0.7001" y="2" relative="1" as="geometry">
            <mxPoint x="74" as="offset" />
          </mxGeometry>
        </mxCell>
        <mxCell id="v5Rui9X0-NF0V5qtTh8S-26" style="edgeStyle=orthogonalEdgeStyle;rounded=1;orthogonalLoop=1;jettySize=auto;html=1;entryX=0.75;entryY=0;entryDx=0;entryDy=0;labelBackgroundColor=#ffffff;endArrow=classicThin;strokeColor=#4277BB;fontColor=#000000;strokeWidth=2;endSize=4;startSize=4;startArrow=none;startFill=0;endFill=1;curved=0;" parent="v5Rui9X0-NF0V5qtTh8S-11" source="v5Rui9X0-NF0V5qtTh8S-57" edge="1">
          <mxGeometry relative="1" as="geometry">
            <mxPoint x="150" y="298" as="sourcePoint" />
            <mxPoint x="733.416407864999" y="298.6671842700023" as="targetPoint" />
            <Array as="points">
              <mxPoint x="150" y="210" />
              <mxPoint x="733" y="210" />
            </Array>
          </mxGeometry>
        </mxCell>
        <mxCell id="v5Rui9X0-NF0V5qtTh8S-27" value="Send news summary, classification labels (output of prediction models)" style="edgeLabel;html=1;align=center;verticalAlign=middle;resizable=0;points=[];labelBackgroundColor=#f7f7f7;" parent="v5Rui9X0-NF0V5qtTh8S-26" vertex="1" connectable="0">
          <mxGeometry x="-0.1747" y="1" relative="1" as="geometry">
            <mxPoint as="offset" />
          </mxGeometry>
        </mxCell>
        <mxCell id="v5Rui9X0-NF0V5qtTh8S-28" style="edgeStyle=orthogonalEdgeStyle;rounded=1;orthogonalLoop=1;jettySize=auto;html=1;entryX=0.5;entryY=0;entryDx=0;entryDy=0;labelBackgroundColor=#ffffff;endArrow=classicThin;strokeColor=#4277BB;fontColor=#000000;strokeWidth=2;endSize=4;startSize=4;startArrow=none;startFill=0;endFill=1;" parent="v5Rui9X0-NF0V5qtTh8S-11" edge="1">
          <mxGeometry relative="1" as="geometry">
            <mxPoint x="940" y="355.5" as="sourcePoint" />
            <mxPoint x="940" y="490" as="targetPoint" />
          </mxGeometry>
        </mxCell>
        <mxCell id="v5Rui9X0-NF0V5qtTh8S-29" value="Select top N highest score news&amp;nbsp;" style="edgeLabel;html=1;align=center;verticalAlign=middle;resizable=0;points=[];fontSize=11;fontFamily=Helvetica;fontColor=#000000;labelBackgroundColor=#f7f7f7;endArrow=classicThin;rounded=1;strokeColor=#4277BB;strokeWidth=2;endSize=4;startSize=4;startArrow=none;startFill=0;endFill=1;" parent="v5Rui9X0-NF0V5qtTh8S-28" vertex="1" connectable="0">
          <mxGeometry x="-0.3532" relative="1" as="geometry">
            <mxPoint y="1" as="offset" />
          </mxGeometry>
        </mxCell>
        <mxCell id="v5Rui9X0-NF0V5qtTh8S-30" style="edgeStyle=orthogonalEdgeStyle;rounded=1;orthogonalLoop=1;jettySize=auto;html=1;labelBackgroundColor=#ffffff;endArrow=classicThin;strokeColor=#4277BB;fontColor=#000000;strokeWidth=2;endSize=4;startSize=4;startArrow=none;startFill=0;endFill=1;" parent="v5Rui9X0-NF0V5qtTh8S-11" edge="1">
          <mxGeometry relative="1" as="geometry">
            <mxPoint x="940" y="430" as="targetPoint" />
            <mxPoint x="970" y="120.00000000000011" as="sourcePoint" />
            <Array as="points">
              <mxPoint x="1020" y="120" />
              <mxPoint x="1020" y="430" />
              <mxPoint x="940" y="430" />
            </Array>
          </mxGeometry>
        </mxCell>
        <mxCell id="v5Rui9X0-NF0V5qtTh8S-31" value="Display news: title, url, labels,..." style="edgeLabel;html=1;align=center;verticalAlign=middle;resizable=0;points=[];fontSize=11;fontFamily=Helvetica;fontColor=#000000;labelBackgroundColor=#f7f7f7;endArrow=classicThin;rounded=1;strokeColor=#4277BB;strokeWidth=2;endSize=4;startSize=4;startArrow=none;startFill=0;endFill=1;" parent="v5Rui9X0-NF0V5qtTh8S-30" vertex="1" connectable="0">
          <mxGeometry x="-0.3227" y="-1" relative="1" as="geometry">
            <mxPoint as="offset" />
          </mxGeometry>
        </mxCell>
        <mxCell id="v5Rui9X0-NF0V5qtTh8S-32" style="rounded=1;orthogonalLoop=1;jettySize=auto;html=1;exitX=1;exitY=0.5;exitDx=0;exitDy=0;entryX=0;entryY=0.75;entryDx=0;entryDy=0;labelBackgroundColor=#ffffff;endArrow=classicThin;strokeColor=#4277BB;fontColor=#000000;strokeWidth=2;endSize=4;startSize=4;startArrow=none;startFill=0;endFill=1;" parent="v5Rui9X0-NF0V5qtTh8S-11" edge="1">
          <mxGeometry relative="1" as="geometry">
            <mxPoint x="970" y="520" as="sourcePoint" />
            <mxPoint x="1043.1671842700025" y="477.41640786499875" as="targetPoint" />
          </mxGeometry>
        </mxCell>
        <mxCell id="v5Rui9X0-NF0V5qtTh8S-33" value="Display" style="edgeLabel;html=1;align=center;verticalAlign=middle;resizable=0;points=[];fontSize=11;fontFamily=Helvetica;fontColor=#000000;labelBackgroundColor=#f7f7f7;endArrow=classicThin;rounded=1;strokeColor=#4277BB;strokeWidth=2;endSize=4;startSize=4;startArrow=none;startFill=0;endFill=1;" parent="v5Rui9X0-NF0V5qtTh8S-32" vertex="1" connectable="0">
          <mxGeometry x="-0.2" y="1" relative="1" as="geometry">
            <mxPoint y="-1" as="offset" />
          </mxGeometry>
        </mxCell>
        <mxCell id="v5Rui9X0-NF0V5qtTh8S-34" style="rounded=1;orthogonalLoop=1;jettySize=auto;html=1;exitX=1;exitY=0.5;exitDx=0;exitDy=0;entryX=0;entryY=0.5;entryDx=0;entryDy=0;labelBackgroundColor=#ffffff;endArrow=classicThin;strokeColor=#4277BB;fontColor=#000000;strokeWidth=2;endSize=4;startSize=4;startArrow=none;startFill=0;endFill=1;" parent="v5Rui9X0-NF0V5qtTh8S-11" edge="1">
          <mxGeometry relative="1" as="geometry">
            <mxPoint x="970" y="521" as="sourcePoint" />
            <mxPoint x="1040" y="564" as="targetPoint" />
          </mxGeometry>
        </mxCell>
        <mxCell id="v5Rui9X0-NF0V5qtTh8S-35" value="Display" style="edgeLabel;html=1;align=center;verticalAlign=middle;resizable=0;points=[];fontSize=11;fontFamily=Helvetica;fontColor=#000000;labelBackgroundColor=#f7f7f7;endArrow=classicThin;rounded=1;strokeColor=#4277BB;strokeWidth=2;endSize=4;startSize=4;startArrow=none;startFill=0;endFill=1;" parent="v5Rui9X0-NF0V5qtTh8S-34" vertex="1" connectable="0">
          <mxGeometry x="-0.2" y="1" relative="1" as="geometry">
            <mxPoint y="-1" as="offset" />
          </mxGeometry>
        </mxCell>
        <mxCell id="v5Rui9X0-NF0V5qtTh8S-36" style="edgeStyle=orthogonalEdgeStyle;rounded=1;orthogonalLoop=1;jettySize=auto;html=1;labelBackgroundColor=#ffffff;endArrow=classicThin;strokeColor=#4277BB;fontColor=#000000;strokeWidth=2;endSize=4;startSize=4;startArrow=none;startFill=0;endFill=1;" parent="v5Rui9X0-NF0V5qtTh8S-11" edge="1">
          <mxGeometry relative="1" as="geometry">
            <mxPoint x="380" y="355.5" as="sourcePoint" />
            <mxPoint x="140" y="360" as="targetPoint" />
            <Array as="points">
              <mxPoint x="380" y="410" />
              <mxPoint x="140" y="410" />
            </Array>
          </mxGeometry>
        </mxCell>
        <mxCell id="v5Rui9X0-NF0V5qtTh8S-37" value="Save news summary" style="edgeLabel;html=1;align=center;verticalAlign=middle;resizable=0;points=[];fontSize=11;fontFamily=Helvetica;fontColor=#000000;labelBackgroundColor=#f7f7f7;endArrow=classicThin;rounded=1;strokeColor=#4277BB;strokeWidth=2;endSize=4;startSize=4;startArrow=none;startFill=0;endFill=1;" parent="v5Rui9X0-NF0V5qtTh8S-36" vertex="1" connectable="0">
          <mxGeometry x="-0.774" relative="1" as="geometry">
            <mxPoint y="1" as="offset" />
          </mxGeometry>
        </mxCell>
        <mxCell id="v5Rui9X0-NF0V5qtTh8S-38" style="edgeStyle=orthogonalEdgeStyle;rounded=1;orthogonalLoop=1;jettySize=auto;html=1;exitX=0.5;exitY=1;exitDx=0;exitDy=0;labelBackgroundColor=#ffffff;endArrow=classicThin;strokeColor=#4277BB;fontColor=#000000;strokeWidth=2;endSize=4;startSize=4;startArrow=none;startFill=0;endFill=1;" parent="v5Rui9X0-NF0V5qtTh8S-11" edge="1">
          <mxGeometry relative="1" as="geometry">
            <mxPoint x="140" y="360" as="targetPoint" />
            <mxPoint x="555" y="355.5" as="sourcePoint" />
            <Array as="points">
              <mxPoint x="555" y="410" />
              <mxPoint x="140" y="410" />
            </Array>
          </mxGeometry>
        </mxCell>
        <mxCell id="v5Rui9X0-NF0V5qtTh8S-39" value="Save news labels" style="edgeLabel;html=1;align=center;verticalAlign=middle;resizable=0;points=[];fontSize=11;fontFamily=Helvetica;fontColor=#000000;labelBackgroundColor=#f7f7f7;endArrow=classicThin;rounded=1;strokeColor=#4277BB;strokeWidth=2;endSize=4;startSize=4;startArrow=none;startFill=0;endFill=1;" parent="v5Rui9X0-NF0V5qtTh8S-38" vertex="1" connectable="0">
          <mxGeometry x="-0.8532" relative="1" as="geometry">
            <mxPoint y="1" as="offset" />
          </mxGeometry>
        </mxCell>
        <mxCell id="v5Rui9X0-NF0V5qtTh8S-40" style="edgeStyle=orthogonalEdgeStyle;rounded=1;orthogonalLoop=1;jettySize=auto;html=1;entryX=1;entryY=0.5;entryDx=0;entryDy=0;labelBackgroundColor=#ffffff;endArrow=classicThin;strokeColor=#4277BB;fontColor=#000000;strokeWidth=2;endSize=4;startSize=4;startArrow=none;startFill=0;endFill=1;" parent="v5Rui9X0-NF0V5qtTh8S-11" edge="1">
          <mxGeometry relative="1" as="geometry">
            <mxPoint x="350" y="122" as="sourcePoint" />
            <mxPoint x="170" y="140" as="targetPoint" />
            <Array as="points">
              <mxPoint x="261" y="122" />
              <mxPoint x="261" y="140" />
            </Array>
          </mxGeometry>
        </mxCell>
        <mxCell id="v5Rui9X0-NF0V5qtTh8S-41" value="Clean data" style="edgeLabel;html=1;align=center;verticalAlign=middle;resizable=0;points=[];fontSize=11;fontFamily=Helvetica;fontColor=#000000;labelBackgroundColor=#f7f7f7;endArrow=classicThin;rounded=1;strokeColor=#4277BB;strokeWidth=2;endSize=4;startSize=4;startArrow=none;startFill=0;endFill=1;" parent="v5Rui9X0-NF0V5qtTh8S-40" vertex="1" connectable="0">
          <mxGeometry x="-0.2929" relative="1" as="geometry">
            <mxPoint x="20" y="-2" as="offset" />
          </mxGeometry>
        </mxCell>
        <mxCell id="v5Rui9X0-NF0V5qtTh8S-42" style="edgeStyle=orthogonalEdgeStyle;rounded=1;orthogonalLoop=1;jettySize=auto;html=1;entryX=0.5;entryY=0;entryDx=0;entryDy=0;jumpStyle=none;labelBackgroundColor=#ffffff;strokeColor=#4277BB;fontColor=#000000;strokeWidth=2;endSize=4;startSize=4;startArrow=none;startFill=0;endArrow=classicThin;endFill=1;" parent="v5Rui9X0-NF0V5qtTh8S-11" edge="1">
          <mxGeometry relative="1" as="geometry">
            <mxPoint x="140" y="170" as="sourcePoint" />
            <mxPoint x="380" y="295.5" as="targetPoint" />
            <Array as="points">
              <mxPoint x="140" y="230" />
              <mxPoint x="380" y="230" />
            </Array>
          </mxGeometry>
        </mxCell>
        <mxCell id="v5Rui9X0-NF0V5qtTh8S-43" value="Send news data: content, title, tags,..." style="edgeLabel;html=1;align=center;verticalAlign=middle;resizable=0;points=[];labelBackgroundColor=#f7f7f7;endArrow=classicThin;rounded=1;strokeColor=#4277BB;fontColor=#000000;strokeWidth=2;endSize=4;startSize=4;startArrow=none;startFill=0;endFill=1;" parent="v5Rui9X0-NF0V5qtTh8S-42" vertex="1" connectable="0">
          <mxGeometry x="-0.1956" y="-1" relative="1" as="geometry">
            <mxPoint x="29" y="-3" as="offset" />
          </mxGeometry>
        </mxCell>
        <mxCell id="v5Rui9X0-NF0V5qtTh8S-44" style="edgeStyle=orthogonalEdgeStyle;rounded=1;orthogonalLoop=1;jettySize=auto;html=1;labelBackgroundColor=#ffffff;endArrow=classicThin;strokeColor=#4277BB;fontColor=#000000;strokeWidth=2;endSize=4;startSize=4;startArrow=none;startFill=0;endFill=1;exitX=0;exitY=0.5;exitDx=0;exitDy=0;entryX=1;entryY=0.5;entryDx=0;entryDy=0;" parent="v5Rui9X0-NF0V5qtTh8S-11" edge="1">
          <mxGeometry relative="1" as="geometry">
            <mxPoint x="440" y="520" as="sourcePoint" />
            <mxPoint x="170" y="520" as="targetPoint" />
          </mxGeometry>
        </mxCell>
        <mxCell id="v5Rui9X0-NF0V5qtTh8S-45" value="Update feedback &amp;amp; recent behaviors" style="edgeLabel;html=1;align=center;verticalAlign=middle;resizable=0;points=[];fontSize=11;fontFamily=Helvetica;fontColor=#000000;labelBackgroundColor=#f7f7f7;endArrow=classicThin;rounded=1;strokeColor=#4277BB;strokeWidth=2;endSize=4;startSize=4;startArrow=none;startFill=0;endFill=1;" parent="v5Rui9X0-NF0V5qtTh8S-44" vertex="1" connectable="0">
          <mxGeometry x="0.0093" y="-1" relative="1" as="geometry">
            <mxPoint as="offset" />
          </mxGeometry>
        </mxCell>
        <mxCell id="v5Rui9X0-NF0V5qtTh8S-46" style="edgeStyle=orthogonalEdgeStyle;rounded=1;orthogonalLoop=1;jettySize=auto;html=1;fontFamily=Helvetica;fontSize=11;fontColor=#000000;labelBackgroundColor=#ffffff;endArrow=classicThin;strokeColor=#4277BB;strokeWidth=2;endSize=4;startSize=4;startArrow=none;startFill=0;endFill=1;jumpStyle=none;curved=0;" parent="v5Rui9X0-NF0V5qtTh8S-11" edge="1">
          <mxGeometry relative="1" as="geometry">
            <mxPoint x="140" y="360" as="targetPoint" />
            <mxPoint x="690" y="326" as="sourcePoint" />
            <Array as="points">
              <mxPoint x="650" y="326" />
              <mxPoint x="650" y="410" />
              <mxPoint x="140" y="410" />
            </Array>
          </mxGeometry>
        </mxCell>
        <mxCell id="v5Rui9X0-NF0V5qtTh8S-47" value="Save news scoring" style="edgeLabel;html=1;align=center;verticalAlign=middle;resizable=0;points=[];fontSize=11;fontFamily=Helvetica;fontColor=#000000;labelBackgroundColor=#f7f7f7;endArrow=classicThin;rounded=1;strokeColor=#4277BB;strokeWidth=2;endSize=4;startSize=4;startArrow=none;startFill=0;endFill=1;" parent="v5Rui9X0-NF0V5qtTh8S-46" vertex="1" connectable="0">
          <mxGeometry x="-0.7895" relative="1" as="geometry">
            <mxPoint as="offset" />
          </mxGeometry>
        </mxCell>
        <mxCell id="v5Rui9X0-NF0V5qtTh8S-48" style="edgeStyle=orthogonalEdgeStyle;rounded=1;orthogonalLoop=1;jettySize=auto;html=1;fontFamily=Helvetica;fontSize=11;fontColor=#000000;labelBackgroundColor=#ffffff;endArrow=classicThin;strokeColor=#4277BB;strokeWidth=2;endSize=4;startSize=4;startArrow=none;startFill=0;endFill=1;" parent="v5Rui9X0-NF0V5qtTh8S-11" edge="1">
          <mxGeometry relative="1" as="geometry">
            <mxPoint x="720" y="490" as="sourcePoint" />
            <mxPoint x="140" y="360" as="targetPoint" />
            <Array as="points">
              <mxPoint x="720" y="410" />
              <mxPoint x="140" y="410" />
            </Array>
          </mxGeometry>
        </mxCell>
        <mxCell id="v5Rui9X0-NF0V5qtTh8S-49" value="Send customer preferences" style="edgeLabel;html=1;align=center;verticalAlign=middle;resizable=0;points=[];strokeColor=#4277BB;fontColor=#000000;labelBackgroundColor=#f7f7f7;endArrow=classicThin;rounded=1;strokeWidth=2;endSize=4;startSize=4;startArrow=none;startFill=0;endFill=1;" parent="v5Rui9X0-NF0V5qtTh8S-48" vertex="1" connectable="0">
          <mxGeometry x="-0.8563" y="1" relative="1" as="geometry">
            <mxPoint as="offset" />
          </mxGeometry>
        </mxCell>
        <mxCell id="v5Rui9X0-NF0V5qtTh8S-50" value="component" style="locked=1;" parent="v5Rui9X0-NF0V5qtTh8S-0" />
        <mxCell id="v5Rui9X0-NF0V5qtTh8S-51" value="WTS" style="image;aspect=fixed;perimeter=ellipsePerimeter;html=1;align=center;shadow=0;dashed=0;fontColor=#4277BB;labelBackgroundColor=#f7f7f7;fontSize=12;spacingTop=3;image=img/lib/ibm/users/browser.svg;fillColor=#FFFF66;strokeColor=#FF0000;gradientColor=none;container=0;" parent="v5Rui9X0-NF0V5qtTh8S-50" vertex="1">
          <mxGeometry x="1040" y="534" width="60" height="60" as="geometry" />
        </mxCell>
        <UserObject label="USER DATA" tooltip="stores user profiles containing customer behaviors &amp; feedbacks, information about user preferences, interests, past interactions, and other relevant data necessary for generating personalized recommendations." id="v5Rui9X0-NF0V5qtTh8S-52">
          <mxCell style="image;aspect=fixed;perimeter=ellipsePerimeter;html=1;align=center;shadow=0;dashed=0;fontColor=#4277BB;labelBackgroundColor=#f7f7f7;fontSize=12;spacingTop=3;image=img/lib/ibm/data/enterprise_user_directory.svg;fillColor=#FFFF66;strokeColor=#FF0000;gradientColor=none;" parent="v5Rui9X0-NF0V5qtTh8S-50" vertex="1">
            <mxGeometry x="110" y="490" width="60" height="60" as="geometry" />
          </mxCell>
        </UserObject>
        <UserObject label="LOG" tooltip="Operation log and performance tracking." id="v5Rui9X0-NF0V5qtTh8S-53">
          <mxCell style="image;aspect=fixed;perimeter=ellipsePerimeter;html=1;align=center;shadow=0;dashed=0;fontColor=#4277BB;labelBackgroundColor=#f7f7f7;fontSize=12;spacingTop=3;image=img/lib/ibm/data/file_repository.svg;fillColor=#FFFF66;strokeColor=#FF0000;gradientColor=none;container=0;" parent="v5Rui9X0-NF0V5qtTh8S-50" vertex="1">
            <mxGeometry x="110" y="680" width="60" height="60" as="geometry" />
          </mxCell>
        </UserObject>
        <mxCell id="v5Rui9X0-NF0V5qtTh8S-54" value="SYSTEMS&lt;div style=&quot;border-color: var(--border-color);&quot;&gt;CONFIG&lt;/div&gt;" style="image;aspect=fixed;perimeter=ellipsePerimeter;html=1;align=center;shadow=0;dashed=0;fontColor=#4277BB;labelBackgroundColor=#f7f7f7;fontSize=12;spacingTop=3;image=img/lib/ibm/management/service_management_tools.svg;fillColor=#FFFF66;strokeColor=#FF0000;gradientColor=none;container=0;" parent="v5Rui9X0-NF0V5qtTh8S-50" vertex="1">
          <mxGeometry x="600" y="680" width="60" height="60" as="geometry" />
        </mxCell>
        <mxCell id="v5Rui9X0-NF0V5qtTh8S-55" value="USER INTERFACE" style="image;aspect=fixed;perimeter=ellipsePerimeter;html=1;align=center;shadow=0;dashed=0;fontColor=#4277BB;labelBackgroundColor=#f7f7f7;fontSize=12;spacingTop=3;image=img/lib/ibm/devops/build_test.svg;fillColor=#FFFF66;strokeColor=#FF0000;gradientColor=none;container=0;" parent="v5Rui9X0-NF0V5qtTh8S-50" vertex="1">
          <mxGeometry x="910" y="490" width="60" height="60" as="geometry" />
        </mxCell>
        <mxCell id="v5Rui9X0-NF0V5qtTh8S-56" value="TRANSFORMATION" style="image;aspect=fixed;perimeter=ellipsePerimeter;html=1;align=center;shadow=0;dashed=0;fontColor=#4277BB;labelBackgroundColor=#f7f7f7;fontSize=12;spacingTop=3;image=img/lib/ibm/applications/api_polyglot_runtimes.svg;fillColor=#FFFF66;strokeColor=#FF0000;gradientColor=none;container=0;" parent="v5Rui9X0-NF0V5qtTh8S-50" vertex="1">
          <mxGeometry x="350" y="92" width="60" height="60" as="geometry" />
        </mxCell>
        <UserObject label="ANALYSIS OUTPUTS" tooltip="save output of summarizer model, classifier model, personal taste profile, news ranking&#xa;" id="v5Rui9X0-NF0V5qtTh8S-57">
          <mxCell style="image;aspect=fixed;perimeter=ellipsePerimeter;html=1;align=center;shadow=0;dashed=0;fontColor=#4277BB;labelBackgroundColor=#f7f7f7;fontSize=12;spacingTop=3;image=img/lib/ibm/data/model.svg;fillColor=#FFFF66;strokeColor=#FF0000;gradientColor=none;" parent="v5Rui9X0-NF0V5qtTh8S-50" vertex="1">
            <mxGeometry x="110" y="300" width="60" height="60" as="geometry" />
          </mxCell>
        </UserObject>
        <UserObject label="MOBILE APPs" tooltip="News section, Customize notification." id="v5Rui9X0-NF0V5qtTh8S-58">
          <mxCell style="image;aspect=fixed;perimeter=ellipsePerimeter;html=1;align=center;shadow=0;dashed=0;fontColor=#4277BB;labelBackgroundColor=#f7f7f7;fontSize=12;spacingTop=3;image=img/lib/ibm/users/device.svg;fillColor=#FFFF66;strokeColor=#FF0000;gradientColor=none;container=0;" parent="v5Rui9X0-NF0V5qtTh8S-50" vertex="1">
            <mxGeometry x="1040" y="434" width="60" height="60" as="geometry" />
          </mxCell>
        </UserObject>
        <UserObject label="NEWS CARD INFOMATION" tooltip="Get infomation of each news article" id="v5Rui9X0-NF0V5qtTh8S-59">
          <mxCell style="image;aspect=fixed;perimeter=ellipsePerimeter;html=1;align=center;shadow=0;dashed=0;fontColor=#4277BB;labelBackgroundColor=#f7f7f7;fontSize=12;spacingTop=3;image=img/lib/ibm/devops/collaborative_development.svg;fillColor=#FFFF66;strokeColor=#FF0000;gradientColor=none;container=0;" parent="v5Rui9X0-NF0V5qtTh8S-50" vertex="1">
            <mxGeometry x="911" y="90" width="60" height="60" as="geometry" />
          </mxCell>
        </UserObject>
        <UserObject label="NEWS SELECTION" tooltip="Generate top N highest ranking News for each customer" id="v5Rui9X0-NF0V5qtTh8S-60">
          <mxCell style="image;aspect=fixed;perimeter=ellipsePerimeter;html=1;align=center;shadow=0;dashed=0;fontColor=#4277BB;labelBackgroundColor=#f7f7f7;fontSize=12;spacingTop=3;image=img/lib/ibm/devops/provision.svg;fillColor=#FFFF66;strokeColor=#FF0000;gradientColor=none;container=0;" parent="v5Rui9X0-NF0V5qtTh8S-50" vertex="1">
            <mxGeometry x="911" y="295" width="60" height="60" as="geometry" />
          </mxCell>
        </UserObject>
        <UserObject label="CLASSIFIER" tooltip="The Machine Learning Classification Module leverages machine learning algorithms to categorize news articles into predefined topics or classes based on their content, enabling personalized content recommendations and targeted user engagement. &#xa;&#xa;Label &amp; tags news:&#xa;- By categories: `Stock market`, `International`, `Macro`, `Life style`,  `Events `, `Others` &#xa;- By sector: 19 sectors&#xa;- By sentiments: `Positive`, `Negative`, `Neutral" id="v5Rui9X0-NF0V5qtTh8S-61">
          <mxCell style="image;aspect=fixed;perimeter=ellipsePerimeter;html=1;align=center;shadow=0;dashed=0;fontColor=#4277BB;labelBackgroundColor=#f7f7f7;fontSize=12;spacingTop=3;image=img/lib/ibm/vpc/LoadBalancer.svg;fillColor=#FFFF66;strokeColor=#FF0000;gradientColor=none;container=0;" parent="v5Rui9X0-NF0V5qtTh8S-50" vertex="1">
            <mxGeometry x="525" y="295.5" width="60" height="60" as="geometry" />
          </mxCell>
        </UserObject>
        <UserObject label="&lt;span style=&quot;color: rgb(66, 119, 187); font-family: Helvetica; font-size: 12px; font-style: normal; font-variant-ligatures: normal; font-variant-caps: normal; font-weight: 400; letter-spacing: normal; orphans: 2; text-align: center; text-indent: 0px; text-transform: none; widows: 2; word-spacing: 0px; -webkit-text-stroke-width: 0px; background-color: rgb(251, 251, 251); text-decoration-thickness: initial; text-decoration-style: initial; text-decoration-color: initial; float: none; display: inline !important;&quot;&gt;NEWS SCORING&lt;/span&gt;" tooltip="Estimate the interest of input news for each customer, thereby providing a list of news that is likely to be of interest to customers." id="v5Rui9X0-NF0V5qtTh8S-62">
          <mxCell style="image;aspect=fixed;perimeter=ellipsePerimeter;html=1;align=center;shadow=0;dashed=0;fontColor=#4277BB;labelBackgroundColor=#f7f7f7;fontSize=12;spacingTop=3;image=img/lib/ibm/vpc/Rules.svg;fillColor=#FFFF66;strokeColor=#FF0000;gradientColor=none;container=0;" parent="v5Rui9X0-NF0V5qtTh8S-50" vertex="1">
            <mxGeometry x="690" y="295.5" width="60" height="60" as="geometry" />
          </mxCell>
        </UserObject>
        <UserObject label="SUMMARIZER" tooltip="The AI Summarization Module employs natural language processing (NLP) techniques and machine learning algorithms to condense lengthy news articles into concise summaries while preserving key information and main points. It aims to provide users with quick and informative overviews of news content, facilitating efficient consumption and decision-making." id="v5Rui9X0-NF0V5qtTh8S-63">
          <mxCell style="image;aspect=fixed;perimeter=ellipsePerimeter;html=1;align=center;shadow=0;dashed=0;fontColor=#4277BB;labelBackgroundColor=#f7f7f7;fontSize=12;spacingTop=3;image=img/lib/ibm/vpc/ObjectStorage.svg;fillColor=#FFFF66;strokeColor=#FF0000;gradientColor=none;container=0;" parent="v5Rui9X0-NF0V5qtTh8S-50" vertex="1">
            <mxGeometry x="350" y="295.5" width="60" height="60" as="geometry" />
          </mxCell>
        </UserObject>
        <mxCell id="v5Rui9X0-NF0V5qtTh8S-64" value="&lt;span style=&quot;color: rgb(66, 119, 187); font-family: Helvetica; font-size: 12px; font-style: normal; font-variant-ligatures: normal; font-variant-caps: normal; font-weight: 400; letter-spacing: normal; orphans: 2; text-align: center; text-indent: 0px; text-transform: none; widows: 2; word-spacing: 0px; -webkit-text-stroke-width: 0px; text-decoration-thickness: initial; text-decoration-style: initial; text-decoration-color: initial; float: none; display: inline !important;&quot;&gt;CRAWLER&lt;/span&gt;" style="image;aspect=fixed;perimeter=ellipsePerimeter;html=1;align=center;shadow=0;dashed=0;fontColor=#4277BB;labelBackgroundColor=#f7f7f7;fontSize=12;spacingTop=3;image=img/lib/ibm/applications/saas_applications.svg;fillColor=#FFFF66;strokeColor=#FF0000;gradientColor=none;container=0;" parent="v5Rui9X0-NF0V5qtTh8S-50" vertex="1">
          <mxGeometry x="525" y="90" width="60" height="60" as="geometry" />
        </mxCell>
        <mxCell id="v5Rui9X0-NF0V5qtTh8S-65" value="" style="image;aspect=fixed;perimeter=ellipsePerimeter;html=1;align=center;shadow=0;dashed=0;fontColor=#4277BB;labelBackgroundColor=none;fontSize=12;spacingTop=3;image=img/lib/ibm/applications/annotate.svg;fillColor=#FFFF66;strokeColor=#FF0000;gradientColor=none;opacity=40;container=0;" parent="v5Rui9X0-NF0V5qtTh8S-50" vertex="1">
          <mxGeometry x="700" y="87" width="53" height="53" as="geometry" />
        </mxCell>
        <mxCell id="v5Rui9X0-NF0V5qtTh8S-66" value="NEWS SOURCE" style="image;aspect=fixed;perimeter=ellipsePerimeter;html=1;align=center;shadow=0;dashed=0;fontColor=#4277BB;labelBackgroundColor=#f7f7f7;fontSize=12;spacingTop=3;image=img/lib/ibm/applications/annotate.svg;fillColor=#FFFF66;strokeColor=#FF0000;gradientColor=none;imageBorder=none;container=0;" parent="v5Rui9X0-NF0V5qtTh8S-50" vertex="1">
          <mxGeometry x="690" y="92" width="60" height="60" as="geometry" />
        </mxCell>
        <UserObject label="CUSTOMER PREFERENCES" tooltip="Analyze historical data and user interactions to create individual taste profiles for each customer." id="v5Rui9X0-NF0V5qtTh8S-67">
          <mxCell style="image;aspect=fixed;perimeter=ellipsePerimeter;html=1;align=center;shadow=0;dashed=0;fontColor=#4277BB;labelBackgroundColor=#f7f7f7;fontSize=12;spacingTop=3;image=img/lib/ibm/social/networking.svg;fillColor=#FFFF66;strokeColor=#FF0000;gradientColor=none;container=0;" parent="v5Rui9X0-NF0V5qtTh8S-50" vertex="1">
            <mxGeometry x="690" y="490" width="60" height="60" as="geometry" />
          </mxCell>
        </UserObject>
        <mxCell id="v5Rui9X0-NF0V5qtTh8S-68" value="POLICY" style="aspect=fixed;perimeter=ellipsePerimeter;html=1;align=center;shadow=0;dashed=0;image;image=img/lib/ibm/blockchain/certificate_authority.svg;strokeColor=#FF0000;fillColor=#FFFF66;gradientColor=none;fontColor=#4277BB;labelBackgroundColor=#f7f7f7;spacingTop=3;container=0;" parent="v5Rui9X0-NF0V5qtTh8S-50" vertex="1">
          <mxGeometry x="280" y="680" width="60" height="60" as="geometry" />
        </mxCell>
        <UserObject label="SYSTEM &lt;br&gt;REQUIREMENT" tooltip=" Crawling sources: &#xa;&#x9;- How many sources need to be configured to perform the crawl?&#xa;&#x9;- Which sources are allowed to crawl news?&#xa;&#x9;- Which sources are allowed to use the news article&#39;s URL link to display on the app?&#xa;&#x9;- Which sources are allowed to embed URL links on the app?&#xa;- Crawling SLA includes:&#xa;&#x9;- Crawl time frequency &#xa;&#x9;- Crawl performance&#xa;&#x9;- Maximum error occurrence frequency requirement&#xa;- SLA for a customer API request to receive a list of suggested news." id="v5Rui9X0-NF0V5qtTh8S-69">
          <mxCell style="aspect=fixed;perimeter=ellipsePerimeter;align=center;shadow=0;dashed=0;image;image=img/lib/ibm/management/information_governance.svg;strokeColor=#FF0000;fillColor=#FFFF66;gradientColor=none;fontColor=#4277BB;labelBackgroundColor=#f7f7f7;spacingTop=3;html=1;container=0;" parent="v5Rui9X0-NF0V5qtTh8S-50" vertex="1">
            <mxGeometry x="440" y="680" width="60" height="60" as="geometry" />
          </mxCell>
        </UserObject>
        <UserObject label="SYSTEM&lt;br style=&quot;border-color: var(--border-color);&quot;&gt;MONITOR" tooltip="The Monitoring and Error Handling component ensures the reliability, availability, and performance of the news crawling and recommendation system by monitoring system health, detecting anomalies, and handling errors effectively" id="v5Rui9X0-NF0V5qtTh8S-70">
          <mxCell style="image;aspect=fixed;perimeter=ellipsePerimeter;html=1;align=center;shadow=0;dashed=0;fontColor=#4277BB;labelBackgroundColor=#f7f7f7;fontSize=12;spacingTop=3;image=img/lib/ibm/management/monitoring_metrics.svg;fillColor=#FFFF66;strokeColor=#FF0000;gradientColor=none;container=0;" parent="v5Rui9X0-NF0V5qtTh8S-50" vertex="1">
            <mxGeometry x="920" y="680" width="60" height="60" as="geometry" />
          </mxCell>
        </UserObject>
        <UserObject label="TRIGGER &amp;amp;&lt;br style=&quot;border-color: var(--border-color);&quot;&gt;SCHEDULER" tooltip="Manages the timing and frequency of crawling tasks, prediction tasks. It decides when and how often to crawl news sources based on predefined schedules or dynamically adjusting priorities." id="v5Rui9X0-NF0V5qtTh8S-71">
          <mxCell style="image;aspect=fixed;perimeter=ellipsePerimeter;html=1;align=center;shadow=0;dashed=0;fontColor=#4277BB;labelBackgroundColor=#f7f7f7;fontSize=12;spacingTop=3;image=img/lib/ibm/management/it_service_management.svg;fillColor=#FFFF66;strokeColor=#FF0000;gradientColor=none;container=0;" parent="v5Rui9X0-NF0V5qtTh8S-50" vertex="1">
            <mxGeometry x="760" y="680" width="60" height="60" as="geometry" />
          </mxCell>
        </UserObject>
        <mxCell id="v5Rui9X0-NF0V5qtTh8S-72" value="GOVERNANCE &amp;amp; POLICY" style="text;html=1;align=left;verticalAlign=middle;fontColor=#4277BB;shadow=0;strokeColor=#3977b7;fillColor=#f7f7f7;labelBackgroundColor=#f7f7f7;fontStyle=1;fontSize=14;spacingLeft=5;startSize=0;strokeWidth=1;perimeterSpacing=1;rounded=0;labelBorderColor=none;" parent="v5Rui9X0-NF0V5qtTh8S-50" vertex="1">
          <mxGeometry x="491" y="651" width="188" height="20" as="geometry" />
        </mxCell>
        <mxCell id="v5Rui9X0-NF0V5qtTh8S-73" value="NEWS AI MODULE" style="text;align=left;verticalAlign=middle;fontColor=#4277BB;shadow=0;strokeColor=#3977b7;fillColor=#f7f7f7;labelBackgroundColor=#f7f7f7;fontStyle=1;fontSize=14;spacingLeft=5;startSize=0;strokeWidth=1;rounded=0;gradientColor=none;labelBorderColor=none;html=1;horizontal=1;" parent="v5Rui9X0-NF0V5qtTh8S-50" vertex="1">
          <mxGeometry x="330" y="245" width="140" height="20" as="geometry" />
        </mxCell>
        <mxCell id="v5Rui9X0-NF0V5qtTh8S-74" value="RECOMMENDATION ENGINIE" style="text;html=1;align=left;verticalAlign=middle;fontColor=#4277BB;shadow=0;strokeColor=#3977b7;fillColor=#f7f7f7;labelBackgroundColor=#f7f7f7;fontStyle=1;fontSize=14;spacingLeft=5;startSize=0;strokeWidth=1;rounded=0;labelBorderColor=none;" parent="v5Rui9X0-NF0V5qtTh8S-50" vertex="1">
          <mxGeometry x="870" y="46" width="210" height="20" as="geometry" />
        </mxCell>
        <mxCell id="v5Rui9X0-NF0V5qtTh8S-75" value="CUSTOMER TASTE PROFILE" style="text;html=1;align=left;verticalAlign=middle;fontColor=#4277BB;shadow=0;strokeColor=#3977b7;fillColor=#f7f7f7;labelBackgroundColor=#f7f7f7;fontStyle=1;fontSize=14;spacingLeft=5;startSize=0;strokeWidth=1;rounded=0;labelBorderColor=none;" parent="v5Rui9X0-NF0V5qtTh8S-50" vertex="1">
          <mxGeometry x="320" y="448" width="210" height="20" as="geometry" />
        </mxCell>
        <mxCell id="v5Rui9X0-NF0V5qtTh8S-76" value="CRAWL NEWS MODULE" style="text;html=1;align=left;verticalAlign=middle;fontColor=#4277BB;shadow=0;strokeColor=#3977b7;fillColor=#f7f7f7;labelBackgroundColor=#f7f7f7;fontStyle=1;fontSize=14;spacingLeft=5;startSize=0;strokeWidth=1;rounded=0;labelBorderColor=none;" parent="v5Rui9X0-NF0V5qtTh8S-50" vertex="1">
          <mxGeometry x="320" y="47" width="180" height="20" as="geometry" />
        </mxCell>
        <mxCell id="v5Rui9X0-NF0V5qtTh8S-77" value="DATA SYSTEM" style="text;html=1;align=left;verticalAlign=middle;fontColor=#4277BB;shadow=0;strokeColor=#3977b7;fillColor=#f7f7f7;labelBackgroundColor=#f7f7f7;fontStyle=1;fontSize=14;spacingLeft=5;startSize=0;strokeWidth=1;rounded=0;labelBorderColor=none;" parent="v5Rui9X0-NF0V5qtTh8S-50" vertex="1">
          <mxGeometry x="60" y="47" width="110" height="20" as="geometry" />
        </mxCell>
        <UserObject label="CRAWLED NEWS" tooltip="Stores the crawled news articles along their meta data, such as: title, content, tags, categories, publication date, source information, ingestion time and relevant attributes&#xa;&#xa;Backup and Recovery:&#xa;- Set up regular backups and disaster recovery mechanisms to ensure data integrity and availability.&#xa;- Test backup and recovery procedures periodically to validate their effectiveness." id="v5Rui9X0-NF0V5qtTh8S-78">
          <mxCell style="image;aspect=fixed;perimeter=ellipsePerimeter;html=1;align=center;shadow=0;dashed=0;fontColor=#4277BB;labelBackgroundColor=#f7f7f7;fontSize=12;spacingTop=3;image=img/lib/ibm/data/data_services.svg;fillColor=#FFFF66;strokeColor=#FF0000;gradientColor=none;" parent="v5Rui9X0-NF0V5qtTh8S-50" vertex="1">
            <mxGeometry x="110" y="110" width="60" height="60" as="geometry" />
          </mxCell>
        </UserObject>
        <UserObject label="FEEDBACK LOOP" tooltip="Get infomation of feedback interaction of customer with news that they read, then fine-tunning news score model" id="v5Rui9X0-NF0V5qtTh8S-79">
          <mxCell style="image;aspect=fixed;perimeter=ellipsePerimeter;html=1;align=center;shadow=0;dashed=0;fontColor=#4277BB;labelBackgroundColor=#f7f7f7;fontSize=12;spacingTop=3;image=img/lib/ibm/social/live_collaboration.svg;fillColor=#FFFF66;strokeColor=#FF0000;gradientColor=none;verticalAlign=top;labelPosition=center;verticalLabelPosition=bottom;container=0;" parent="v5Rui9X0-NF0V5qtTh8S-50" vertex="1">
            <mxGeometry x="440" y="490" width="60" height="60" as="geometry" />
          </mxCell>
        </UserObject>
      </root>
    </mxGraphModel>
  </diagram>
  <diagram name="Crawler" id="BLYhfLLfk2bAqPrmPV0Z">
    <mxGraphModel dx="1434" dy="884" grid="1" gridSize="10" guides="1" tooltips="1" connect="1" arrows="1" fold="1" page="1" pageScale="1" pageWidth="1169" pageHeight="827" background="#F7F7F7" math="0" shadow="0">
      <root>
        <mxCell id="T5nMhFUUgPr07CCTaVCm-0" />
        <mxCell id="T5nMhFUUgPr07CCTaVCm-1" style="locked=1;" parent="T5nMhFUUgPr07CCTaVCm-0" />
        <mxCell id="T5nMhFUUgPr07CCTaVCm-2" value="" style="rounded=0;whiteSpace=wrap;html=1;align=right;fillColor=none;strokeColor=#4277BB;fontColor=#cf4002;fontStyle=1;startSize=0;shadow=0;labelBackgroundColor=#f7f7f7;gradientColor=none;strokeWidth=3;glass=0;movable=1;resizable=1;rotatable=1;deletable=1;editable=1;locked=0;connectable=1;" parent="T5nMhFUUgPr07CCTaVCm-1" vertex="1">
          <mxGeometry x="20" y="20" width="1130" height="790" as="geometry" />
        </mxCell>
        <mxCell id="T5nMhFUUgPr07CCTaVCm-3" value="NEWS CRAWLER" style="text;html=1;align=left;verticalAlign=middle;resizable=0;points=[];autosize=1;strokeColor=none;fillColor=none;fontSize=30;fontColor=#4277BB;shadow=0;dashed=1;labelBackgroundColor=#f7f7f7;fontStyle=1;spacingLeft=5;startSize=0;strokeWidth=1;rounded=0;labelBorderColor=none;" parent="T5nMhFUUgPr07CCTaVCm-1" vertex="1">
          <mxGeometry x="445" width="280" height="50" as="geometry" />
        </mxCell>
        <mxCell id="T5nMhFUUgPr07CCTaVCm-11" value="flow" style="locked=1;" parent="T5nMhFUUgPr07CCTaVCm-0" />
        <mxCell id="YEjVcqrGfGyEUvBh3Uah-29" style="edgeStyle=orthogonalEdgeStyle;rounded=1;orthogonalLoop=1;jettySize=auto;html=1;entryX=0.005;entryY=0.497;entryDx=0;entryDy=0;entryPerimeter=0;strokeColor=#4277BB;strokeWidth=2;align=center;verticalAlign=middle;fontFamily=Helvetica;fontSize=16;fontColor=#000000;labelBackgroundColor=#ffffff;startArrow=none;startFill=0;startSize=4;endArrow=classicThin;endFill=1;endSize=4;spacingLeft=0;spacingRight=0;spacingTop=0;spacing=0;fontStyle=1;labelBorderColor=#ff0000;fillColor=none;gradientColor=none;" parent="T5nMhFUUgPr07CCTaVCm-11" edge="1">
          <mxGeometry relative="1" as="geometry">
            <mxPoint x="120" y="690" as="sourcePoint" />
            <mxPoint x="175.27999999999975" y="419.15999999999985" as="targetPoint" />
            <Array as="points">
              <mxPoint x="120" y="690" />
              <mxPoint x="120" y="419" />
            </Array>
          </mxGeometry>
        </mxCell>
        <mxCell id="YEjVcqrGfGyEUvBh3Uah-48" value="&amp;nbsp;3&amp;nbsp;" style="edgeLabel;html=1;align=center;verticalAlign=middle;resizable=0;points=[];rounded=1;strokeColor=#4277BB;strokeWidth=2;spacingLeft=0;spacingRight=0;spacingTop=0;spacing=0;fontFamily=Helvetica;fontSize=16;fontColor=#000000;fontStyle=1;labelBorderColor=#ff0000;labelBackgroundColor=#ffffff;fillColor=none;gradientColor=none;" parent="YEjVcqrGfGyEUvBh3Uah-29" vertex="1" connectable="0">
          <mxGeometry x="-0.3901" y="-2" relative="1" as="geometry">
            <mxPoint x="-2" as="offset" />
          </mxGeometry>
        </mxCell>
        <mxCell id="YEjVcqrGfGyEUvBh3Uah-30" style="edgeStyle=orthogonalEdgeStyle;rounded=1;orthogonalLoop=1;jettySize=auto;html=1;strokeColor=#4277BB;strokeWidth=2;align=center;verticalAlign=middle;fontFamily=Helvetica;fontSize=16;fontColor=#000000;labelBackgroundColor=#ffffff;startArrow=none;startFill=0;startSize=4;endArrow=classicThin;endFill=1;endSize=4;entryX=0.336;entryY=-0.007;entryDx=0;entryDy=0;entryPerimeter=0;spacingLeft=0;spacingRight=0;spacingTop=0;spacing=0;fontStyle=1;labelBorderColor=#ff0000;fillColor=none;gradientColor=none;" parent="T5nMhFUUgPr07CCTaVCm-11" edge="1">
          <mxGeometry relative="1" as="geometry">
            <mxPoint x="260" y="160" as="sourcePoint" />
            <mxPoint x="260.01599999999985" y="278.03999999999996" as="targetPoint" />
            <Array as="points" />
          </mxGeometry>
        </mxCell>
        <mxCell id="YEjVcqrGfGyEUvBh3Uah-53" value="&amp;nbsp;5&amp;nbsp;" style="edgeLabel;html=1;align=center;verticalAlign=middle;resizable=0;points=[];rounded=1;strokeColor=#4277BB;strokeWidth=2;spacingLeft=0;spacingRight=0;spacingTop=0;spacing=0;fontFamily=Helvetica;fontSize=16;fontColor=#000000;fontStyle=1;labelBorderColor=#ff0000;labelBackgroundColor=#ffffff;fillColor=none;gradientColor=none;" parent="YEjVcqrGfGyEUvBh3Uah-30" vertex="1" connectable="0">
          <mxGeometry x="-0.2291" relative="1" as="geometry">
            <mxPoint as="offset" />
          </mxGeometry>
        </mxCell>
        <mxCell id="YEjVcqrGfGyEUvBh3Uah-31" style="edgeStyle=orthogonalEdgeStyle;rounded=1;orthogonalLoop=1;jettySize=auto;html=1;exitX=0.5;exitY=1;exitDx=0;exitDy=0;strokeColor=#4277BB;strokeWidth=2;align=center;verticalAlign=middle;fontFamily=Helvetica;fontSize=16;fontColor=#000000;labelBackgroundColor=#ffffff;startArrow=none;startFill=0;startSize=4;endArrow=classicThin;endFill=1;endSize=4;spacingLeft=0;spacingRight=0;spacingTop=0;spacing=0;fontStyle=1;labelBorderColor=#ff0000;fillColor=none;gradientColor=none;" parent="T5nMhFUUgPr07CCTaVCm-11" edge="1">
          <mxGeometry relative="1" as="geometry">
            <mxPoint x="280" y="640" as="targetPoint" />
            <mxPoint x="810" y="160" as="sourcePoint" />
            <Array as="points">
              <mxPoint x="810" y="590" />
              <mxPoint x="280" y="590" />
            </Array>
          </mxGeometry>
        </mxCell>
        <mxCell id="YEjVcqrGfGyEUvBh3Uah-58" value="&amp;nbsp;11&amp;nbsp;" style="edgeLabel;html=1;align=center;verticalAlign=middle;resizable=0;points=[];rounded=1;strokeColor=#4277BB;strokeWidth=2;spacingLeft=0;spacingRight=0;spacingTop=0;spacing=0;fontFamily=Helvetica;fontSize=16;fontColor=#000000;fontStyle=1;labelBorderColor=#ff0000;labelBackgroundColor=#ffffff;fillColor=none;gradientColor=none;" parent="YEjVcqrGfGyEUvBh3Uah-31" vertex="1" connectable="0">
          <mxGeometry x="-0.5657" relative="1" as="geometry">
            <mxPoint as="offset" />
          </mxGeometry>
        </mxCell>
        <mxCell id="YEjVcqrGfGyEUvBh3Uah-65" style="edgeStyle=orthogonalEdgeStyle;rounded=1;orthogonalLoop=1;jettySize=auto;html=1;entryX=0;entryY=0.5;entryDx=0;entryDy=0;strokeColor=#4277BB;strokeWidth=2;align=center;verticalAlign=middle;fontFamily=Helvetica;fontSize=16;fontColor=#000000;labelBackgroundColor=#ffffff;startArrow=none;startFill=0;startSize=4;endArrow=classicThin;endFill=1;endSize=4;spacingLeft=0;spacingRight=0;spacingTop=0;spacing=0;fontStyle=1;labelBorderColor=#ff0000;fillColor=none;gradientColor=none;" parent="T5nMhFUUgPr07CCTaVCm-11" edge="1">
          <mxGeometry relative="1" as="geometry">
            <mxPoint x="104" y="350" as="sourcePoint" />
            <mxPoint x="204" y="350" as="targetPoint" />
          </mxGeometry>
        </mxCell>
        <mxCell id="YEjVcqrGfGyEUvBh3Uah-66" value="&amp;nbsp;4&amp;nbsp;" style="edgeLabel;html=1;align=center;verticalAlign=middle;resizable=0;points=[];rounded=1;strokeColor=#4277BB;strokeWidth=2;spacingLeft=0;spacingRight=0;spacingTop=0;spacing=0;fontFamily=Helvetica;fontSize=16;fontColor=#000000;fontStyle=1;labelBorderColor=#ff0000;labelBackgroundColor=#ffffff;fillColor=none;gradientColor=none;" parent="YEjVcqrGfGyEUvBh3Uah-65" vertex="1" connectable="0">
          <mxGeometry x="-0.0667" y="2" relative="1" as="geometry">
            <mxPoint as="offset" />
          </mxGeometry>
        </mxCell>
        <mxCell id="YEjVcqrGfGyEUvBh3Uah-67" style="edgeStyle=orthogonalEdgeStyle;rounded=1;orthogonalLoop=1;jettySize=auto;html=1;entryX=0;entryY=0.5;entryDx=0;entryDy=0;strokeColor=#4277BB;strokeWidth=2;align=center;verticalAlign=middle;fontFamily=Helvetica;fontSize=16;fontColor=#000000;labelBackgroundColor=#ffffff;startArrow=none;startFill=0;startSize=4;endArrow=classicThin;endFill=1;endSize=4;spacingLeft=0;spacingRight=0;spacingTop=0;spacing=0;fontStyle=1;labelBorderColor=#ff0000;fillColor=none;gradientColor=none;" parent="T5nMhFUUgPr07CCTaVCm-11" edge="1">
          <mxGeometry relative="1" as="geometry">
            <mxPoint x="104" y="490" as="sourcePoint" />
            <mxPoint x="204" y="490" as="targetPoint" />
          </mxGeometry>
        </mxCell>
        <mxCell id="YEjVcqrGfGyEUvBh3Uah-68" value="&amp;nbsp;4&amp;nbsp;" style="edgeLabel;html=1;align=center;verticalAlign=middle;resizable=0;points=[];rounded=1;strokeColor=#4277BB;strokeWidth=2;spacingLeft=0;spacingRight=0;spacingTop=0;spacing=0;fontFamily=Helvetica;fontSize=16;fontColor=#000000;fontStyle=1;labelBorderColor=#ff0000;labelBackgroundColor=#ffffff;fillColor=none;gradientColor=none;" parent="YEjVcqrGfGyEUvBh3Uah-67" vertex="1" connectable="0">
          <mxGeometry relative="1" as="geometry">
            <mxPoint as="offset" />
          </mxGeometry>
        </mxCell>
        <mxCell id="YEjVcqrGfGyEUvBh3Uah-69" style="edgeStyle=orthogonalEdgeStyle;rounded=1;orthogonalLoop=1;jettySize=auto;html=1;entryX=0;entryY=0.5;entryDx=0;entryDy=0;strokeColor=#4277BB;strokeWidth=2;align=center;verticalAlign=middle;fontFamily=Helvetica;fontSize=16;fontColor=#000000;labelBackgroundColor=#ffffff;startArrow=none;startFill=0;startSize=4;endArrow=classicThin;endFill=1;endSize=4;spacingLeft=0;spacingRight=0;spacingTop=0;spacing=0;fontStyle=1;labelBorderColor=#ff0000;fillColor=none;gradientColor=none;" parent="T5nMhFUUgPr07CCTaVCm-11" edge="1">
          <mxGeometry relative="1" as="geometry">
            <mxPoint x="950" y="420" as="sourcePoint" />
            <mxPoint x="1060" y="420" as="targetPoint" />
          </mxGeometry>
        </mxCell>
        <mxCell id="YEjVcqrGfGyEUvBh3Uah-70" value="&amp;nbsp;10&amp;nbsp;" style="edgeLabel;html=1;align=center;verticalAlign=middle;resizable=0;points=[];rounded=1;strokeColor=#4277BB;strokeWidth=2;spacingLeft=0;spacingRight=0;spacingTop=0;spacing=0;fontFamily=Helvetica;fontSize=16;fontColor=#000000;fontStyle=1;labelBorderColor=#ff0000;labelBackgroundColor=#ffffff;fillColor=none;gradientColor=none;" parent="YEjVcqrGfGyEUvBh3Uah-69" vertex="1" connectable="0">
          <mxGeometry x="0.2313" relative="1" as="geometry">
            <mxPoint as="offset" />
          </mxGeometry>
        </mxCell>
        <mxCell id="YEjVcqrGfGyEUvBh3Uah-71" style="edgeStyle=orthogonalEdgeStyle;rounded=1;orthogonalLoop=1;jettySize=auto;html=1;entryX=0;entryY=0.5;entryDx=0;entryDy=0;strokeColor=#4277BB;strokeWidth=2;align=center;verticalAlign=middle;fontFamily=Helvetica;fontSize=16;fontColor=#000000;labelBackgroundColor=#ffffff;startArrow=none;startFill=0;startSize=4;endArrow=classicThin;endFill=1;endSize=4;spacingLeft=0;spacingRight=0;spacingTop=0;spacing=0;fontStyle=1;labelBorderColor=#ff0000;fillColor=none;gradientColor=none;" parent="T5nMhFUUgPr07CCTaVCm-11" edge="1">
          <mxGeometry relative="1" as="geometry">
            <mxPoint x="264" y="350" as="sourcePoint" />
            <mxPoint x="324" y="420" as="targetPoint" />
            <Array as="points">
              <mxPoint x="290" y="350" />
              <mxPoint x="290" y="420" />
            </Array>
          </mxGeometry>
        </mxCell>
        <mxCell id="YEjVcqrGfGyEUvBh3Uah-72" value="&amp;nbsp;6&amp;nbsp;" style="edgeLabel;html=1;align=center;verticalAlign=middle;resizable=0;points=[];rounded=1;strokeColor=#4277BB;strokeWidth=2;spacingLeft=0;spacingRight=0;spacingTop=0;spacing=0;fontFamily=Helvetica;fontSize=16;fontColor=#000000;fontStyle=1;labelBorderColor=#ff0000;labelBackgroundColor=#ffffff;fillColor=none;gradientColor=none;" parent="YEjVcqrGfGyEUvBh3Uah-71" vertex="1" connectable="0">
          <mxGeometry x="0.0077" relative="1" as="geometry">
            <mxPoint as="offset" />
          </mxGeometry>
        </mxCell>
        <mxCell id="YEjVcqrGfGyEUvBh3Uah-73" style="edgeStyle=orthogonalEdgeStyle;rounded=1;orthogonalLoop=1;jettySize=auto;html=1;entryX=0;entryY=0.5;entryDx=0;entryDy=0;strokeColor=#4277BB;strokeWidth=2;align=center;verticalAlign=middle;fontFamily=Helvetica;fontSize=16;fontColor=#000000;labelBackgroundColor=#ffffff;startArrow=none;startFill=0;startSize=4;endArrow=classicThin;endFill=1;endSize=4;spacingLeft=0;spacingRight=0;spacingTop=0;spacing=0;fontStyle=1;labelBorderColor=#ff0000;fillColor=none;gradientColor=none;" parent="T5nMhFUUgPr07CCTaVCm-11" edge="1">
          <mxGeometry relative="1" as="geometry">
            <mxPoint x="264" y="490" as="sourcePoint" />
            <mxPoint x="324" y="420" as="targetPoint" />
            <Array as="points">
              <mxPoint x="290" y="490" />
              <mxPoint x="290" y="420" />
            </Array>
          </mxGeometry>
        </mxCell>
        <mxCell id="YEjVcqrGfGyEUvBh3Uah-74" value="&amp;nbsp;6&amp;nbsp;" style="edgeLabel;html=1;align=center;verticalAlign=middle;resizable=0;points=[];rounded=1;strokeColor=#4277BB;strokeWidth=2;spacingLeft=0;spacingRight=0;spacingTop=0;spacing=0;fontFamily=Helvetica;fontSize=16;fontColor=#000000;fontStyle=1;labelBorderColor=#ff0000;labelBackgroundColor=#ffffff;fillColor=none;gradientColor=none;" parent="YEjVcqrGfGyEUvBh3Uah-73" vertex="1" connectable="0">
          <mxGeometry x="0.0051" relative="1" as="geometry">
            <mxPoint as="offset" />
          </mxGeometry>
        </mxCell>
        <mxCell id="YEjVcqrGfGyEUvBh3Uah-75" style="edgeStyle=orthogonalEdgeStyle;rounded=1;orthogonalLoop=1;jettySize=auto;html=1;strokeColor=#4277BB;strokeWidth=2;align=center;verticalAlign=middle;fontFamily=Helvetica;fontSize=16;fontColor=#000000;labelBackgroundColor=#ffffff;startArrow=none;startFill=0;startSize=4;endArrow=classicThin;endFill=1;endSize=4;spacingLeft=0;spacingRight=0;spacingTop=0;spacing=0;fontStyle=1;labelBorderColor=#ff0000;fillColor=none;gradientColor=none;" parent="T5nMhFUUgPr07CCTaVCm-11" edge="1">
          <mxGeometry relative="1" as="geometry">
            <mxPoint x="354" y="390" as="sourcePoint" />
            <mxPoint x="640" y="160" as="targetPoint" />
            <Array as="points">
              <mxPoint x="354" y="250" />
              <mxPoint x="640" y="250" />
            </Array>
          </mxGeometry>
        </mxCell>
        <mxCell id="YEjVcqrGfGyEUvBh3Uah-76" value="&amp;nbsp;7&amp;nbsp;" style="edgeLabel;html=1;align=center;verticalAlign=middle;resizable=0;points=[];rounded=1;strokeColor=#4277BB;strokeWidth=2;spacingLeft=0;spacingRight=0;spacingTop=0;spacing=0;fontFamily=Helvetica;fontSize=16;fontColor=#000000;fontStyle=1;labelBorderColor=#ff0000;labelBackgroundColor=#ffffff;fillColor=none;gradientColor=none;" parent="YEjVcqrGfGyEUvBh3Uah-75" vertex="1" connectable="0">
          <mxGeometry x="-0.7295" relative="1" as="geometry">
            <mxPoint as="offset" />
          </mxGeometry>
        </mxCell>
        <mxCell id="YEjVcqrGfGyEUvBh3Uah-77" style="edgeStyle=orthogonalEdgeStyle;rounded=1;orthogonalLoop=1;jettySize=auto;html=1;strokeColor=#4277BB;align=center;verticalAlign=middle;fontFamily=Helvetica;fontSize=16;fontColor=#000000;labelBorderColor=#ff0000;labelBackgroundColor=#ffffff;endArrow=classicThin;strokeWidth=2;startArrow=none;startFill=0;startSize=4;endFill=1;endSize=4;spacingLeft=0;spacingRight=0;spacingTop=0;spacing=0;fontStyle=1;fillColor=none;gradientColor=none;" parent="T5nMhFUUgPr07CCTaVCm-11" edge="1">
          <mxGeometry relative="1" as="geometry">
            <mxPoint x="290" y="720" as="sourcePoint" />
            <mxPoint x="150" y="720" as="targetPoint" />
          </mxGeometry>
        </mxCell>
        <mxCell id="YEjVcqrGfGyEUvBh3Uah-78" value="&amp;nbsp;2&amp;nbsp;" style="edgeLabel;html=1;align=center;verticalAlign=middle;resizable=0;points=[];rounded=1;strokeColor=#4277BB;fontFamily=Helvetica;fontSize=16;fontColor=#000000;labelBorderColor=#ff0000;labelBackgroundColor=#ffffff;spacingLeft=0;spacingRight=0;spacingTop=0;spacing=0;fontStyle=1;fillColor=none;gradientColor=none;strokeWidth=2;" parent="YEjVcqrGfGyEUvBh3Uah-77" vertex="1" connectable="0">
          <mxGeometry x="-0.0762" y="-2" relative="1" as="geometry">
            <mxPoint as="offset" />
          </mxGeometry>
        </mxCell>
        <mxCell id="YEjVcqrGfGyEUvBh3Uah-79" style="edgeStyle=orthogonalEdgeStyle;rounded=1;orthogonalLoop=1;jettySize=auto;html=1;entryX=0.5;entryY=0;entryDx=0;entryDy=0;strokeColor=#4277BB;strokeWidth=2;align=center;verticalAlign=middle;fontFamily=Helvetica;fontSize=16;fontColor=#000000;labelBackgroundColor=#ffffff;startArrow=none;startFill=0;startSize=4;endArrow=classicThin;endFill=1;endSize=4;spacingLeft=0;spacingRight=0;spacingTop=0;spacing=0;fontStyle=1;labelBorderColor=#ff0000;fillColor=none;gradientColor=none;" parent="T5nMhFUUgPr07CCTaVCm-11" edge="1">
          <mxGeometry relative="1" as="geometry">
            <mxPoint x="840" y="130" as="sourcePoint" />
            <mxPoint x="920" y="390" as="targetPoint" />
          </mxGeometry>
        </mxCell>
        <mxCell id="YEjVcqrGfGyEUvBh3Uah-80" value="&amp;nbsp;9&amp;nbsp;" style="edgeLabel;html=1;align=center;verticalAlign=middle;resizable=0;points=[];rounded=1;strokeColor=#4277BB;strokeWidth=2;spacingLeft=0;spacingRight=0;spacingTop=0;spacing=0;fontFamily=Helvetica;fontSize=16;fontColor=#000000;fontStyle=1;labelBorderColor=#ff0000;labelBackgroundColor=#ffffff;fillColor=none;gradientColor=none;" parent="YEjVcqrGfGyEUvBh3Uah-79" vertex="1" connectable="0">
          <mxGeometry x="0.0846" relative="1" as="geometry">
            <mxPoint x="1" as="offset" />
          </mxGeometry>
        </mxCell>
        <mxCell id="YEjVcqrGfGyEUvBh3Uah-81" style="edgeStyle=orthogonalEdgeStyle;rounded=1;orthogonalLoop=1;jettySize=auto;html=1;entryX=0;entryY=0.5;entryDx=0;entryDy=0;strokeColor=#4277BB;strokeWidth=2;align=center;verticalAlign=middle;fontFamily=Helvetica;fontSize=16;fontColor=#000000;labelBackgroundColor=#ffffff;startArrow=none;startFill=0;startSize=4;endArrow=classicThin;endFill=1;endSize=4;spacingLeft=0;spacingRight=0;spacingTop=0;spacing=0;fontStyle=1;labelBorderColor=#ff0000;fillColor=none;gradientColor=none;" parent="T5nMhFUUgPr07CCTaVCm-11" edge="1">
          <mxGeometry relative="1" as="geometry">
            <mxPoint x="670" y="130" as="sourcePoint" />
            <mxPoint x="780" y="130" as="targetPoint" />
          </mxGeometry>
        </mxCell>
        <mxCell id="YEjVcqrGfGyEUvBh3Uah-82" value="&amp;nbsp;8&amp;nbsp;" style="edgeLabel;html=1;align=center;verticalAlign=middle;resizable=0;points=[];rounded=1;strokeColor=#4277BB;strokeWidth=2;spacingLeft=0;spacingRight=0;spacingTop=0;spacing=0;fontFamily=Helvetica;fontSize=16;fontColor=#000000;fontStyle=1;labelBorderColor=#ff0000;labelBackgroundColor=#ffffff;fillColor=none;gradientColor=none;" parent="YEjVcqrGfGyEUvBh3Uah-81" vertex="1" connectable="0">
          <mxGeometry x="0.0192" y="1" relative="1" as="geometry">
            <mxPoint as="offset" />
          </mxGeometry>
        </mxCell>
        <mxCell id="YEjVcqrGfGyEUvBh3Uah-83" style="edgeStyle=orthogonalEdgeStyle;rounded=1;orthogonalLoop=1;jettySize=auto;html=1;entryX=0.5;entryY=-0.125;entryDx=0;entryDy=0;entryPerimeter=0;labelBorderColor=default;labelBackgroundColor=#ffffff;strokeColor=#4277BB;strokeWidth=2;align=center;verticalAlign=middle;fontFamily=Helvetica;fontSize=11;fontColor=#000000;startArrow=none;startFill=0;startSize=4;endArrow=classicThin;endFill=1;endSize=4;" parent="T5nMhFUUgPr07CCTaVCm-11" edge="1">
          <mxGeometry relative="1" as="geometry">
            <mxPoint x="470" y="160" as="sourcePoint" />
            <mxPoint x="470" y="690" as="targetPoint" />
          </mxGeometry>
        </mxCell>
        <mxCell id="YEjVcqrGfGyEUvBh3Uah-84" value="&amp;nbsp;1&amp;nbsp;" style="edgeLabel;html=1;align=center;verticalAlign=middle;resizable=0;points=[];labelBorderColor=#ff0000;fontStyle=1;spacingTop=0;spacingLeft=0;spacingRight=0;spacing=0;fontSize=16;rounded=1;strokeColor=#4277BB;strokeWidth=2;fontFamily=Helvetica;fontColor=#000000;labelBackgroundColor=#ffffff;" parent="YEjVcqrGfGyEUvBh3Uah-83" vertex="1" connectable="0">
          <mxGeometry x="-0.0695" y="1" relative="1" as="geometry">
            <mxPoint as="offset" />
          </mxGeometry>
        </mxCell>
        <mxCell id="T5nMhFUUgPr07CCTaVCm-50" value="component" style="locked=1;" parent="T5nMhFUUgPr07CCTaVCm-0" />
        <mxCell id="YEjVcqrGfGyEUvBh3Uah-60" value="ENGINE" style="shape=mxgraph.ibm.box;prType=region;fontStyle=1;verticalAlign=top;align=left;spacingLeft=32;spacingTop=4;fillColor=none;rounded=0;whiteSpace=wrap;html=1;strokeColor=#4376BB;strokeWidth=1;dashed=1;container=0;spacing=-4;collapsible=0;expand=0;recursiveResize=0;fontFamily=Helvetica;fontSize=12;fontColor=#db3700;labelBorderColor=none;labelBackgroundColor=#f7f7f7;" parent="T5nMhFUUgPr07CCTaVCm-50" vertex="1">
          <mxGeometry x="560" y="280" width="160" height="280" as="geometry" />
        </mxCell>
        <mxCell id="YEjVcqrGfGyEUvBh3Uah-61" value="ITEMS PIPELINE" style="shape=mxgraph.ibm.box;prType=enterprise;fontStyle=1;verticalAlign=top;align=left;spacingLeft=32;spacingTop=4;fillColor=none;rounded=0;whiteSpace=wrap;html=1;strokeColor=#4376BB;strokeWidth=1;dashed=1;container=0;spacing=-4;collapsible=0;expand=0;recursiveResize=0;fontFamily=Helvetica;fontSize=12;fontColor=#db3700;labelBorderColor=none;labelBackgroundColor=#f7f7f7;" parent="T5nMhFUUgPr07CCTaVCm-50" vertex="1">
          <mxGeometry x="840" y="280" width="160" height="280" as="geometry" />
        </mxCell>
        <mxCell id="YEjVcqrGfGyEUvBh3Uah-62" value="&lt;b&gt;DOWNLOADER&lt;/b&gt;" style="shape=mxgraph.ibm.box;prType=public;fontStyle=0;verticalAlign=top;align=left;spacingLeft=32;spacingTop=4;fillColor=none;rounded=0;whiteSpace=wrap;html=1;strokeColor=#4376BB;strokeWidth=1;dashed=1;container=0;spacing=-4;collapsible=0;expand=0;recursiveResize=0;fontSize=12;fontFamily=Helvetica;fontColor=#db3700;labelBorderColor=none;labelBackgroundColor=#f7f7f7;" parent="T5nMhFUUgPr07CCTaVCm-50" vertex="1">
          <mxGeometry x="174" y="280" width="256" height="280" as="geometry" />
        </mxCell>
        <mxCell id="YEjVcqrGfGyEUvBh3Uah-63" value="&lt;span&gt;SCHEDULER&lt;/span&gt;" style="shape=mxgraph.ibm.box;prType=classic;fontStyle=1;verticalAlign=top;align=left;spacingLeft=32;spacingTop=4;fillColor=none;rounded=0;strokeColor=#4376BB;strokeWidth=1;dashed=1;container=0;spacing=-4;collapsible=0;expand=0;recursiveResize=0;fontFamily=Helvetica;fontSize=12;fontColor=#db3700;labelBackgroundColor=#f7f7f7;labelBorderColor=none;whiteSpace=wrap;html=1;" parent="T5nMhFUUgPr07CCTaVCm-50" vertex="1">
          <mxGeometry x="50" y="640" width="460" height="150" as="geometry" />
        </mxCell>
        <mxCell id="YEjVcqrGfGyEUvBh3Uah-64" value="&lt;b&gt;SPIDERS&lt;/b&gt;" style="shape=mxgraph.ibm.box;prType=public;fontStyle=0;verticalAlign=top;align=left;spacingLeft=32;spacingTop=4;fillColor=none;rounded=0;whiteSpace=wrap;html=1;strokeColor=#4376BB;strokeWidth=1;dashed=1;container=0;spacing=-4;collapsible=0;expand=0;recursiveResize=0;fontFamily=Helvetica;fontSize=12;fontColor=#db3700;labelBorderColor=none;labelBackgroundColor=#f7f7f7;" parent="T5nMhFUUgPr07CCTaVCm-50" vertex="1">
          <mxGeometry x="400" y="60" width="480" height="140" as="geometry" />
        </mxCell>
        <mxCell id="YEjVcqrGfGyEUvBh3Uah-9" value="Internet" style="image;aspect=fixed;perimeter=ellipsePerimeter;html=1;align=center;shadow=0;dashed=0;fontColor=#4277BB;labelBackgroundColor=#f7f7f7;fontSize=12;spacingTop=0;image=img/lib/ibm/applications/saas_applications.svg;strokeColor=default;verticalAlign=top;spacing=0;fontFamily=Helvetica;fontStyle=1;fillColor=default;container=0;rounded=0;strokeWidth=1;spacingLeft=0;" parent="T5nMhFUUgPr07CCTaVCm-50" vertex="1">
          <mxGeometry x="230" y="100" width="60" height="60" as="geometry" />
        </mxCell>
        <mxCell id="YEjVcqrGfGyEUvBh3Uah-10" value="Web/URL config" style="image;aspect=fixed;perimeter=ellipsePerimeter;html=1;align=center;shadow=0;dashed=0;fontColor=#4277BB;labelBackgroundColor=#f7f7f7;fontSize=12;spacingTop=0;image=img/lib/ibm/management/data_services.svg;strokeColor=default;verticalAlign=top;spacing=0;fontFamily=Helvetica;fontStyle=1;fillColor=default;container=0;rounded=0;strokeWidth=1;spacingLeft=0;" parent="T5nMhFUUgPr07CCTaVCm-50" vertex="1">
          <mxGeometry x="44" y="320" width="60" height="60" as="geometry" />
        </mxCell>
        <mxCell id="YEjVcqrGfGyEUvBh3Uah-11" value="API config" style="image;aspect=fixed;perimeter=ellipsePerimeter;html=1;align=center;shadow=0;dashed=0;fontColor=#4277BB;labelBackgroundColor=#f7f7f7;fontSize=12;spacingTop=0;image=img/lib/ibm/management/api_management.svg;strokeColor=default;verticalAlign=top;spacing=0;fontFamily=Helvetica;fontStyle=1;fillColor=default;container=0;rounded=0;strokeWidth=1;spacingLeft=0;" parent="T5nMhFUUgPr07CCTaVCm-50" vertex="1">
          <mxGeometry x="44" y="460" width="60" height="60" as="geometry" />
        </mxCell>
        <mxCell id="YEjVcqrGfGyEUvBh3Uah-12" value="Database" style="image;aspect=fixed;perimeter=ellipsePerimeter;html=1;align=center;shadow=0;dashed=0;fontColor=#4277BB;labelBackgroundColor=#f7f7f7;fontSize=12;spacingTop=0;image=img/lib/ibm/data/device_registry.svg;rounded=0;strokeColor=default;strokeWidth=1;verticalAlign=top;spacingLeft=0;spacing=0;fontFamily=Helvetica;fontStyle=1;fillColor=default;container=0;" parent="T5nMhFUUgPr07CCTaVCm-50" vertex="1">
          <mxGeometry x="1060" y="390" width="60" height="60" as="geometry" />
        </mxCell>
        <mxCell id="YEjVcqrGfGyEUvBh3Uah-14" value="Log Monitor" style="image;aspect=fixed;perimeter=ellipsePerimeter;html=1;align=center;shadow=0;dashed=0;fontColor=#4277BB;labelBackgroundColor=#f7f7f7;fontSize=12;spacingTop=0;image=img/lib/ibm/security/trustend_computing.svg;strokeColor=default;verticalAlign=top;spacing=0;fontFamily=Helvetica;fontStyle=1;fillColor=default;rounded=0;strokeWidth=1;spacingLeft=0;container=0;" parent="T5nMhFUUgPr07CCTaVCm-50" vertex="1">
          <mxGeometry x="610" y="460" width="60" height="60" as="geometry" />
        </mxCell>
        <mxCell id="YEjVcqrGfGyEUvBh3Uah-15" value="Engine" style="image;aspect=fixed;perimeter=ellipsePerimeter;html=1;align=center;shadow=0;dashed=0;fontColor=#4277BB;labelBackgroundColor=#f7f7f7;fontSize=12;spacingTop=0;image=img/lib/ibm/management/information_governance.svg;strokeColor=default;verticalAlign=top;spacing=0;fontFamily=Helvetica;fontStyle=1;fillColor=default;rounded=0;strokeWidth=1;spacingLeft=0;container=0;" parent="T5nMhFUUgPr07CCTaVCm-50" vertex="1">
          <mxGeometry x="610" y="320" width="60" height="60" as="geometry" />
        </mxCell>
        <mxCell id="YEjVcqrGfGyEUvBh3Uah-16" value="Item Processor" style="image;aspect=fixed;perimeter=ellipsePerimeter;html=1;align=center;shadow=0;dashed=0;fontColor=#4277BB;labelBackgroundColor=#f7f7f7;fontSize=12;spacingTop=0;image=img/lib/ibm/blockchain/existing_enterprise_systems.svg;rounded=0;strokeColor=default;strokeWidth=1;verticalAlign=top;spacingLeft=0;spacing=0;fontFamily=Helvetica;fontStyle=1;fillColor=default;container=0;" parent="T5nMhFUUgPr07CCTaVCm-50" vertex="1">
          <mxGeometry x="890" y="390" width="60" height="60" as="geometry" />
        </mxCell>
        <mxCell id="YEjVcqrGfGyEUvBh3Uah-17" value="Web Crawling" style="image;aspect=fixed;perimeter=ellipsePerimeter;html=1;align=center;shadow=0;dashed=0;fontColor=#4277BB;labelBackgroundColor=#f7f7f7;fontSize=12;spacingTop=0;image=img/lib/ibm/vpc/InternetServices2.svg;labelPosition=center;verticalLabelPosition=bottom;verticalAlign=top;fontStyle=1;spacing=0;rounded=0;strokeColor=default;strokeWidth=1;spacingLeft=0;fontFamily=Helvetica;fillColor=default;container=0;" parent="T5nMhFUUgPr07CCTaVCm-50" vertex="1">
          <mxGeometry x="204" y="320" width="60" height="60" as="geometry" />
        </mxCell>
        <mxCell id="YEjVcqrGfGyEUvBh3Uah-18" value="API Get" style="image;aspect=fixed;perimeter=ellipsePerimeter;html=1;align=center;shadow=0;dashed=0;fontColor=#4277BB;labelBackgroundColor=#f7f7f7;fontSize=12;spacingTop=0;image=img/lib/ibm/infrastructure/event_feed.svg;strokeColor=default;verticalAlign=top;spacing=0;fontFamily=Helvetica;fontStyle=1;fillColor=default;rounded=0;strokeWidth=1;spacingLeft=0;container=0;" parent="T5nMhFUUgPr07CCTaVCm-50" vertex="1">
          <mxGeometry x="204" y="460" width="60" height="60" as="geometry" />
        </mxCell>
        <mxCell id="YEjVcqrGfGyEUvBh3Uah-19" value="Downloader&lt;br&gt;Middlewares" style="image;aspect=fixed;perimeter=ellipsePerimeter;html=1;align=center;shadow=0;dashed=0;fontColor=#4277BB;labelBackgroundColor=#f7f7f7;fontSize=12;spacingTop=0;image=img/lib/ibm/vpc/CloudServices.svg;strokeColor=default;verticalAlign=top;spacing=0;fontFamily=Helvetica;fontStyle=1;fillColor=default;rounded=0;strokeWidth=1;spacingLeft=0;container=0;" parent="T5nMhFUUgPr07CCTaVCm-50" vertex="1">
          <mxGeometry x="324" y="390" width="60" height="60" as="geometry" />
        </mxCell>
        <mxCell id="YEjVcqrGfGyEUvBh3Uah-20" value="Next request" style="image;aspect=fixed;perimeter=ellipsePerimeter;html=1;align=center;shadow=0;dashed=0;fontColor=#4277BB;labelBackgroundColor=#f7f7f7;fontSize=12;spacingTop=0;image=img/lib/ibm/applications/annotate.svg;rounded=0;strokeColor=default;strokeWidth=1;verticalAlign=top;spacingLeft=0;spacing=0;fontFamily=Helvetica;fontStyle=1;fillColor=default;container=0;" parent="T5nMhFUUgPr07CCTaVCm-50" vertex="1">
          <mxGeometry x="90" y="690" width="60" height="60" as="geometry" />
        </mxCell>
        <mxCell id="YEjVcqrGfGyEUvBh3Uah-21" value="" style="sketch=0;outlineConnect=0;fontColor=#232F3E;gradientColor=none;fillColor=#ED7100;strokeColor=none;dashed=0;verticalLabelPosition=bottom;verticalAlign=top;align=center;html=1;fontSize=12;fontStyle=0;aspect=fixed;pointerEvents=1;shape=mxgraph.aws4.ecs_task;container=0;" parent="T5nMhFUUgPr07CCTaVCm-50" vertex="1">
          <mxGeometry x="451.5" y="696" width="37" height="48" as="geometry" />
        </mxCell>
        <mxCell id="YEjVcqrGfGyEUvBh3Uah-22" value="Request list" style="sketch=0;outlineConnect=0;fontColor=#4277bb;gradientColor=none;fillColor=#ED7100;strokeColor=none;dashed=0;verticalLabelPosition=bottom;verticalAlign=top;align=center;html=1;fontSize=12;fontStyle=1;aspect=fixed;pointerEvents=1;shape=mxgraph.aws4.ecs_task;container=0;" parent="T5nMhFUUgPr07CCTaVCm-50" vertex="1">
          <mxGeometry x="293" y="696" width="37" height="48" as="geometry" />
        </mxCell>
        <mxCell id="YEjVcqrGfGyEUvBh3Uah-23" value="" style="sketch=0;outlineConnect=0;fontColor=#232F3E;gradientColor=none;fillColor=#ED7100;strokeColor=none;dashed=0;verticalLabelPosition=bottom;verticalAlign=top;align=center;html=1;fontSize=12;fontStyle=0;aspect=fixed;pointerEvents=1;shape=mxgraph.aws4.ecs_task;container=0;" parent="T5nMhFUUgPr07CCTaVCm-50" vertex="1">
          <mxGeometry x="343" y="696" width="37" height="48" as="geometry" />
        </mxCell>
        <mxCell id="YEjVcqrGfGyEUvBh3Uah-24" value="" style="sketch=0;outlineConnect=0;fontColor=#232F3E;gradientColor=none;fillColor=#ED7100;strokeColor=none;dashed=0;verticalLabelPosition=bottom;verticalAlign=top;align=center;html=1;fontSize=12;fontStyle=0;aspect=fixed;pointerEvents=1;shape=mxgraph.aws4.ecs_task;container=0;" parent="T5nMhFUUgPr07CCTaVCm-50" vertex="1">
          <mxGeometry x="393" y="696" width="37" height="48" as="geometry" />
        </mxCell>
        <mxCell id="YEjVcqrGfGyEUvBh3Uah-26" value="Spider&lt;br&gt;Middlewares" style="image;aspect=fixed;perimeter=ellipsePerimeter;html=1;align=center;shadow=0;dashed=0;spacingTop=0;image=img/lib/ibm/blockchain/message_bus.svg;rounded=0;strokeColor=default;strokeWidth=1;verticalAlign=top;spacingLeft=0;spacing=0;fillColor=default;fontFamily=Helvetica;fontSize=12;fontColor=#4277BB;fontStyle=1;labelBackgroundColor=#f7f7f7;container=0;" parent="T5nMhFUUgPr07CCTaVCm-50" vertex="1">
          <mxGeometry x="780" y="100" width="60" height="60" as="geometry" />
        </mxCell>
        <mxCell id="YEjVcqrGfGyEUvBh3Uah-27" value="Start Request" style="image;aspect=fixed;perimeter=ellipsePerimeter;html=1;align=center;shadow=0;dashed=0;spacingTop=0;image=img/lib/ibm/applications/service_broker.svg;rounded=0;strokeColor=default;strokeWidth=1;verticalAlign=top;spacingLeft=0;spacing=0;fillColor=default;fontFamily=Helvetica;fontSize=12;fontColor=#4277BB;fontStyle=1;labelBackgroundColor=#f7f7f7;container=0;" parent="T5nMhFUUgPr07CCTaVCm-50" vertex="1">
          <mxGeometry x="440" y="100" width="60" height="60" as="geometry" />
        </mxCell>
        <mxCell id="YEjVcqrGfGyEUvBh3Uah-28" value="Content Extractor" style="image;aspect=fixed;perimeter=ellipsePerimeter;html=1;align=center;shadow=0;dashed=0;fontColor=#4277BB;labelBackgroundColor=#f7f7f7;fontSize=12;spacingTop=0;image=img/lib/ibm/vpc/PublicGateway.svg;strokeColor=default;verticalAlign=top;spacing=0;fontFamily=Helvetica;fontStyle=1;fillColor=default;container=0;rounded=0;strokeWidth=1;spacingLeft=0;" parent="T5nMhFUUgPr07CCTaVCm-50" vertex="1">
          <mxGeometry x="610" y="100" width="60" height="60" as="geometry" />
        </mxCell>
        <mxCell id="1NAr1dMkpUvFryfOVf2L-0" value="Tooltips" style="locked=1;" parent="T5nMhFUUgPr07CCTaVCm-0" />
        <mxCell id="tbckxZ4_YYkBZK1GYwUd-50" style="edgeStyle=orthogonalEdgeStyle;rounded=1;orthogonalLoop=1;jettySize=auto;html=1;entryX=0;entryY=0.5;entryDx=0;entryDy=0;strokeColor=#4277BB;strokeWidth=2;align=center;verticalAlign=middle;fontFamily=Helvetica;fontSize=11;fontColor=#000000;labelBackgroundColor=#ffffff;startArrow=none;startFill=0;startSize=4;endArrow=classicThin;endFill=1;endSize=4;" parent="1NAr1dMkpUvFryfOVf2L-0" edge="1">
          <mxGeometry relative="1" as="geometry">
            <mxPoint x="103.99999999999977" y="349.9999999999998" as="sourcePoint" />
          </mxGeometry>
        </mxCell>
        <mxCell id="tbckxZ4_YYkBZK1GYwUd-49" style="edgeStyle=orthogonalEdgeStyle;rounded=1;orthogonalLoop=1;jettySize=auto;html=1;entryX=0;entryY=0.5;entryDx=0;entryDy=0;strokeColor=#4277BB;strokeWidth=2;align=center;verticalAlign=middle;fontFamily=Helvetica;fontSize=11;fontColor=#000000;labelBackgroundColor=#ffffff;startArrow=none;startFill=0;startSize=4;endArrow=classicThin;endFill=1;endSize=4;" parent="1NAr1dMkpUvFryfOVf2L-0" edge="1">
          <mxGeometry relative="1" as="geometry">
            <mxPoint x="103.99999999999977" y="489.9999999999998" as="sourcePoint" />
          </mxGeometry>
        </mxCell>
        <mxCell id="tbckxZ4_YYkBZK1GYwUd-57" style="edgeStyle=orthogonalEdgeStyle;rounded=1;orthogonalLoop=1;jettySize=auto;html=1;entryX=0.5;entryY=0;entryDx=0;entryDy=0;strokeColor=#4277BB;strokeWidth=2;align=center;verticalAlign=middle;fontFamily=Helvetica;fontSize=11;fontColor=#000000;labelBackgroundColor=#ffffff;startArrow=none;startFill=0;startSize=4;endArrow=classicThin;endFill=1;endSize=4;" parent="1NAr1dMkpUvFryfOVf2L-0" edge="1">
          <mxGeometry relative="1" as="geometry">
            <mxPoint x="920" y="389.9999999999998" as="targetPoint" />
          </mxGeometry>
        </mxCell>
        <mxCell id="tbckxZ4_YYkBZK1GYwUd-60" style="edgeStyle=orthogonalEdgeStyle;rounded=1;orthogonalLoop=1;jettySize=auto;html=1;entryX=0;entryY=0.5;entryDx=0;entryDy=0;strokeColor=#4277BB;strokeWidth=2;align=center;verticalAlign=middle;fontFamily=Helvetica;fontSize=11;fontColor=#000000;labelBackgroundColor=#ffffff;startArrow=none;startFill=0;startSize=4;endArrow=classicThin;endFill=1;endSize=4;" parent="1NAr1dMkpUvFryfOVf2L-0" edge="1">
          <mxGeometry relative="1" as="geometry">
            <mxPoint x="1060" y="419.9999999999998" as="targetPoint" />
          </mxGeometry>
        </mxCell>
        <mxCell id="tbckxZ4_YYkBZK1GYwUd-51" style="edgeStyle=orthogonalEdgeStyle;rounded=1;orthogonalLoop=1;jettySize=auto;html=1;entryX=0;entryY=0.5;entryDx=0;entryDy=0;strokeColor=#4277BB;strokeWidth=2;align=center;verticalAlign=middle;fontFamily=Helvetica;fontSize=11;fontColor=#000000;labelBackgroundColor=#ffffff;startArrow=none;startFill=0;startSize=4;endArrow=classicThin;endFill=1;endSize=4;spacingLeft=32;spacingTop=4;spacing=-4;fontStyle=0;fillColor=none;" parent="1NAr1dMkpUvFryfOVf2L-0" edge="1">
          <mxGeometry relative="1" as="geometry">
            <mxPoint x="264" y="350.0000000000002" as="sourcePoint" />
          </mxGeometry>
        </mxCell>
        <mxCell id="tbckxZ4_YYkBZK1GYwUd-52" style="edgeStyle=orthogonalEdgeStyle;rounded=1;orthogonalLoop=1;jettySize=auto;html=1;entryX=0;entryY=0.5;entryDx=0;entryDy=0;strokeColor=#4277BB;strokeWidth=2;align=center;verticalAlign=middle;fontFamily=Helvetica;fontSize=11;fontColor=#000000;labelBackgroundColor=#ffffff;startArrow=none;startFill=0;startSize=4;endArrow=classicThin;endFill=1;endSize=4;spacingLeft=32;spacingTop=4;spacing=-4;fontStyle=0;fillColor=none;" parent="1NAr1dMkpUvFryfOVf2L-0" edge="1">
          <mxGeometry relative="1" as="geometry">
            <mxPoint x="264" y="490.0000000000002" as="sourcePoint" />
          </mxGeometry>
        </mxCell>
        <mxCell id="tbckxZ4_YYkBZK1GYwUd-45" style="edgeStyle=orthogonalEdgeStyle;rounded=1;orthogonalLoop=1;jettySize=auto;html=1;strokeColor=#4277BB;strokeWidth=2;align=center;verticalAlign=middle;fontFamily=Helvetica;fontSize=11;fontColor=#000000;labelBackgroundColor=#ffffff;startArrow=none;startFill=0;startSize=4;endArrow=classicThin;endFill=1;endSize=4;" parent="1NAr1dMkpUvFryfOVf2L-0" edge="1">
          <mxGeometry relative="1" as="geometry">
            <mxPoint x="740" y="720.0000000000002" as="targetPoint" />
          </mxGeometry>
        </mxCell>
        <mxCell id="tbckxZ4_YYkBZK1GYwUd-56" style="edgeStyle=orthogonalEdgeStyle;rounded=1;orthogonalLoop=1;jettySize=auto;html=1;strokeColor=#4277BB;strokeWidth=2;align=center;verticalAlign=middle;fontFamily=Helvetica;fontSize=11;fontColor=#000000;labelBackgroundColor=#ffffff;startArrow=none;startFill=0;startSize=4;endArrow=classicThin;endFill=1;endSize=4;" parent="1NAr1dMkpUvFryfOVf2L-0" edge="1">
          <mxGeometry relative="1" as="geometry">
            <mxPoint x="780" y="130" as="targetPoint" />
          </mxGeometry>
        </mxCell>
        <mxCell id="_1170VhPNE4nAhP64lEk-1" value="&lt;font style=&quot;font-size: 12px;&quot;&gt;&lt;font color=&quot;#ff0000&quot; style=&quot;font-size: 12px;&quot;&gt;&lt;b&gt;1. &lt;/b&gt;&lt;/font&gt;&lt;b&gt;Spiders &lt;/b&gt;send an initial request to run task to &lt;b&gt;Engine&lt;/b&gt;.&lt;br style=&quot;font-size: 12px;&quot;&gt;&lt;font color=&quot;#ff0000&quot;&gt;&lt;b&gt;2.&lt;/b&gt;&lt;/font&gt; &lt;b&gt;Engine&amp;nbsp;&lt;/b&gt;queues the request just received into the &lt;b&gt;Scheduler &lt;/b&gt;and requests the next request in the &lt;b&gt;Scheduler&lt;/b&gt;.&lt;br style=&quot;font-size: 12px;&quot;&gt;&lt;font color=&quot;#ff0000&quot;&gt;&lt;b&gt;3.&lt;/b&gt;&lt;/font&gt; &lt;b&gt;Scheduler &lt;/b&gt;send the next request to &lt;b&gt;Downloader &lt;/b&gt;via &lt;b&gt;Engine&lt;/b&gt;.&lt;br style=&quot;font-size: 12px;&quot;&gt;&lt;font color=&quot;#ff0000&quot;&gt;&lt;b&gt;4-5-6.&lt;/b&gt; &lt;/font&gt;&lt;b&gt;Downloader &lt;/b&gt;read config, select a crawl pipeline (by API or Web URL) to get data from &lt;b&gt;Internet&lt;/b&gt;, &lt;b&gt;Downloader Middlewares&lt;/b&gt; filter response base on categories, keyword, ID, publication dates,...&lt;br style=&quot;font-size: 12px;&quot;&gt;&lt;b&gt;&lt;font color=&quot;#ff0000&quot;&gt;7.&lt;/font&gt; Engine &lt;/b&gt;receives data from &lt;b&gt;Downloader Middlewares&lt;/b&gt;, then send to &lt;b&gt;Content Extractor&lt;/b&gt;&lt;br style=&quot;font-size: 12px;&quot;&gt;&lt;font color=&quot;#ff0000&quot;&gt;&lt;b&gt;8.&lt;/b&gt;&lt;/font&gt; Extracted item send to &lt;b&gt;Spider Middlewares&lt;/b&gt; to post-processing items data customized by data source.&lt;br style=&quot;font-size: 12px;&quot;&gt;&lt;b&gt;&lt;font color=&quot;#ff0000&quot;&gt;9.&lt;/font&gt; &lt;/b&gt;Items send to &lt;b&gt;Item Processor&lt;/b&gt; to post-processing by rule-base.&lt;br style=&quot;font-size: 12px;&quot;&gt;&lt;font color=&quot;#ff0000&quot;&gt;&lt;b&gt;10. &lt;/b&gt;&lt;/font&gt;Items would be storaged in &lt;b&gt;Database&lt;/b&gt;.&lt;br style=&quot;font-size: 12px;&quot;&gt;&lt;b&gt;&lt;font color=&quot;#ff0000&quot;&gt;11.&lt;/font&gt; Spiders &lt;/b&gt;send the request to &lt;b&gt;Scheduler &lt;/b&gt;to extract the next request in queue.&lt;/font&gt;" style="text;html=1;align=left;verticalAlign=middle;whiteSpace=wrap;rounded=0;fontSize=12;labelBorderColor=none;dashed=1;strokeColor=#4277bb;" parent="1NAr1dMkpUvFryfOVf2L-0" vertex="1">
          <mxGeometry x="530" y="640" width="600" height="150" as="geometry" />
        </mxCell>
        <mxCell id="_1170VhPNE4nAhP64lEk-5" value="Workflow" style="text;html=1;align=center;verticalAlign=middle;resizable=0;points=[];autosize=1;strokeColor=none;fillColor=none;fontSize=18;fontColor=#4277BB;shadow=0;dashed=1;labelBackgroundColor=#f7f7f7;fontStyle=1;spacingLeft=5;startSize=0;strokeWidth=1;rounded=0;labelBorderColor=none;" parent="1NAr1dMkpUvFryfOVf2L-0" vertex="1">
          <mxGeometry x="775" y="608" width="110" height="40" as="geometry" />
        </mxCell>
      </root>
    </mxGraphModel>
  </diagram>
  <diagram name="Classification" id="sSgcn49K3_m9SxGdlh-y">
    <mxGraphModel dx="1434" dy="884" grid="1" gridSize="10" guides="1" tooltips="1" connect="1" arrows="1" fold="1" page="1" pageScale="1" pageWidth="1169" pageHeight="827" background="#F7F7F7" math="0" shadow="0">
      <root>
        <mxCell id="tsTBG0OW0sEVrxMQ48GY-0" />
        <mxCell id="tsTBG0OW0sEVrxMQ48GY-1" style="locked=1;" parent="tsTBG0OW0sEVrxMQ48GY-0" />
        <mxCell id="tsTBG0OW0sEVrxMQ48GY-2" value="" style="rounded=0;whiteSpace=wrap;html=1;align=right;fillColor=none;strokeColor=#4277BB;fontColor=#cf4002;fontStyle=1;startSize=0;shadow=0;labelBackgroundColor=#f7f7f7;gradientColor=none;strokeWidth=3;glass=0;movable=1;resizable=1;rotatable=1;deletable=1;editable=1;locked=0;connectable=1;" vertex="1" parent="tsTBG0OW0sEVrxMQ48GY-1">
          <mxGeometry x="10" y="18" width="1130" height="790" as="geometry" />
        </mxCell>
        <mxCell id="tsTBG0OW0sEVrxMQ48GY-3" value="NEWS CLASSIFIER" style="text;html=1;align=left;verticalAlign=middle;resizable=0;points=[];autosize=1;strokeColor=none;fillColor=none;fontSize=26;fontColor=#4277BB;shadow=0;dashed=1;labelBackgroundColor=#f7f7f7;fontStyle=1;spacingLeft=5;startSize=0;strokeWidth=1;rounded=0;labelBorderColor=none;" vertex="1" parent="tsTBG0OW0sEVrxMQ48GY-1">
          <mxGeometry x="455" width="260" height="40" as="geometry" />
        </mxCell>
        <mxCell id="cD5rCb-h-5v2hoVl_X0S-0" value="" style="swimlane;shadow=0;labelBackgroundColor=#007FFF;strokeColor=#4277BB;fillColor=none;gradientColor=none;fontColor=#000000;align=right;collapsible=0;startSize=0;strokeWidth=2;swimlaneLine=1;swimlaneFillColor=none;dashed=1;opacity=50;" vertex="1" parent="tsTBG0OW0sEVrxMQ48GY-1">
          <mxGeometry x="210" y="60" width="460" height="141" as="geometry" />
        </mxCell>
        <mxCell id="bVcxfSKR-bPxtgqNd2lj-1" value="" style="html=1;labelBackgroundColor=#007FFF;endArrow=none;endFill=0;jettySize=auto;orthogonalLoop=1;strokeWidth=2;dashed=1;fontSize=12;rounded=0;shadow=0;opacity=50;strokeColor=#4277BB;align=right;verticalAlign=middle;swimlaneFillColor=none;fontFamily=Helvetica;fontColor=#000000;fontStyle=1;startSize=0;fillColor=none;gradientColor=none;" edge="1" parent="cD5rCb-h-5v2hoVl_X0S-0">
          <mxGeometry width="60" height="60" relative="1" as="geometry">
            <mxPoint x="280" y="110" as="sourcePoint" />
            <mxPoint x="280" y="20" as="targetPoint" />
          </mxGeometry>
        </mxCell>
        <mxCell id="bVcxfSKR-bPxtgqNd2lj-2" value="" style="swimlane;shadow=0;labelBackgroundColor=#007FFF;strokeColor=#4277BB;fillColor=none;gradientColor=none;fontColor=#000000;align=right;collapsible=0;startSize=0;strokeWidth=2;swimlaneLine=1;swimlaneFillColor=none;dashed=1;opacity=50;" vertex="1" parent="tsTBG0OW0sEVrxMQ48GY-1">
          <mxGeometry x="210" y="250" width="660" height="141" as="geometry" />
        </mxCell>
        <mxCell id="bVcxfSKR-bPxtgqNd2lj-4" value="" style="swimlane;shadow=0;labelBackgroundColor=#007FFF;strokeColor=#4277BB;fillColor=none;gradientColor=none;fontColor=#000000;align=right;collapsible=0;startSize=0;strokeWidth=2;swimlaneLine=1;swimlaneFillColor=none;dashed=1;opacity=50;" vertex="1" parent="tsTBG0OW0sEVrxMQ48GY-1">
          <mxGeometry x="50" y="430" width="180" height="350" as="geometry" />
        </mxCell>
        <mxCell id="bVcxfSKR-bPxtgqNd2lj-5" value="Feature Engineering" style="text;html=1;align=center;verticalAlign=middle;fontColor=#4277BB;shadow=0;strokeColor=#3977b7;fillColor=#f7f7f7;labelBackgroundColor=#f7f7f7;fontStyle=1;fontSize=14;spacingLeft=5;startSize=0;strokeWidth=1;perimeterSpacing=1;rounded=0;labelBorderColor=none;" vertex="1" parent="bVcxfSKR-bPxtgqNd2lj-4">
          <mxGeometry x="12.75" y="-10" width="154.5" height="20" as="geometry" />
        </mxCell>
        <mxCell id="bVcxfSKR-bPxtgqNd2lj-6" value="" style="swimlane;shadow=0;labelBackgroundColor=#007FFF;strokeColor=#4277BB;fillColor=none;gradientColor=none;fontColor=#000000;align=right;collapsible=0;startSize=0;strokeWidth=2;swimlaneLine=1;swimlaneFillColor=none;dashed=1;opacity=50;" vertex="1" parent="tsTBG0OW0sEVrxMQ48GY-1">
          <mxGeometry x="290" y="639" width="580" height="141" as="geometry" />
        </mxCell>
        <mxCell id="bVcxfSKR-bPxtgqNd2lj-10" value="" style="swimlane;shadow=0;labelBackgroundColor=#007FFF;strokeColor=#4277BB;fillColor=none;gradientColor=none;fontColor=#000000;align=right;collapsible=0;startSize=0;strokeWidth=2;swimlaneLine=1;swimlaneFillColor=none;dashed=1;opacity=50;" vertex="1" parent="tsTBG0OW0sEVrxMQ48GY-1">
          <mxGeometry x="930" y="400" width="180" height="380" as="geometry" />
        </mxCell>
        <mxCell id="KTaoDwt1dpeECvHoHhkL-0" value="Data Preparation" style="text;html=1;align=center;verticalAlign=middle;fontColor=#4277BB;shadow=0;strokeColor=#3977b7;fillColor=#f7f7f7;labelBackgroundColor=#f7f7f7;fontStyle=1;fontSize=14;spacingLeft=5;startSize=0;strokeWidth=1;perimeterSpacing=1;rounded=0;labelBorderColor=none;" vertex="1" parent="tsTBG0OW0sEVrxMQ48GY-1">
          <mxGeometry x="372.75" y="50" width="134.5" height="20" as="geometry" />
        </mxCell>
        <mxCell id="bVcxfSKR-bPxtgqNd2lj-11" value="Model Deployment" style="text;html=1;align=center;verticalAlign=middle;fontColor=#4277BB;shadow=0;strokeColor=#3977b7;fillColor=#f7f7f7;labelBackgroundColor=#f7f7f7;fontStyle=1;fontSize=14;spacingLeft=5;startSize=0;strokeWidth=1;perimeterSpacing=1;rounded=0;labelBorderColor=none;" vertex="1" parent="tsTBG0OW0sEVrxMQ48GY-1">
          <mxGeometry x="942.75" y="390" width="154.5" height="20" as="geometry" />
        </mxCell>
        <mxCell id="bVcxfSKR-bPxtgqNd2lj-14" value="" style="swimlane;shadow=0;labelBackgroundColor=#007FFF;strokeColor=#4277BB;fillColor=none;gradientColor=none;fontColor=#000000;align=right;collapsible=0;startSize=0;strokeWidth=2;swimlaneLine=1;swimlaneFillColor=none;dashed=1;opacity=50;" vertex="1" parent="tsTBG0OW0sEVrxMQ48GY-1">
          <mxGeometry x="500" y="430" width="370" height="160" as="geometry" />
        </mxCell>
        <mxCell id="bVcxfSKR-bPxtgqNd2lj-16" value="" style="swimlane;shadow=0;labelBackgroundColor=#007FFF;strokeColor=#4277BB;fillColor=none;gradientColor=none;fontColor=#000000;align=right;collapsible=0;startSize=0;strokeWidth=2;swimlaneLine=1;swimlaneFillColor=none;dashed=1;opacity=50;" vertex="1" parent="tsTBG0OW0sEVrxMQ48GY-1">
          <mxGeometry x="930" y="60" width="180" height="290" as="geometry" />
        </mxCell>
        <mxCell id="bVcxfSKR-bPxtgqNd2lj-17" value="Output &amp;amp; Log" style="text;html=1;align=center;verticalAlign=middle;fontColor=#4277BB;shadow=0;strokeColor=#3977b7;fillColor=#f7f7f7;labelBackgroundColor=#f7f7f7;fontStyle=1;fontSize=14;spacingLeft=5;startSize=0;strokeWidth=1;perimeterSpacing=1;rounded=0;labelBorderColor=none;" vertex="1" parent="bVcxfSKR-bPxtgqNd2lj-16">
          <mxGeometry x="36.370000000000005" y="-10" width="107.25" height="20" as="geometry" />
        </mxCell>
        <mxCell id="l_bGZoFVoLTzXPlWhcTy-37" value="Serving &amp;amp; Consume" style="text;html=1;align=center;verticalAlign=middle;fontColor=#4277BB;shadow=0;strokeColor=#3977b7;fillColor=#f7f7f7;labelBackgroundColor=#f7f7f7;fontStyle=1;fontSize=14;spacingLeft=5;startSize=0;strokeWidth=1;perimeterSpacing=1;rounded=0;labelBorderColor=none;" vertex="1" parent="tsTBG0OW0sEVrxMQ48GY-1">
          <mxGeometry x="614.5" y="420" width="154.5" height="20" as="geometry" />
        </mxCell>
        <mxCell id="l_bGZoFVoLTzXPlWhcTy-38" value="Data Preprocessing" style="text;html=1;align=center;verticalAlign=middle;fontColor=#4277BB;shadow=0;strokeColor=#3977b7;fillColor=#f7f7f7;labelBackgroundColor=#f7f7f7;fontStyle=1;fontSize=14;spacingLeft=5;startSize=0;strokeWidth=1;perimeterSpacing=1;rounded=0;labelBorderColor=none;" vertex="1" parent="tsTBG0OW0sEVrxMQ48GY-1">
          <mxGeometry x="460" y="240" width="154.5" height="20" as="geometry" />
        </mxCell>
        <mxCell id="l_bGZoFVoLTzXPlWhcTy-39" value="Model Development" style="text;html=1;align=center;verticalAlign=middle;fontColor=#4277BB;shadow=0;strokeColor=#3977b7;fillColor=#f7f7f7;labelBackgroundColor=#f7f7f7;fontStyle=1;fontSize=14;spacingLeft=5;startSize=0;strokeWidth=1;perimeterSpacing=1;rounded=0;labelBorderColor=none;" vertex="1" parent="tsTBG0OW0sEVrxMQ48GY-1">
          <mxGeometry x="490" y="629" width="154.5" height="20" as="geometry" />
        </mxCell>
        <mxCell id="tsTBG0OW0sEVrxMQ48GY-4" value="flow" style="locked=1;" parent="tsTBG0OW0sEVrxMQ48GY-0" />
        <mxCell id="tsTBG0OW0sEVrxMQ48GY-5" style="edgeStyle=orthogonalEdgeStyle;rounded=1;orthogonalLoop=1;jettySize=auto;html=1;strokeColor=#f38c16;strokeWidth=2;align=center;verticalAlign=middle;fontFamily=Helvetica;fontSize=16;fontColor=#000000;labelBackgroundColor=#ffffff;startArrow=oval;startFill=1;startSize=4;endArrow=classicThin;endFill=1;endSize=4;spacingLeft=0;spacingRight=0;spacingTop=0;spacing=0;fontStyle=1;labelBorderColor=#ff0000;fillColor=none;gradientColor=none;dashed=1;dashPattern=1 1;" edge="1" parent="tsTBG0OW0sEVrxMQ48GY-4">
          <mxGeometry relative="1" as="geometry">
            <mxPoint x="120" y="250" as="sourcePoint" />
            <mxPoint x="210" y="320" as="targetPoint" />
            <Array as="points">
              <mxPoint x="120" y="320" />
            </Array>
          </mxGeometry>
        </mxCell>
        <mxCell id="tsTBG0OW0sEVrxMQ48GY-7" style="edgeStyle=orthogonalEdgeStyle;rounded=1;orthogonalLoop=1;jettySize=auto;html=1;strokeColor=#f38c16;strokeWidth=2;align=center;verticalAlign=middle;fontFamily=Helvetica;fontSize=16;fontColor=#000000;labelBackgroundColor=#ffffff;startArrow=oval;startFill=1;startSize=4;endArrow=classicThin;endFill=1;endSize=4;spacingLeft=0;spacingRight=0;spacingTop=0;spacing=0;fontStyle=1;labelBorderColor=#ff0000;fillColor=none;gradientColor=none;dashed=1;dashPattern=1 1;" edge="1" parent="tsTBG0OW0sEVrxMQ48GY-4">
          <mxGeometry relative="1" as="geometry">
            <mxPoint x="870" y="710" as="sourcePoint" />
            <mxPoint x="930" y="711" as="targetPoint" />
            <Array as="points" />
          </mxGeometry>
        </mxCell>
        <mxCell id="tsTBG0OW0sEVrxMQ48GY-8" value="&amp;nbsp;5&amp;nbsp;" style="edgeLabel;html=1;align=center;verticalAlign=middle;resizable=0;points=[];rounded=1;strokeColor=#4277BB;strokeWidth=2;spacingLeft=0;spacingRight=0;spacingTop=0;spacing=0;fontFamily=Helvetica;fontSize=16;fontColor=#000000;fontStyle=1;labelBorderColor=#f38c16;labelBackgroundColor=#ffffff;fillColor=none;gradientColor=none;dashed=1;dashPattern=1 1;" vertex="1" connectable="0" parent="tsTBG0OW0sEVrxMQ48GY-7">
          <mxGeometry x="-0.2291" relative="1" as="geometry">
            <mxPoint as="offset" />
          </mxGeometry>
        </mxCell>
        <mxCell id="tsTBG0OW0sEVrxMQ48GY-11" style="edgeStyle=orthogonalEdgeStyle;rounded=1;orthogonalLoop=1;jettySize=auto;html=1;strokeColor=#9e0000;strokeWidth=2;align=center;verticalAlign=middle;fontFamily=Helvetica;fontSize=16;fontColor=#000000;labelBackgroundColor=#ffffff;startArrow=oval;startFill=1;startSize=4;endArrow=classicThin;endFill=1;endSize=4;spacingLeft=0;spacingRight=0;spacingTop=0;spacing=0;fontStyle=1;labelBorderColor=#ff0000;fillColor=none;gradientColor=none;dashed=1;dashPattern=1 1;" edge="1" parent="tsTBG0OW0sEVrxMQ48GY-4">
          <mxGeometry relative="1" as="geometry">
            <mxPoint x="330" y="510" as="sourcePoint" />
            <mxPoint x="230" y="510" as="targetPoint" />
            <Array as="points">
              <mxPoint x="330" y="511" />
              <mxPoint x="261" y="511" />
              <mxPoint x="240" y="510" />
            </Array>
          </mxGeometry>
        </mxCell>
        <mxCell id="tsTBG0OW0sEVrxMQ48GY-13" style="edgeStyle=orthogonalEdgeStyle;rounded=1;orthogonalLoop=1;jettySize=auto;html=1;strokeColor=#f38c16;strokeWidth=2;align=center;verticalAlign=middle;fontFamily=Helvetica;fontSize=16;fontColor=#000000;labelBackgroundColor=#ffffff;startArrow=oval;startFill=1;startSize=4;endArrow=classicThin;endFill=1;endSize=4;spacingLeft=0;spacingRight=0;spacingTop=0;spacing=0;fontStyle=1;labelBorderColor=#ff0000;fillColor=none;gradientColor=none;dashed=1;dashPattern=1 1;" edge="1" parent="tsTBG0OW0sEVrxMQ48GY-4">
          <mxGeometry relative="1" as="geometry">
            <mxPoint x="230" y="710" as="sourcePoint" />
            <mxPoint x="290" y="710" as="targetPoint" />
          </mxGeometry>
        </mxCell>
        <mxCell id="tsTBG0OW0sEVrxMQ48GY-14" value="&amp;nbsp;4&amp;nbsp;" style="edgeLabel;html=1;align=center;verticalAlign=middle;resizable=0;points=[];rounded=1;strokeColor=#4277BB;strokeWidth=2;spacingLeft=0;spacingRight=0;spacingTop=0;spacing=0;fontFamily=Helvetica;fontSize=16;fontColor=#000000;fontStyle=1;labelBorderColor=#f38c16;labelBackgroundColor=#ffffff;fillColor=none;gradientColor=none;dashed=1;dashPattern=1 1;" vertex="1" connectable="0" parent="tsTBG0OW0sEVrxMQ48GY-13">
          <mxGeometry relative="1" as="geometry">
            <mxPoint as="offset" />
          </mxGeometry>
        </mxCell>
        <mxCell id="tsTBG0OW0sEVrxMQ48GY-15" style="edgeStyle=orthogonalEdgeStyle;rounded=1;orthogonalLoop=1;jettySize=auto;html=1;strokeColor=#f38c16;strokeWidth=2;align=center;verticalAlign=middle;fontFamily=Helvetica;fontSize=16;fontColor=#000000;labelBackgroundColor=#ffffff;startArrow=oval;startFill=1;startSize=4;endArrow=classicThin;endFill=1;endSize=4;spacingLeft=0;spacingRight=0;spacingTop=0;spacing=0;fontStyle=1;labelBorderColor=#ff0000;fillColor=none;gradientColor=none;dashed=1;dashPattern=1 1;" edge="1" parent="tsTBG0OW0sEVrxMQ48GY-4">
          <mxGeometry relative="1" as="geometry">
            <mxPoint x="870" y="490" as="sourcePoint" />
            <mxPoint x="930" y="300" as="targetPoint" />
            <Array as="points">
              <mxPoint x="900" y="490" />
              <mxPoint x="900" y="300" />
            </Array>
          </mxGeometry>
        </mxCell>
        <mxCell id="tsTBG0OW0sEVrxMQ48GY-16" value="&amp;nbsp;7&amp;nbsp;" style="edgeLabel;html=1;align=center;verticalAlign=middle;resizable=0;points=[];rounded=1;strokeColor=#4277BB;strokeWidth=2;spacingLeft=0;spacingRight=0;spacingTop=0;spacing=0;fontFamily=Helvetica;fontSize=16;fontColor=#000000;fontStyle=1;labelBorderColor=#f38c16;labelBackgroundColor=#ffffff;fillColor=none;gradientColor=none;dashed=1;dashPattern=1 1;" vertex="1" connectable="0" parent="tsTBG0OW0sEVrxMQ48GY-15">
          <mxGeometry x="0.2313" relative="1" as="geometry">
            <mxPoint as="offset" />
          </mxGeometry>
        </mxCell>
        <mxCell id="tsTBG0OW0sEVrxMQ48GY-17" style="edgeStyle=orthogonalEdgeStyle;rounded=1;orthogonalLoop=1;jettySize=auto;html=1;strokeColor=#f38c16;strokeWidth=2;align=center;verticalAlign=middle;fontFamily=Helvetica;fontSize=16;fontColor=#000000;labelBackgroundColor=#ffffff;startArrow=oval;startFill=1;startSize=4;endArrow=classicThin;endFill=1;endSize=4;spacingLeft=0;spacingRight=0;spacingTop=0;spacing=0;fontStyle=1;labelBorderColor=#ff0000;fillColor=none;gradientColor=none;dashed=1;dashPattern=1 1;" edge="1" parent="tsTBG0OW0sEVrxMQ48GY-4">
          <mxGeometry relative="1" as="geometry">
            <mxPoint x="930" y="520" as="sourcePoint" />
            <mxPoint x="870" y="520" as="targetPoint" />
            <Array as="points">
              <mxPoint x="900" y="520" />
              <mxPoint x="900" y="520" />
            </Array>
          </mxGeometry>
        </mxCell>
        <mxCell id="tsTBG0OW0sEVrxMQ48GY-18" value="&amp;nbsp;6&amp;nbsp;" style="edgeLabel;html=1;align=center;verticalAlign=middle;resizable=0;points=[];rounded=1;strokeColor=#4277BB;strokeWidth=2;spacingLeft=0;spacingRight=0;spacingTop=0;spacing=0;fontFamily=Helvetica;fontSize=16;fontColor=#000000;fontStyle=1;labelBorderColor=#f38c16;labelBackgroundColor=#ffffff;fillColor=none;gradientColor=none;dashed=1;dashPattern=1 1;" vertex="1" connectable="0" parent="tsTBG0OW0sEVrxMQ48GY-17">
          <mxGeometry x="0.0077" relative="1" as="geometry">
            <mxPoint as="offset" />
          </mxGeometry>
        </mxCell>
        <mxCell id="tsTBG0OW0sEVrxMQ48GY-23" style="edgeStyle=orthogonalEdgeStyle;rounded=1;orthogonalLoop=1;jettySize=auto;html=1;strokeColor=#f38c16;align=center;verticalAlign=middle;fontFamily=Helvetica;fontSize=16;fontColor=#000000;labelBorderColor=#ff0000;labelBackgroundColor=#ffffff;endArrow=classicThin;strokeWidth=2;startArrow=oval;startFill=1;startSize=4;endFill=1;endSize=4;spacingLeft=0;spacingRight=0;spacingTop=0;spacing=0;fontStyle=1;fillColor=none;gradientColor=none;dashed=1;dashPattern=1 1;" edge="1" parent="tsTBG0OW0sEVrxMQ48GY-4">
          <mxGeometry relative="1" as="geometry">
            <mxPoint x="210" y="130" as="sourcePoint" />
            <mxPoint x="120" y="190" as="targetPoint" />
          </mxGeometry>
        </mxCell>
        <mxCell id="tsTBG0OW0sEVrxMQ48GY-24" value="&amp;nbsp;2&amp;nbsp;" style="edgeLabel;html=1;align=center;verticalAlign=middle;resizable=0;points=[];rounded=1;strokeColor=#4277BB;fontFamily=Helvetica;fontSize=16;fontColor=#000000;labelBorderColor=#f38c16;labelBackgroundColor=#ffffff;spacingLeft=0;spacingRight=0;spacingTop=0;spacing=0;fontStyle=1;fillColor=none;gradientColor=none;strokeWidth=2;dashed=1;dashPattern=1 1;" vertex="1" connectable="0" parent="tsTBG0OW0sEVrxMQ48GY-23">
          <mxGeometry x="-0.0762" y="-2" relative="1" as="geometry">
            <mxPoint x="-21" y="32" as="offset" />
          </mxGeometry>
        </mxCell>
        <mxCell id="tsTBG0OW0sEVrxMQ48GY-25" style="edgeStyle=orthogonalEdgeStyle;rounded=1;orthogonalLoop=1;jettySize=auto;html=1;strokeColor=#1cab12;strokeWidth=2;align=center;verticalAlign=middle;fontFamily=Helvetica;fontSize=16;fontColor=#000000;labelBackgroundColor=#ffffff;startArrow=none;startFill=0;startSize=4;endArrow=classicThin;endFill=1;endSize=4;spacingLeft=0;spacingRight=0;spacingTop=0;spacing=0;fontStyle=1;labelBorderColor=#ff0000;fillColor=none;gradientColor=none;dashed=1;dashPattern=1 1;" edge="1" parent="tsTBG0OW0sEVrxMQ48GY-4">
          <mxGeometry relative="1" as="geometry">
            <mxPoint x="930" y="120" as="sourcePoint" />
            <mxPoint x="830" y="120" as="targetPoint" />
          </mxGeometry>
        </mxCell>
        <mxCell id="tsTBG0OW0sEVrxMQ48GY-26" value="&amp;nbsp;8&amp;nbsp;" style="edgeLabel;html=1;align=center;verticalAlign=middle;resizable=0;points=[];rounded=1;strokeColor=#4277BB;strokeWidth=2;spacingLeft=0;spacingRight=0;spacingTop=0;spacing=0;fontFamily=Helvetica;fontSize=16;fontColor=#000000;fontStyle=1;labelBorderColor=#1cab12;labelBackgroundColor=#ffffff;fillColor=none;gradientColor=none;" vertex="1" connectable="0" parent="tsTBG0OW0sEVrxMQ48GY-25">
          <mxGeometry x="0.0846" relative="1" as="geometry">
            <mxPoint x="1" as="offset" />
          </mxGeometry>
        </mxCell>
        <mxCell id="tsTBG0OW0sEVrxMQ48GY-29" style="edgeStyle=orthogonalEdgeStyle;rounded=1;orthogonalLoop=1;jettySize=auto;html=1;labelBorderColor=#ff0000;labelBackgroundColor=#ffffff;strokeColor=#f38c16;strokeWidth=2;align=center;verticalAlign=middle;fontFamily=Helvetica;fontSize=16;fontColor=#000000;startArrow=oval;startFill=1;startSize=4;endArrow=classicThin;endFill=1;endSize=4;dashed=1;dashPattern=1 1;spacingLeft=0;spacingRight=0;spacingTop=0;spacing=0;fontStyle=1;fillColor=none;gradientColor=none;" edge="1" parent="tsTBG0OW0sEVrxMQ48GY-4">
          <mxGeometry relative="1" as="geometry">
            <mxPoint x="770" y="120" as="sourcePoint" />
            <mxPoint x="670" y="120" as="targetPoint" />
          </mxGeometry>
        </mxCell>
        <mxCell id="tsTBG0OW0sEVrxMQ48GY-30" value="&amp;nbsp;1&amp;nbsp;" style="edgeLabel;html=1;align=center;verticalAlign=middle;resizable=0;points=[];labelBorderColor=#f38c16;fontStyle=1;spacingTop=0;spacingLeft=0;spacingRight=0;spacing=0;fontSize=16;rounded=1;strokeColor=#4277BB;strokeWidth=2;fontFamily=Helvetica;fontColor=#000000;labelBackgroundColor=#ffffff;dashed=1;dashPattern=1 1;fillColor=none;gradientColor=none;" vertex="1" connectable="0" parent="tsTBG0OW0sEVrxMQ48GY-29">
          <mxGeometry x="-0.0695" y="1" relative="1" as="geometry">
            <mxPoint as="offset" />
          </mxGeometry>
        </mxCell>
        <mxCell id="l_bGZoFVoLTzXPlWhcTy-3" style="edgeStyle=orthogonalEdgeStyle;rounded=1;orthogonalLoop=1;jettySize=auto;html=1;strokeColor=#9e0000;strokeWidth=2;align=center;verticalAlign=middle;fontFamily=Helvetica;fontSize=16;fontColor=#000000;labelBackgroundColor=#ffffff;startArrow=oval;startFill=1;startSize=4;endArrow=classicThin;endFill=1;endSize=4;spacingLeft=0;spacingRight=0;spacingTop=0;spacing=0;fontStyle=1;labelBorderColor=#ff0000;fillColor=none;gradientColor=none;dashed=1;dashPattern=1 1;" edge="1" parent="tsTBG0OW0sEVrxMQ48GY-4">
          <mxGeometry relative="1" as="geometry">
            <mxPoint x="390" y="510" as="sourcePoint" />
            <mxPoint x="500" y="510" as="targetPoint" />
            <Array as="points">
              <mxPoint x="420" y="510" />
              <mxPoint x="420" y="510" />
            </Array>
          </mxGeometry>
        </mxCell>
        <mxCell id="l_bGZoFVoLTzXPlWhcTy-5" style="edgeStyle=orthogonalEdgeStyle;rounded=1;orthogonalLoop=1;jettySize=auto;html=1;strokeColor=#9e0000;strokeWidth=2;align=center;verticalAlign=middle;fontFamily=Helvetica;fontSize=16;fontColor=#000000;labelBackgroundColor=#ffffff;startArrow=oval;startFill=1;startSize=4;endArrow=classicThin;endFill=1;endSize=4;spacingLeft=0;spacingRight=0;spacingTop=0;spacing=0;fontStyle=1;labelBorderColor=#ff0000;fillColor=none;gradientColor=none;dashed=1;dashPattern=1 1;" edge="1" parent="tsTBG0OW0sEVrxMQ48GY-4">
          <mxGeometry relative="1" as="geometry">
            <mxPoint x="360" y="540" as="sourcePoint" />
            <mxPoint x="360" y="640" as="targetPoint" />
            <Array as="points">
              <mxPoint x="360" y="590" />
              <mxPoint x="360" y="590" />
            </Array>
          </mxGeometry>
        </mxCell>
        <mxCell id="l_bGZoFVoLTzXPlWhcTy-6" style="edgeStyle=orthogonalEdgeStyle;rounded=1;orthogonalLoop=1;jettySize=auto;html=1;strokeColor=#00529e;strokeWidth=2;align=center;verticalAlign=middle;fontFamily=Helvetica;fontSize=16;fontColor=#000000;labelBackgroundColor=#ffffff;startArrow=oval;startFill=1;startSize=4;endArrow=classicThin;endFill=1;endSize=4;spacingLeft=0;spacingRight=0;spacingTop=0;spacing=0;fontStyle=1;labelBorderColor=#ff0000;fillColor=none;gradientColor=none;dashed=1;dashPattern=1 1;" edge="1" parent="tsTBG0OW0sEVrxMQ48GY-4">
          <mxGeometry relative="1" as="geometry">
            <mxPoint x="130" y="490" as="sourcePoint" />
            <mxPoint x="130" y="600" as="targetPoint" />
            <Array as="points">
              <mxPoint x="130" y="491" />
              <mxPoint x="100" y="491" />
            </Array>
          </mxGeometry>
        </mxCell>
        <mxCell id="l_bGZoFVoLTzXPlWhcTy-7" style="edgeStyle=orthogonalEdgeStyle;rounded=1;orthogonalLoop=1;jettySize=auto;html=1;strokeColor=#00529e;strokeWidth=2;align=center;verticalAlign=middle;fontFamily=Helvetica;fontSize=16;fontColor=#000000;labelBackgroundColor=#ffffff;startArrow=oval;startFill=1;startSize=4;endArrow=classicThin;endFill=1;endSize=4;spacingLeft=0;spacingRight=0;spacingTop=0;spacing=0;fontStyle=1;labelBorderColor=#ff0000;fillColor=none;gradientColor=none;dashed=1;dashPattern=1 1;" edge="1" parent="tsTBG0OW0sEVrxMQ48GY-4">
          <mxGeometry relative="1" as="geometry">
            <mxPoint x="310" y="310" as="sourcePoint" />
            <mxPoint x="380" y="310" as="targetPoint" />
            <Array as="points">
              <mxPoint x="350" y="310" />
              <mxPoint x="350" y="310" />
            </Array>
          </mxGeometry>
        </mxCell>
        <mxCell id="l_bGZoFVoLTzXPlWhcTy-8" style="edgeStyle=orthogonalEdgeStyle;rounded=1;orthogonalLoop=1;jettySize=auto;html=1;strokeColor=#00529e;strokeWidth=2;align=center;verticalAlign=middle;fontFamily=Helvetica;fontSize=16;fontColor=#000000;labelBackgroundColor=#ffffff;startArrow=oval;startFill=1;startSize=4;endArrow=classicThin;endFill=1;endSize=4;spacingLeft=0;spacingRight=0;spacingTop=0;spacing=0;fontStyle=1;labelBorderColor=#ff0000;fillColor=none;gradientColor=none;dashed=1;dashPattern=1 1;" edge="1" parent="tsTBG0OW0sEVrxMQ48GY-4">
          <mxGeometry relative="1" as="geometry">
            <mxPoint x="440" y="310" as="sourcePoint" />
            <mxPoint x="510" y="310" as="targetPoint" />
            <Array as="points">
              <mxPoint x="480" y="310" />
              <mxPoint x="480" y="310" />
            </Array>
          </mxGeometry>
        </mxCell>
        <mxCell id="l_bGZoFVoLTzXPlWhcTy-9" style="edgeStyle=orthogonalEdgeStyle;rounded=1;orthogonalLoop=1;jettySize=auto;html=1;strokeColor=#00529e;strokeWidth=2;align=center;verticalAlign=middle;fontFamily=Helvetica;fontSize=16;fontColor=#000000;labelBackgroundColor=#ffffff;startArrow=oval;startFill=1;startSize=4;endArrow=classicThin;endFill=1;endSize=4;spacingLeft=0;spacingRight=0;spacingTop=0;spacing=0;fontStyle=1;labelBorderColor=#ff0000;fillColor=none;gradientColor=none;dashed=1;dashPattern=1 1;" edge="1" parent="tsTBG0OW0sEVrxMQ48GY-4">
          <mxGeometry relative="1" as="geometry">
            <mxPoint x="570" y="310" as="sourcePoint" />
            <mxPoint x="640" y="310" as="targetPoint" />
            <Array as="points">
              <mxPoint x="610" y="310" />
              <mxPoint x="610" y="310" />
            </Array>
          </mxGeometry>
        </mxCell>
        <mxCell id="l_bGZoFVoLTzXPlWhcTy-11" style="edgeStyle=orthogonalEdgeStyle;rounded=1;orthogonalLoop=1;jettySize=auto;html=1;strokeColor=#f38c16;strokeWidth=2;align=center;verticalAlign=middle;fontFamily=Helvetica;fontSize=16;fontColor=#000000;labelBackgroundColor=#ffffff;startArrow=oval;startFill=1;startSize=4;endArrow=classicThin;endFill=1;endSize=4;spacingLeft=0;spacingRight=0;spacingTop=0;spacing=0;fontStyle=1;labelBorderColor=#ff0000;fillColor=none;gradientColor=none;dashed=1;dashPattern=1 1;" edge="1" parent="tsTBG0OW0sEVrxMQ48GY-4">
          <mxGeometry relative="1" as="geometry">
            <mxPoint x="210" y="340" as="sourcePoint" />
            <mxPoint x="120" y="420" as="targetPoint" />
            <Array as="points">
              <mxPoint x="120" y="340" />
            </Array>
          </mxGeometry>
        </mxCell>
        <mxCell id="l_bGZoFVoLTzXPlWhcTy-12" value="&amp;nbsp;3&amp;nbsp;" style="edgeLabel;html=1;align=center;verticalAlign=middle;resizable=0;points=[];rounded=1;strokeColor=#4277BB;strokeWidth=2;spacingLeft=0;spacingRight=0;spacingTop=0;spacing=0;fontFamily=Helvetica;fontSize=16;fontColor=#000000;fontStyle=1;labelBorderColor=#f38c16;labelBackgroundColor=#ffffff;fillColor=none;gradientColor=none;dashed=1;dashPattern=1 1;" vertex="1" connectable="0" parent="tsTBG0OW0sEVrxMQ48GY-4">
          <mxGeometry x="149.9982352941178" y="560" as="geometry">
            <mxPoint x="-33" y="-181" as="offset" />
          </mxGeometry>
        </mxCell>
        <mxCell id="l_bGZoFVoLTzXPlWhcTy-13" style="edgeStyle=orthogonalEdgeStyle;rounded=1;orthogonalLoop=1;jettySize=auto;html=1;strokeColor=#00529e;strokeWidth=2;align=center;verticalAlign=middle;fontFamily=Helvetica;fontSize=16;fontColor=#000000;labelBackgroundColor=#ffffff;startArrow=oval;startFill=1;startSize=4;endArrow=classicThin;endFill=1;endSize=4;spacingLeft=0;spacingRight=0;spacingTop=0;spacing=0;fontStyle=1;labelBorderColor=#ff0000;fillColor=none;gradientColor=none;dashed=1;dashPattern=1 1;" edge="1" parent="tsTBG0OW0sEVrxMQ48GY-4">
          <mxGeometry relative="1" as="geometry">
            <mxPoint x="390" y="720" as="sourcePoint" />
            <mxPoint x="470" y="720" as="targetPoint" />
            <Array as="points">
              <mxPoint x="430" y="720" />
              <mxPoint x="430" y="720" />
            </Array>
          </mxGeometry>
        </mxCell>
        <mxCell id="l_bGZoFVoLTzXPlWhcTy-14" style="edgeStyle=orthogonalEdgeStyle;rounded=1;orthogonalLoop=1;jettySize=auto;html=1;strokeColor=#00529e;strokeWidth=2;align=center;verticalAlign=middle;fontFamily=Helvetica;fontSize=16;fontColor=#000000;labelBackgroundColor=#ffffff;startArrow=oval;startFill=1;startSize=4;endArrow=classicThin;endFill=1;endSize=4;spacingLeft=0;spacingRight=0;spacingTop=0;spacing=0;fontStyle=1;labelBorderColor=#ff0000;fillColor=none;gradientColor=none;dashed=1;dashPattern=1 1;" edge="1" parent="tsTBG0OW0sEVrxMQ48GY-4">
          <mxGeometry relative="1" as="geometry">
            <mxPoint x="530" y="720" as="sourcePoint" />
            <mxPoint x="620" y="720" as="targetPoint" />
            <Array as="points">
              <mxPoint x="570" y="720" />
              <mxPoint x="570" y="720" />
            </Array>
          </mxGeometry>
        </mxCell>
        <mxCell id="l_bGZoFVoLTzXPlWhcTy-15" style="edgeStyle=orthogonalEdgeStyle;rounded=1;orthogonalLoop=1;jettySize=auto;html=1;strokeColor=#00529e;strokeWidth=2;align=center;verticalAlign=middle;fontFamily=Helvetica;fontSize=16;fontColor=#000000;labelBackgroundColor=#ffffff;startArrow=oval;startFill=1;startSize=4;endArrow=classicThin;endFill=1;endSize=4;spacingLeft=0;spacingRight=0;spacingTop=0;spacing=0;fontStyle=1;labelBorderColor=#ff0000;fillColor=none;gradientColor=none;dashed=1;dashPattern=1 1;" edge="1" parent="tsTBG0OW0sEVrxMQ48GY-4">
          <mxGeometry relative="1" as="geometry">
            <mxPoint x="680" y="720" as="sourcePoint" />
            <mxPoint x="770" y="720" as="targetPoint" />
            <Array as="points">
              <mxPoint x="720" y="720" />
              <mxPoint x="720" y="720" />
            </Array>
          </mxGeometry>
        </mxCell>
        <mxCell id="l_bGZoFVoLTzXPlWhcTy-16" style="edgeStyle=orthogonalEdgeStyle;rounded=1;orthogonalLoop=1;jettySize=auto;html=1;strokeColor=#3a4045;strokeWidth=2;align=center;verticalAlign=middle;fontFamily=Helvetica;fontSize=16;fontColor=#000000;labelBackgroundColor=#ffffff;startArrow=oval;startFill=1;startSize=4;endArrow=classicThin;endFill=1;endSize=4;spacingLeft=0;spacingRight=0;spacingTop=0;spacing=0;fontStyle=1;labelBorderColor=#ff0000;fillColor=none;gradientColor=none;dashed=1;dashPattern=1 1;" edge="1" parent="tsTBG0OW0sEVrxMQ48GY-4">
          <mxGeometry relative="1" as="geometry">
            <mxPoint x="800" y="690" as="sourcePoint" />
            <mxPoint x="360" y="690" as="targetPoint" />
            <Array as="points">
              <mxPoint x="710" y="670" />
              <mxPoint x="710" y="670" />
            </Array>
          </mxGeometry>
        </mxCell>
        <mxCell id="l_bGZoFVoLTzXPlWhcTy-17" style="edgeStyle=orthogonalEdgeStyle;rounded=1;orthogonalLoop=1;jettySize=auto;html=1;strokeColor=#00529e;strokeWidth=2;align=center;verticalAlign=middle;fontFamily=Helvetica;fontSize=16;fontColor=#000000;labelBackgroundColor=#ffffff;startArrow=oval;startFill=1;startSize=4;endArrow=classicThin;endFill=1;endSize=4;spacingLeft=0;spacingRight=0;spacingTop=0;spacing=0;fontStyle=1;labelBorderColor=#ff0000;fillColor=none;gradientColor=none;dashed=1;dashPattern=1 1;" edge="1" parent="tsTBG0OW0sEVrxMQ48GY-4">
          <mxGeometry relative="1" as="geometry">
            <mxPoint x="1040" y="720" as="sourcePoint" />
            <mxPoint x="1040" y="610" as="targetPoint" />
            <Array as="points">
              <mxPoint x="1040" y="721" />
              <mxPoint x="1070" y="721" />
              <mxPoint x="1070" y="610" />
            </Array>
          </mxGeometry>
        </mxCell>
        <mxCell id="l_bGZoFVoLTzXPlWhcTy-18" style="edgeStyle=orthogonalEdgeStyle;rounded=1;orthogonalLoop=1;jettySize=auto;html=1;strokeColor=#00529e;strokeWidth=2;align=center;verticalAlign=middle;fontFamily=Helvetica;fontSize=16;fontColor=#000000;labelBackgroundColor=#ffffff;startArrow=oval;startFill=1;startSize=4;endArrow=classicThin;endFill=1;endSize=4;spacingLeft=0;spacingRight=0;spacingTop=0;spacing=0;fontStyle=1;labelBorderColor=#ff0000;fillColor=none;gradientColor=none;dashed=1;dashPattern=1 1;" edge="1" parent="tsTBG0OW0sEVrxMQ48GY-4">
          <mxGeometry relative="1" as="geometry">
            <mxPoint x="1040" y="590" as="sourcePoint" />
            <mxPoint x="1040" y="480" as="targetPoint" />
            <Array as="points">
              <mxPoint x="1040" y="591" />
              <mxPoint x="1070" y="591" />
              <mxPoint x="1070" y="480" />
            </Array>
          </mxGeometry>
        </mxCell>
        <mxCell id="l_bGZoFVoLTzXPlWhcTy-19" style="edgeStyle=orthogonalEdgeStyle;rounded=1;orthogonalLoop=1;jettySize=auto;html=1;strokeColor=#00529e;strokeWidth=2;align=center;verticalAlign=middle;fontFamily=Helvetica;fontSize=16;fontColor=#000000;labelBackgroundColor=#ffffff;startArrow=oval;startFill=1;startSize=4;endArrow=classicThin;endFill=1;endSize=4;spacingLeft=0;spacingRight=0;spacingTop=0;spacing=0;fontStyle=1;labelBorderColor=#ff0000;fillColor=none;gradientColor=none;dashed=1;dashPattern=1 1;" edge="1" parent="tsTBG0OW0sEVrxMQ48GY-4">
          <mxGeometry relative="1" as="geometry">
            <mxPoint x="750" y="510" as="sourcePoint" />
            <mxPoint x="610" y="510" as="targetPoint" />
            <Array as="points">
              <mxPoint x="720" y="510" />
              <mxPoint x="720" y="510" />
            </Array>
          </mxGeometry>
        </mxCell>
        <mxCell id="l_bGZoFVoLTzXPlWhcTy-36" style="edgeStyle=orthogonalEdgeStyle;rounded=1;orthogonalLoop=1;jettySize=auto;html=1;strokeColor=#00529e;strokeWidth=2;align=center;verticalAlign=middle;fontFamily=Helvetica;fontSize=16;fontColor=#000000;labelBackgroundColor=#ffffff;startArrow=oval;startFill=1;startSize=4;endArrow=classicThin;endFill=1;endSize=4;spacingLeft=0;spacingRight=0;spacingTop=0;spacing=0;fontStyle=1;labelBorderColor=#ff0000;fillColor=none;gradientColor=none;dashed=1;dashPattern=1 1;" edge="1" parent="tsTBG0OW0sEVrxMQ48GY-4">
          <mxGeometry relative="1" as="geometry">
            <mxPoint x="700" y="310" as="sourcePoint" />
            <mxPoint x="770" y="310" as="targetPoint" />
            <Array as="points">
              <mxPoint x="730" y="310" />
              <mxPoint x="730" y="310" />
            </Array>
          </mxGeometry>
        </mxCell>
        <mxCell id="tsTBG0OW0sEVrxMQ48GY-31" value="component" style="locked=1;" parent="tsTBG0OW0sEVrxMQ48GY-0" />
        <mxCell id="tsTBG0OW0sEVrxMQ48GY-40" value="Datalake" style="image;aspect=fixed;perimeter=ellipsePerimeter;html=1;align=center;shadow=0;dashed=0;fontColor=#4277BB;labelBackgroundColor=#f7f7f7;fontSize=11;spacingTop=0;image=img/lib/ibm/data/device_registry.svg;rounded=0;strokeColor=default;strokeWidth=1;verticalAlign=top;spacingLeft=0;spacing=0;fontFamily=Helvetica;fontStyle=1;fillColor=default;container=0;" vertex="1" parent="tsTBG0OW0sEVrxMQ48GY-31">
          <mxGeometry x="770" y="90" width="60" height="60" as="geometry" />
        </mxCell>
        <mxCell id="bVcxfSKR-bPxtgqNd2lj-20" value="Batch Ingestion" style="image;aspect=fixed;perimeter=ellipsePerimeter;html=1;align=center;shadow=0;dashed=0;fontColor=#4277BB;labelBackgroundColor=#f7f7f7;fontSize=11;spacingTop=0;image=img/lib/ibm/data/caches.svg;rounded=0;strokeColor=default;strokeWidth=1;verticalAlign=top;spacingLeft=0;spacing=0;fontFamily=Helvetica;fontStyle=1;fillColor=default;" vertex="1" parent="tsTBG0OW0sEVrxMQ48GY-31">
          <mxGeometry x="90" y="190" width="60" height="60" as="geometry" />
        </mxCell>
        <mxCell id="bVcxfSKR-bPxtgqNd2lj-21" value="Validating" style="image;aspect=fixed;perimeter=ellipsePerimeter;html=1;align=center;shadow=0;dashed=0;fontColor=#4277BB;labelBackgroundColor=#f7f7f7;fontSize=11;spacingTop=0;image=img/lib/ibm/infrastructure/service_discovery_configuration.svg;rounded=0;strokeColor=default;strokeWidth=1;verticalAlign=top;spacingLeft=0;spacing=0;fontFamily=Helvetica;fontStyle=1;fillColor=default;" vertex="1" parent="tsTBG0OW0sEVrxMQ48GY-31">
          <mxGeometry x="250" y="280" width="60" height="60" as="geometry" />
        </mxCell>
        <mxCell id="bVcxfSKR-bPxtgqNd2lj-28" value="Evaluation" style="image;aspect=fixed;perimeter=ellipsePerimeter;html=1;align=center;shadow=0;dashed=0;fontColor=#4277BB;labelBackgroundColor=#f7f7f7;fontSize=11;spacingTop=0;image=img/lib/ibm/devops/continuous_testing.svg;rounded=0;strokeColor=default;strokeWidth=1;verticalAlign=top;spacingLeft=0;spacing=0;fontFamily=Helvetica;fontStyle=1;fillColor=default;" vertex="1" parent="tsTBG0OW0sEVrxMQ48GY-31">
          <mxGeometry x="770" y="690" width="60" height="60" as="geometry" />
        </mxCell>
        <mxCell id="bVcxfSKR-bPxtgqNd2lj-29" value="Label Encoding" style="image;aspect=fixed;perimeter=ellipsePerimeter;html=1;align=center;shadow=0;dashed=0;fontColor=#4277BB;labelBackgroundColor=#f7f7f7;fontSize=11;spacingTop=0;image=img/lib/ibm/management/monitoring_metrics.svg;rounded=0;strokeColor=default;strokeWidth=1;verticalAlign=top;spacingLeft=0;spacing=0;fontFamily=Helvetica;fontStyle=1;fillColor=default;" vertex="1" parent="tsTBG0OW0sEVrxMQ48GY-31">
          <mxGeometry x="130" y="680" width="60" height="60" as="geometry" />
        </mxCell>
        <mxCell id="bVcxfSKR-bPxtgqNd2lj-37" value="Deploy" style="image;aspect=fixed;perimeter=ellipsePerimeter;html=1;align=center;shadow=0;dashed=0;fontColor=#4277BB;labelBackgroundColor=#f7f7f7;fontSize=11;spacingTop=0;image=img/lib/ibm/devops/continuous_deploy.svg;rounded=0;strokeColor=default;strokeWidth=1;verticalAlign=top;spacingLeft=0;spacing=0;fontFamily=Helvetica;fontStyle=1;fillColor=default;" vertex="1" parent="tsTBG0OW0sEVrxMQ48GY-31">
          <mxGeometry x="980" y="450" width="60" height="60" as="geometry" />
        </mxCell>
        <mxCell id="bVcxfSKR-bPxtgqNd2lj-41" value="API" style="image;aspect=fixed;perimeter=ellipsePerimeter;html=1;align=center;shadow=0;dashed=0;fontColor=#4277BB;labelBackgroundColor=#f7f7f7;fontSize=11;spacingTop=0;image=img/lib/ibm/analytics/analytics.svg;rounded=0;strokeColor=default;strokeWidth=1;verticalAlign=top;spacingLeft=0;spacing=0;fontFamily=Helvetica;fontStyle=1;fillColor=default;" vertex="1" parent="tsTBG0OW0sEVrxMQ48GY-31">
          <mxGeometry x="750" y="480" width="60" height="60" as="geometry" />
        </mxCell>
        <mxCell id="bVcxfSKR-bPxtgqNd2lj-45" value="Log" style="image;aspect=fixed;perimeter=ellipsePerimeter;html=1;align=center;shadow=0;dashed=0;fontColor=#4277BB;labelBackgroundColor=#f7f7f7;fontSize=11;spacingTop=0;image=img/lib/ibm/management/it_service_management.svg;rounded=0;strokeColor=default;strokeWidth=1;verticalAlign=top;spacingLeft=0;spacing=0;fontFamily=Helvetica;fontStyle=1;fillColor=default;" vertex="1" parent="tsTBG0OW0sEVrxMQ48GY-31">
          <mxGeometry x="990" y="230" width="60" height="60" as="geometry" />
        </mxCell>
        <mxCell id="l_bGZoFVoLTzXPlWhcTy-2" value="Monitor" style="image;aspect=fixed;perimeter=ellipsePerimeter;html=1;align=center;shadow=0;dashed=0;fontColor=#4277BB;labelBackgroundColor=#f7f7f7;fontSize=11;spacingTop=0;image=img/lib/ibm/security/governance_risk_compliance.svg;rounded=0;strokeColor=default;strokeWidth=1;verticalAlign=top;spacingLeft=0;spacing=0;fontFamily=Helvetica;fontStyle=1;fillColor=default;" vertex="1" parent="tsTBG0OW0sEVrxMQ48GY-31">
          <mxGeometry x="330" y="480" width="60" height="60" as="geometry" />
        </mxCell>
        <mxCell id="l_bGZoFVoLTzXPlWhcTy-20" value="Train Labels" style="image;aspect=fixed;perimeter=ellipsePerimeter;html=1;align=center;shadow=0;dashed=0;fontColor=#4277BB;labelBackgroundColor=#f7f7f7;fontSize=11;spacingTop=0;image=img/lib/ibm/applications/speech_to_text.svg;rounded=0;strokeColor=default;strokeWidth=1;verticalAlign=top;spacingLeft=0;spacing=0;fontFamily=Helvetica;fontStyle=1;fillColor=default;" vertex="1" parent="tsTBG0OW0sEVrxMQ48GY-31">
          <mxGeometry x="240" y="90" width="60" height="60" as="geometry" />
        </mxCell>
        <mxCell id="l_bGZoFVoLTzXPlWhcTy-21" value="Train Article&#39;s Attributes" style="image;aspect=fixed;perimeter=ellipsePerimeter;html=1;align=center;shadow=0;dashed=0;fontColor=#4277BB;labelBackgroundColor=#f7f7f7;fontSize=11;spacingTop=0;image=img/lib/ibm/applications/annotate.svg;rounded=0;strokeColor=default;strokeWidth=1;verticalAlign=top;spacingLeft=0;spacing=0;fontFamily=Helvetica;fontStyle=1;fillColor=default;container=0;" vertex="1" parent="tsTBG0OW0sEVrxMQ48GY-31">
          <mxGeometry x="370" y="90" width="60" height="60" as="geometry" />
        </mxCell>
        <mxCell id="l_bGZoFVoLTzXPlWhcTy-22" value="Predict Articles&#39;s Attributes" style="image;aspect=fixed;perimeter=ellipsePerimeter;html=1;align=center;shadow=0;dashed=0;fontColor=#4277BB;labelBackgroundColor=#f7f7f7;fontSize=11;spacingTop=0;image=img/lib/ibm/applications/annotate.svg;rounded=0;strokeColor=default;strokeWidth=1;verticalAlign=top;spacingLeft=0;spacing=0;fontFamily=Helvetica;fontStyle=1;fillColor=default;container=0;" vertex="1" parent="tsTBG0OW0sEVrxMQ48GY-31">
          <mxGeometry x="555" y="90" width="60" height="60" as="geometry" />
        </mxCell>
        <mxCell id="l_bGZoFVoLTzXPlWhcTy-23" value="Normalization" style="image;aspect=fixed;perimeter=ellipsePerimeter;html=1;align=center;shadow=0;dashed=0;fontColor=#4277BB;labelBackgroundColor=#f7f7f7;fontSize=11;spacingTop=0;image=img/lib/ibm/blockchain/message_bus.svg;rounded=0;strokeColor=default;strokeWidth=1;verticalAlign=top;spacingLeft=0;spacing=0;fontFamily=Helvetica;fontStyle=1;fillColor=default;" vertex="1" parent="tsTBG0OW0sEVrxMQ48GY-31">
          <mxGeometry x="510" y="280" width="60" height="60" as="geometry" />
        </mxCell>
        <mxCell id="l_bGZoFVoLTzXPlWhcTy-24" value="Cleaning" style="image;aspect=fixed;perimeter=ellipsePerimeter;html=1;align=center;shadow=0;dashed=0;fontColor=#4277BB;labelBackgroundColor=#f7f7f7;fontSize=11;spacingTop=0;image=img/lib/ibm/blockchain/communication.svg;rounded=0;strokeColor=default;strokeWidth=1;verticalAlign=top;spacingLeft=0;spacing=0;fontFamily=Helvetica;fontStyle=1;fillColor=default;" vertex="1" parent="tsTBG0OW0sEVrxMQ48GY-31">
          <mxGeometry x="380" y="280" width="60" height="60" as="geometry" />
        </mxCell>
        <mxCell id="l_bGZoFVoLTzXPlWhcTy-25" value="Stopword Removal" style="image;aspect=fixed;perimeter=ellipsePerimeter;html=1;align=center;shadow=0;dashed=0;fontColor=#4277BB;labelBackgroundColor=#f7f7f7;fontSize=11;spacingTop=0;image=img/lib/ibm/infrastructure/monitoring.svg;rounded=0;strokeColor=default;strokeWidth=1;verticalAlign=top;spacingLeft=0;spacing=0;fontFamily=Helvetica;fontStyle=1;fillColor=default;" vertex="1" parent="tsTBG0OW0sEVrxMQ48GY-31">
          <mxGeometry x="770" y="280" width="60" height="60" as="geometry" />
        </mxCell>
        <mxCell id="l_bGZoFVoLTzXPlWhcTy-26" value="&lt;span style=&quot;background-color: rgb(255, 255, 255);&quot;&gt;Lemmatization&lt;/span&gt;" style="image;aspect=fixed;perimeter=ellipsePerimeter;html=1;align=center;shadow=0;dashed=0;fontColor=#4277BB;labelBackgroundColor=#f7f7f7;fontSize=11;spacingTop=0;image=img/lib/ibm/vpc/PublicGateway.svg;strokeColor=default;verticalAlign=top;spacing=0;fontFamily=Helvetica;fontStyle=1;fillColor=default;container=0;rounded=0;strokeWidth=1;spacingLeft=0;" vertex="1" parent="tsTBG0OW0sEVrxMQ48GY-31">
          <mxGeometry x="640" y="280" width="60" height="60" as="geometry" />
        </mxCell>
        <mxCell id="l_bGZoFVoLTzXPlWhcTy-27" value="Embeddings" style="image;aspect=fixed;perimeter=ellipsePerimeter;html=1;align=center;shadow=0;dashed=0;fontColor=#4277BB;labelBackgroundColor=#f7f7f7;fontSize=11;spacingTop=0;image=img/lib/ibm/management/api_management.svg;strokeColor=default;verticalAlign=top;spacing=0;fontFamily=Helvetica;fontStyle=1;fillColor=default;container=0;rounded=0;strokeWidth=1;spacingLeft=0;" vertex="1" parent="tsTBG0OW0sEVrxMQ48GY-31">
          <mxGeometry x="130" y="570" width="60" height="60" as="geometry" />
        </mxCell>
        <mxCell id="l_bGZoFVoLTzXPlWhcTy-28" value="Tokenization" style="image;aspect=fixed;perimeter=ellipsePerimeter;html=1;align=center;shadow=0;dashed=0;fontColor=#4277BB;labelBackgroundColor=#f7f7f7;fontSize=11;spacingTop=0;image=img/lib/ibm/management/content_management.svg;rounded=0;strokeColor=default;strokeWidth=1;verticalAlign=top;spacingLeft=0;spacing=0;fontFamily=Helvetica;fontStyle=1;fillColor=default;" vertex="1" parent="tsTBG0OW0sEVrxMQ48GY-31">
          <mxGeometry x="130" y="460" width="60" height="60" as="geometry" />
        </mxCell>
        <mxCell id="l_bGZoFVoLTzXPlWhcTy-29" value="Coding" style="image;aspect=fixed;perimeter=ellipsePerimeter;html=1;align=center;shadow=0;dashed=0;fontColor=#4277BB;labelBackgroundColor=#f7f7f7;fontSize=11;spacingTop=0;image=img/lib/ibm/devops/code_editor.svg;rounded=0;strokeColor=default;strokeWidth=1;verticalAlign=top;spacingLeft=0;spacing=0;fontFamily=Helvetica;fontStyle=1;fillColor=default;" vertex="1" parent="tsTBG0OW0sEVrxMQ48GY-31">
          <mxGeometry x="330" y="690" width="60" height="60" as="geometry" />
        </mxCell>
        <mxCell id="l_bGZoFVoLTzXPlWhcTy-30" value="Validating" style="image;aspect=fixed;perimeter=ellipsePerimeter;html=1;align=center;shadow=0;dashed=0;fontColor=#4277BB;labelBackgroundColor=#f7f7f7;fontSize=11;spacingTop=0;image=img/lib/ibm/devops/devops.svg;rounded=0;strokeColor=default;strokeWidth=1;verticalAlign=top;spacingLeft=0;spacing=0;fontFamily=Helvetica;fontStyle=1;fillColor=default;" vertex="1" parent="tsTBG0OW0sEVrxMQ48GY-31">
          <mxGeometry x="620" y="690" width="60" height="60" as="geometry" />
        </mxCell>
        <mxCell id="l_bGZoFVoLTzXPlWhcTy-31" value="Training" style="image;aspect=fixed;perimeter=ellipsePerimeter;html=1;align=center;shadow=0;dashed=0;fontColor=#4277BB;labelBackgroundColor=#f7f7f7;fontSize=11;spacingTop=0;image=img/lib/ibm/devops/release_management.svg;rounded=0;strokeColor=default;strokeWidth=1;verticalAlign=top;spacingLeft=0;spacing=0;fontFamily=Helvetica;fontStyle=1;fillColor=default;" vertex="1" parent="tsTBG0OW0sEVrxMQ48GY-31">
          <mxGeometry x="470" y="690" width="60" height="60" as="geometry" />
        </mxCell>
        <mxCell id="l_bGZoFVoLTzXPlWhcTy-32" value="Containerise" style="image;aspect=fixed;perimeter=ellipsePerimeter;html=1;align=center;shadow=0;dashed=0;fontColor=#4277BB;labelBackgroundColor=#f7f7f7;fontSize=11;spacingTop=0;image=img/lib/ibm/vpc/Instance.svg;rounded=0;strokeColor=default;strokeWidth=1;verticalAlign=top;spacingLeft=0;spacing=0;fontFamily=Helvetica;fontStyle=1;fillColor=default;" vertex="1" parent="tsTBG0OW0sEVrxMQ48GY-31">
          <mxGeometry x="980" y="570" width="60" height="60" as="geometry" />
        </mxCell>
        <mxCell id="l_bGZoFVoLTzXPlWhcTy-33" value="Pakage" style="image;aspect=fixed;perimeter=ellipsePerimeter;html=1;align=center;shadow=0;dashed=0;fontColor=#4277BB;labelBackgroundColor=#f7f7f7;fontSize=11;spacingTop=0;image=img/lib/ibm/vpc/BlockStorage.svg;rounded=0;strokeColor=default;strokeWidth=1;verticalAlign=top;spacingLeft=0;spacing=0;fontFamily=Helvetica;fontStyle=1;fillColor=default;" vertex="1" parent="tsTBG0OW0sEVrxMQ48GY-31">
          <mxGeometry x="980" y="690" width="60" height="60" as="geometry" />
        </mxCell>
        <mxCell id="l_bGZoFVoLTzXPlWhcTy-34" value="Applications" style="image;aspect=fixed;perimeter=ellipsePerimeter;html=1;align=center;shadow=0;dashed=0;fontColor=#4277BB;labelBackgroundColor=#f7f7f7;fontSize=11;spacingTop=0;image=img/lib/ibm/analytics/device_analytics.svg;rounded=0;strokeColor=default;strokeWidth=1;verticalAlign=top;spacingLeft=0;spacing=0;fontFamily=Helvetica;fontStyle=1;fillColor=default;" vertex="1" parent="tsTBG0OW0sEVrxMQ48GY-31">
          <mxGeometry x="550" y="480" width="60" height="60" as="geometry" />
        </mxCell>
        <mxCell id="l_bGZoFVoLTzXPlWhcTy-35" value="Prediction" style="image;aspect=fixed;perimeter=ellipsePerimeter;html=1;align=center;shadow=0;dashed=0;fontColor=#4277BB;labelBackgroundColor=#f7f7f7;fontSize=11;spacingTop=0;image=img/lib/ibm/management/process_management.svg;rounded=0;strokeColor=default;strokeWidth=1;verticalAlign=top;spacingLeft=0;spacing=0;fontFamily=Helvetica;fontStyle=1;fillColor=default;" vertex="1" parent="tsTBG0OW0sEVrxMQ48GY-31">
          <mxGeometry x="990" y="100" width="60" height="60" as="geometry" />
        </mxCell>
      </root>
    </mxGraphModel>
  </diagram>
</mxfile>
